STARTFONT 2.1
FONT -FontForge-Good Times Rg-Book-R-Normal--38-360-75-75-P-282-ISO10646-1
SIZE 36 75 75
FONTBOUNDINGBOX 76 46 -11 -8
COMMENT "Generated by fontforge, http://fontforge.sourceforge.net"
COMMENT "(c) 1998-2012 Typodermic Fonts Inc. See attached license agreement. If agreement is missing visit typodermicfonts.com for more info. Languages by Chikako Larabie"
STARTPROPERTIES 39
FOUNDRY "FontForge"
FAMILY_NAME "Good Times Rg"
WEIGHT_NAME "Book"
SLANT "R"
SETWIDTH_NAME "Normal"
ADD_STYLE_NAME ""
PIXEL_SIZE 38
POINT_SIZE 360
RESOLUTION_X 75
RESOLUTION_Y 75
SPACING "P"
AVERAGE_WIDTH 282
CHARSET_REGISTRY "ISO10646"
CHARSET_ENCODING "1"
FONTNAME_REGISTRY ""
CHARSET_COLLECTIONS "ISO8859-2 ISO8859-9 ISO8859-4 ISO10646-1"
FONT_NAME "GoodTimesRg-Regular"
FACE_NAME "GoodTimesRg-Regular"
COPYRIGHT "(c) 1998-2012 Typodermic Fonts Inc. See attached license agreement. If agreement is missing visit typodermicfonts.com for more info. Languages by Chikako Larabie"
FONT_VERSION "4.001"
FONT_ASCENT 30
FONT_DESCENT 8
UNDERLINE_POSITION -5
UNDERLINE_THICKNESS 1
X_HEIGHT 27
CAP_HEIGHT 27
RAW_ASCENT 799
RAW_DESCENT 201
NORM_SPACE 11
RELATIVE_WEIGHT 40
RELATIVE_SETWIDTH 50
SUPERSCRIPT_X 0
SUPERSCRIPT_Y 11
SUPERSCRIPT_SIZE 11
SUBSCRIPT_X 0
SUBSCRIPT_Y 0
SUBSCRIPT_SIZE 11
AVG_LOWERCASE_WIDTH 324
AVG_UPPERCASE_WIDTH 322
ENDPROPERTIES
CHARS 372
STARTCHAR space
ENCODING 32
SWIDTH 294 0
DWIDTH 11 0
BBX 1 1 0 0
BITMAP
00
ENDCHAR
STARTCHAR exclam
ENCODING 33
SWIDTH 298 0
DWIDTH 11 0
BBX 5 28 3 0
BITMAP
F8
F8
F8
F8
F8
F8
F8
F8
F8
F8
F8
F8
F8
F8
F8
F8
F8
F8
F8
00
00
00
00
70
F8
F8
F8
70
ENDCHAR
STARTCHAR quotedbl
ENCODING 34
SWIDTH 452 0
DWIDTH 17 0
BBX 12 10 3 18
BITMAP
F1F0
F1E0
F1E0
F1E0
F1E0
F1E0
F1E0
F1E0
F1E0
F0E0
ENDCHAR
STARTCHAR numbersign
ENCODING 35
SWIDTH 697 0
DWIDTH 26 0
BBX 23 28 2 0
BITMAP
00783C
007038
00F078
00F078
00E070
01E070
01E0F0
1FFFFE
1FFFFE
1FFFFE
0381C0
0381C0
0783C0
0703C0
070380
0F0380
0F0780
FFFFF0
FFFFF0
FFFFF0
1C0E00
1C0E00
3C1E00
3C1E00
381C00
381C00
783C00
703C00
ENDCHAR
STARTCHAR dollar
ENCODING 36
SWIDTH 744 0
DWIDTH 28 0
BBX 24 28 2 0
BITMAP
001800
001800
001800
0FFFFE
3FFFFE
7FFFFE
7FFFFE
F81800
F01800
F01800
F01800
781800
7FFFF0
3FFFFC
0FFFFE
00181F
00180F
00180F
00180F
00180F
00181F
FFFFFE
FFFFFE
FFFFFC
FFFFF0
001800
001800
001800
ENDCHAR
STARTCHAR percent
ENCODING 37
SWIDTH 965 0
DWIDTH 37 0
BBX 33 33 2 -3
BITMAP
0000001C00
0000003800
0FC0007000
3FF000F000
707000E000
E03801C000
C01C038000
C01C078000
C01C070000
C01C0E0000
C01C1C0000
E018380000
6038780000
7870700000
3FE0E00000
0F81C00000
0003C00000
000381F800
000707FE00
000E0F0F00
001E0C0700
001C1C0380
0038180380
0070180180
00F0180180
01E0180380
01C01C0380
03800C0700
07000F0E00
0F0007FC00
0E0001F800
1C00000000
3800000000
ENDCHAR
STARTCHAR ampersand
ENCODING 38
SWIDTH 759 0
DWIDTH 29 0
BBX 26 28 2 0
BITMAP
03FE0000
1FFE0000
3FFE0000
7FFE0000
7FFE0000
7E000000
FC000000
F8000000
F8000000
78000000
7C000000
7E000000
3FFFFF00
0FFFFF00
3FFFFF00
7FFFFF00
7E00F800
F800F800
F800F800
F800F800
F800F800
F800F800
FE00F800
7FFFFFC0
7FFFFFC0
3FFFFFC0
1FFFFFC0
07FFFFC0
ENDCHAR
STARTCHAR quotesingle
ENCODING 39
SWIDTH 255 0
DWIDTH 10 0
BBX 5 10 2 18
BITMAP
F8
78
78
78
78
78
78
78
78
70
ENDCHAR
STARTCHAR parenleft
ENCODING 40
SWIDTH 356 0
DWIDTH 14 0
BBX 7 35 4 -3
BITMAP
1E
1C
1C
3C
38
78
78
70
70
F0
E0
E0
E0
E0
E0
E0
E0
E0
E0
E0
E0
E0
E0
E0
E0
F0
70
70
70
38
38
3C
1C
1C
1E
ENDCHAR
STARTCHAR parenright
ENCODING 41
SWIDTH 355 0
DWIDTH 13 0
BBX 8 35 2 -3
BITMAP
F0
78
38
38
3C
1C
1C
1E
0E
0E
0E
0E
0F
07
07
07
07
07
07
07
07
07
0F
0E
0E
0E
0E
1E
1C
1C
3C
38
78
70
F0
ENDCHAR
STARTCHAR asterisk
ENCODING 42
SWIDTH 469 0
DWIDTH 18 0
BBX 13 13 2 15
BITMAP
0300
0300
0300
4308
7378
FFF8
1FE0
0780
0FC0
1CC0
18E0
3870
1040
ENDCHAR
STARTCHAR plus
ENCODING 43
SWIDTH 690 0
DWIDTH 26 0
BBX 22 22 2 3
BITMAP
003800
003800
003800
003800
003800
003800
003800
003800
003800
003800
FFFFFC
FFFFFC
FFFFFC
003800
003800
003800
003800
003800
003800
003800
003800
003800
ENDCHAR
STARTCHAR comma
ENCODING 44
SWIDTH 259 0
DWIDTH 10 0
BBX 4 10 3 -5
BITMAP
F0
F0
F0
F0
F0
E0
E0
E0
E0
E0
ENDCHAR
STARTCHAR hyphen
ENCODING 45
SWIDTH 296 0
DWIDTH 11 0
BBX 9 3 1 13
BITMAP
FF80
FF80
FF80
ENDCHAR
STARTCHAR period
ENCODING 46
SWIDTH 262 0
DWIDTH 10 0
BBX 6 5 2 0
BITMAP
30
78
FC
78
78
ENDCHAR
STARTCHAR slash
ENCODING 47
SWIDTH 444 0
DWIDTH 17 0
BBX 16 28 0 0
BITMAP
0007
0007
000E
000E
001C
001C
003C
0038
0078
0070
00F0
00E0
00E0
01C0
01C0
0380
0380
0700
0700
0F00
0E00
1E00
1C00
3C00
3800
7800
7000
F000
ENDCHAR
STARTCHAR zero
ENCODING 48
SWIDTH 838 0
DWIDTH 32 0
BBX 28 28 2 0
BITMAP
003FC000
01FFF800
07FFFC00
0FFFFF00
1FFFFF80
3FC03FC0
3F000FC0
7E0007E0
7C0003E0
F80003F0
F80001F0
F80001F0
F80001F0
F00001F0
F00001F0
F80001F0
F80001F0
F80001F0
F80003E0
7C0003E0
7E0007E0
3F000FC0
1FC03F80
1FFFFF00
0FFFFE00
03FFFC00
01FFF000
003FC000
ENDCHAR
STARTCHAR one
ENCODING 49
SWIDTH 385 0
DWIDTH 15 0
BBX 11 28 1 0
BITMAP
FC00
FF00
FF80
FFC0
FFC0
07E0
03E0
03E0
03E0
03E0
03E0
03E0
03E0
03E0
03E0
03E0
03E0
03E0
03E0
03E0
03E0
03E0
03E0
03E0
03E0
03E0
03E0
03E0
ENDCHAR
STARTCHAR two
ENCODING 50
SWIDTH 825 0
DWIDTH 31 0
BBX 27 28 2 0
BITMAP
7FFFFC00
7FFFFF00
7FFFFF80
7FFFFFC0
7FFFFFE0
000007E0
000003E0
000003E0
000003E0
000003E0
000003E0
000007E0
07FFFFC0
1FFFFF80
3FFFFF00
7FFFFC00
7C000000
78000000
F8000000
F8000000
F8000000
F8000000
F8000000
FFFFFFE0
FFFFFFE0
FFFFFFE0
FFFFFFE0
FFFFFFE0
ENDCHAR
STARTCHAR three
ENCODING 51
SWIDTH 827 0
DWIDTH 31 0
BBX 28 28 2 0
BITMAP
FFFFFC00
FFFFFF00
FFFFFF80
FFFFFFC0
FFFFFFE0
00000FE0
000003E0
000003E0
000003E0
000003E0
000003C0
000007C0
03FFFF80
03FFFE00
03FFFF80
03FFFFC0
000007E0
000003E0
000001E0
000001F0
000001F0
000003E0
000007E0
FFFFFFE0
FFFFFFC0
FFFFFF80
FFFFFF00
FFFFFC00
ENDCHAR
STARTCHAR four
ENCODING 52
SWIDTH 845 0
DWIDTH 32 0
BBX 29 28 2 0
BITMAP
F8000F80
F8000F80
F8000F80
F8000F80
F8000F80
F8000F80
F8000F80
F8000F80
F8000F80
F8000F80
F8000F80
F8000F80
F8000F80
F8000F80
F8000F80
FC000F80
7FFFFFF8
7FFFFFF8
3FFFFFF8
1FFFFFF8
07FFFFF8
00000F80
00000F80
00000F80
00000F80
00000F80
00000F80
00000F80
ENDCHAR
STARTCHAR five
ENCODING 53
SWIDTH 885 0
DWIDTH 34 0
BBX 30 28 2 0
BITMAP
FFFFFFF0
FFFFFFF0
FFFFFFF0
FFFFFFF0
FFFFFFF0
F8000000
F8000000
F8000000
F8000000
F8000000
F8000000
F8000000
FFFFFF80
FFFFFFE0
FFFFFFF0
FFFFFFF8
000001F8
00000078
0000007C
0000007C
0000007C
0000007C
000000F8
FFFFFFF8
FFFFFFF0
FFFFFFF0
FFFFFFE0
FFFFFF80
ENDCHAR
STARTCHAR six
ENCODING 54
SWIDTH 872 0
DWIDTH 33 0
BBX 29 28 2 0
BITMAP
00FFFFF0
07FFFFF0
0FFFFFF0
1FFFFFF0
3FFFFFF0
7F800000
7E000000
FC000000
FC000000
F8000000
F8000000
F8000000
FFFFFF00
FFFFFFC0
FFFFFFF0
FFFFFFF0
F80001F8
F80000F8
F80000F8
F80000F8
7C0000F8
7E0000F8
3F8001F8
3FFFFFF0
1FFFFFF0
0FFFFFE0
03FFFFC0
00FFFF00
ENDCHAR
STARTCHAR seven
ENCODING 55
SWIDTH 756 0
DWIDTH 29 0
BBX 26 28 2 0
BITMAP
FFFFFF80
FFFFFFC0
FFFFFFC0
FFFFFFC0
FFFFFF80
00003F00
00007F00
00007E00
0000FC00
0001F800
0003F000
0007E000
0007E000
000FC000
001F8000
003F0000
007E0000
00FE0000
00FC0000
01F80000
03F00000
07E00000
0FE00000
0FC00000
1F800000
3F000000
7E000000
FE000000
ENDCHAR
STARTCHAR eight
ENCODING 56
SWIDTH 898 0
DWIDTH 34 0
BBX 30 28 2 0
BITMAP
03FFFF80
1FFFFFE0
3FFFFFF0
7FFFFFF8
7FFFFFF8
7E0001F8
FC0000FC
F800007C
7800007C
78000078
7C0000F8
3E0001F8
1FFFFFF0
0FFFFFC0
3FFFFFF0
7FFFFFF8
7C0000FC
F800007C
F800007C
F800007C
F800007C
F800007C
FE0001FC
7FFFFFF8
7FFFFFF8
3FFFFFF0
1FFFFFE0
07FFFF80
ENDCHAR
STARTCHAR nine
ENCODING 57
SWIDTH 861 0
DWIDTH 33 0
BBX 29 28 2 0
BITMAP
07FFF800
1FFFFE00
3FFFFF80
7FFFFFC0
FFFFFFE0
FC000FE0
F80003F0
F80001F0
F80001F0
F80000F8
F80000F8
F80000F8
FC0000F8
7FFFFFF8
7FFFFFF8
3FFFFFF8
0FFFFFF8
000000F8
000000F8
000001F8
000001F0
000003F0
00000FE0
1FFFFFE0
1FFFFFC0
1FFFFF80
1FFFFE00
1FFFF800
ENDCHAR
STARTCHAR colon
ENCODING 58
SWIDTH 262 0
DWIDTH 10 0
BBX 6 18 2 0
BITMAP
30
78
FC
78
78
00
00
00
00
00
00
00
00
30
78
FC
78
78
ENDCHAR
STARTCHAR semicolon
ENCODING 59
SWIDTH 262 0
DWIDTH 10 0
BBX 6 22 2 -5
BITMAP
78
78
FC
78
30
00
00
00
00
00
00
00
78
78
78
78
78
70
70
70
70
70
ENDCHAR
STARTCHAR less
ENCODING 60
SWIDTH 690 0
DWIDTH 26 0
BBX 22 21 2 4
BITMAP
000004
00001C
00007C
0003FC
000FF0
003FC0
01FE00
07F800
1FC000
7F0000
F80000
7C0000
3F8000
0FE000
03FC00
007F00
001FE0
0007F8
0000FC
00003C
00000C
ENDCHAR
STARTCHAR equal
ENCODING 61
SWIDTH 690 0
DWIDTH 26 0
BBX 22 14 2 7
BITMAP
FFFFFC
FFFFFC
FFFFFC
000000
000000
000000
000000
000000
000000
000000
000000
FFFFFC
FFFFFC
FFFFFC
ENDCHAR
STARTCHAR greater
ENCODING 62
SWIDTH 690 0
DWIDTH 26 0
BBX 22 21 2 4
BITMAP
800000
E00000
F80000
FF0000
3FC000
0FF000
01FE00
007F80
000FF0
0001F8
00007C
0000FC
0007F8
001FC0
00FF00
03FC00
1FE000
7F8000
FE0000
F00000
C00000
ENDCHAR
STARTCHAR question
ENCODING 63
SWIDTH 776 0
DWIDTH 29 0
BBX 26 28 2 0
BITMAP
FFFFF800
FFFFFE00
FFFFFF80
FFFFFF80
FFFFFFC0
00000FC0
000007C0
000007C0
000007C0
000007C0
00000FC0
03FFFF80
0FFFFF00
1FFFFE00
1FFFF800
3E000000
3E000000
3E000000
3E000000
00000000
00000000
00000000
00000000
1C000000
3E000000
3E000000
3E000000
1C000000
ENDCHAR
STARTCHAR at
ENCODING 64
SWIDTH 833 0
DWIDTH 32 0
BBX 27 28 2 0
BITMAP
003FFFE0
01FFFFE0
07FFFFE0
0FFFFFE0
1FC000E0
3F0000E0
3C0000E0
780000E0
781FF0E0
F07FF0E0
F0FFF0E0
E0F070E0
E0E070E0
E1E070E0
E1E070E0
E0E070E0
E0F070E0
F0FFFFE0
F07FFFE0
F81FFFE0
78000000
7C000000
3F000000
1FC00000
0FFFFFE0
07FFFFE0
01FFFFE0
007FFFE0
ENDCHAR
STARTCHAR A
ENCODING 65
SWIDTH 989 0
DWIDTH 38 0
BBX 36 28 1 0
BITMAP
0000E00000
0001F00000
0001F80000
0003F80000
0003FC0000
0007FC0000
000FFE0000
000FBF0000
001F9F0000
001F1F8000
003E0F8000
007E0FC000
007C07E000
00FC03E000
00F803F000
01F001F000
03F001F800
03E1FFFC00
07E3FFFC00
07C3FFFE00
0FC7FFFE00
1F80003F00
1F00001F80
3F00000F80
3E00000FC0
7E000007E0
FC000007E0
F8000003F0
ENDCHAR
STARTCHAR B
ENCODING 66
SWIDTH 891 0
DWIDTH 34 0
BBX 30 28 2 0
BITMAP
FFFFFF00
FFFFFFE0
FFFFFFF0
FFFFFFF8
FFFFFFF8
F80001F8
F80000FC
F800007C
F8000078
F8000078
F80000F8
F80001F0
F87FFFE0
F87FFFC0
F87FFFF0
F87FFFF8
F80001F8
F800007C
F800007C
F800007C
F800007C
F80000FC
F80001FC
FFFFFFF8
FFFFFFF8
FFFFFFF0
FFFFFFE0
FFFFFF80
ENDCHAR
STARTCHAR C
ENCODING 67
SWIDTH 829 0
DWIDTH 32 0
BBX 28 28 2 0
BITMAP
007FFFF0
01FFFFF0
07FFFFF0
0FFFFFF0
1FFFFFF0
3FC00000
7F000000
7E000000
FC000000
F8000000
F8000000
F8000000
F8000000
F0000000
F0000000
F8000000
F8000000
F8000000
F8000000
7C000000
7E000000
3F000000
3FC00000
1FFFFFF0
0FFFFFF0
07FFFFF0
01FFFFF0
007FFFF0
ENDCHAR
STARTCHAR D
ENCODING 68
SWIDTH 879 0
DWIDTH 33 0
BBX 30 28 2 0
BITMAP
FFFFF000
FFFFFE00
FFFFFF80
FFFFFFC0
FFFFFFE0
F8000FE0
F80007F0
F80001F8
F80001F8
F80000F8
F80000FC
F800007C
F800007C
F800007C
F800007C
F800007C
F800007C
F80000F8
F80000F8
F80001F8
F80001F0
F80007F0
F8000FE0
FFFFFFC0
FFFFFF80
FFFFFF00
FFFFFE00
FFFFF000
ENDCHAR
STARTCHAR E
ENCODING 69
SWIDTH 759 0
DWIDTH 29 0
BBX 25 28 2 0
BITMAP
FFFFFF80
FFFFFF80
FFFFFF80
FFFFFF80
FFFFFF80
F8000000
F8000000
F8000000
F8000000
F8000000
F8000000
F8000000
F87FFF00
F87FFF00
F87FFF00
F87FFF00
F8000000
F8000000
F8000000
F8000000
F8000000
F8000000
F8000000
FFFFFF80
FFFFFF80
FFFFFF80
FFFFFF80
FFFFFF80
ENDCHAR
STARTCHAR F
ENCODING 70
SWIDTH 705 0
DWIDTH 27 0
BBX 24 28 2 0
BITMAP
FFFFFF
FFFFFF
FFFFFF
FFFFFF
FFFFFF
F80000
F80000
F80000
F80000
F80000
F80000
F80000
F87FFE
F87FFE
F87FFE
F87FFE
F87FFE
F80000
F80000
F80000
F80000
F80000
F80000
F80000
F80000
F80000
F80000
F80000
ENDCHAR
STARTCHAR G
ENCODING 71
SWIDTH 888 0
DWIDTH 34 0
BBX 30 28 2 0
BITMAP
007FFFF0
01FFFFF0
07FFFFF0
0FFFFFF0
1FFFFFF0
3FC00000
7F000000
7E000000
FC000000
F8000000
F8000000
F8000000
F80FFFFC
F00FFFFC
F00FFFFC
F80FFFFC
F800007C
F800007C
F800007C
7C00007C
7E00007C
3F00007C
3FC0007C
1FFFFFFC
0FFFFFFC
07FFFFFC
01FFFFFC
007FFFFC
ENDCHAR
STARTCHAR H
ENCODING 72
SWIDTH 838 0
DWIDTH 32 0
BBX 27 28 2 0
BITMAP
F80001E0
F80001E0
F80001E0
F80001E0
F80001E0
F80001E0
F80001E0
F80001E0
F80001E0
F80001E0
F80001E0
F87FFFE0
F87FFFE0
F87FFFE0
F87FFFE0
F87FFFE0
F80001E0
F80001E0
F80001E0
F80001E0
F80001E0
F80001E0
F80001E0
F80001E0
F80001E0
F80001E0
F80001E0
F80001E0
ENDCHAR
STARTCHAR I
ENCODING 73
SWIDTH 267 0
DWIDTH 10 0
BBX 4 28 3 0
BITMAP
F0
F0
F0
F0
F0
F0
F0
F0
F0
F0
F0
F0
F0
F0
F0
F0
F0
F0
F0
F0
F0
F0
F0
F0
F0
F0
F0
F0
ENDCHAR
STARTCHAR J
ENCODING 74
SWIDTH 708 0
DWIDTH 27 0
BBX 24 28 1 0
BITMAP
00001F
00001F
00001F
00001F
00001F
00001F
00001F
00001F
00001F
00001F
00001F
00001F
00001F
00001F
00001F
00001F
00001F
00001F
00001F
00003F
00003E
00007E
0001FC
FFFFFC
FFFFF8
FFFFF0
FFFFC0
FFFE00
ENDCHAR
STARTCHAR K
ENCODING 75
SWIDTH 875 0
DWIDTH 33 0
BBX 31 28 2 0
BITMAP
F80003FC
F80007F0
F8001FE0
F8003F80
F8007F00
F801FE00
F803F800
F807F000
F80FE000
F83F8000
F87F0000
F8FE0000
F9F80000
F9F00000
F9F80000
F9FC0000
F87F0000
F83F8000
F81FC000
F80FE000
F803F800
F801FC00
F800FE00
F8007F80
F8001FC0
F8000FE0
F80007F8
F80001FE
ENDCHAR
STARTCHAR L
ENCODING 76
SWIDTH 707 0
DWIDTH 27 0
BBX 24 28 2 0
BITMAP
F80000
F80000
F80000
F80000
F80000
F80000
F80000
F80000
F80000
F80000
F80000
F80000
F80000
F80000
F80000
F80000
F80000
F80000
F80000
F80000
F80000
F80000
F80000
FFFFFF
FFFFFF
FFFFFF
FFFFFF
FFFFFF
ENDCHAR
STARTCHAR M
ENCODING 77
SWIDTH 1115 0
DWIDTH 42 0
BBX 41 28 1 0
BITMAP
00E000038000
01F000078000
01F0000FC000
01F8000FC000
03F8000FC000
03FC001FC000
03FC001FE000
07FC003FE000
07FE003FE000
07FE007DF000
079F007DF000
0F9F0079F000
0F8F80F8F000
0F8F80F0F800
0F0781F0F800
1F07C1E0F800
1F07C3E07800
1F03E3E07C00
3E03E3C07C00
3E01F7C07C00
3E01F7803E00
3C00FF803E00
7C00FF003E00
7C007F001E00
7C007E001F00
78007E001F00
F8003E001F00
F8001C000F80
ENDCHAR
STARTCHAR N
ENCODING 78
SWIDTH 873 0
DWIDTH 33 0
BBX 29 28 2 0
BITMAP
700000F8
780000F8
FC0000F8
FE0000F8
FF0000F8
FF8000F8
FFC000F8
FFE000F8
FBF000F8
F9F800F8
F8FC00F8
F87E00F8
F83F00F8
F81F80F8
F80FC0F8
F807E0F8
F803F0F8
F801F8F8
F800FCF8
F8007EF8
F8003FF8
F8001FF8
F8000FF8
F80007F8
F80003F8
F80001F8
F80000F8
F8000070
ENDCHAR
STARTCHAR O
ENCODING 79
SWIDTH 968 0
DWIDTH 37 0
BBX 33 28 2 0
BITMAP
007FFF0000
01FFFFC000
07FFFFF000
0FFFFFF800
1FFFFFFC00
3FC001FE00
7F00007E00
7E00003F00
FC00001F00
F800001F80
F800000F80
F800000F80
F800000F80
F000000F80
F000000F80
F800000F80
F800000F80
F800000F80
F800001F80
7C00001F00
7E00003F00
3F00007E00
3FC001FE00
1FFFFFFC00
0FFFFFF800
07FFFFF000
01FFFFC000
007FFE0000
ENDCHAR
STARTCHAR P
ENCODING 80
SWIDTH 867 0
DWIDTH 33 0
BBX 30 28 2 0
BITMAP
FFFFFE00
FFFFFFC0
FFFFFFE0
FFFFFFF0
FFFFFFF8
F80001F8
F80000F8
F800007C
F800007C
F800007C
F800007C
F800007C
F800007C
F80000F8
F80001F8
F87FFFF8
F87FFFF0
F87FFFE0
F87FFFC0
F87FFE00
F8000000
F8000000
F8000000
F8000000
F8000000
F8000000
F8000000
F8000000
ENDCHAR
STARTCHAR Q
ENCODING 81
SWIDTH 968 0
DWIDTH 37 0
BBX 35 28 2 0
BITMAP
007FFF0000
01FFFFC000
07FFFFF000
0FFFFFF800
1FFFFFFC00
3FC001FE00
7F00007E00
7E00003F00
FC00001F00
F800001F80
F800000F80
F800000F80
F800000F80
F000000F80
F000000F80
F800000F80
F803F80F80
F801FC0F80
F8007E1F80
7C003F1F00
7E001FBF00
3F000FFE00
3FC003FE00
1FFFFFFC00
0FFFFFFC00
07FFFFFE00
01FFFFFF80
007FFE0FE0
ENDCHAR
STARTCHAR R
ENCODING 82
SWIDTH 921 0
DWIDTH 35 0
BBX 33 28 2 0
BITMAP
FFFFFF0000
FFFFFFC000
FFFFFFE000
FFFFFFF000
FFFFFFF800
F80001F800
F80000FC00
F800007C00
F800007C00
F800007C00
F800007C00
F800007C00
F800007C00
F800007C00
F80000FC00
F80001F800
F87FFFF800
F87FFFF000
F87FFFE000
F87FFFC000
F87FFF8000
F8000FC000
F80007E000
F80003F000
F80001F800
F80000FC00
F800007E00
F800003F80
ENDCHAR
STARTCHAR S
ENCODING 83
SWIDTH 880 0
DWIDTH 33 0
BBX 30 28 2 0
BITMAP
07FFFFF0
1FFFFFF0
3FFFFFF0
7FFFFFF0
7FFFFFF0
FC000000
F8000000
F8000000
F8000000
F8000000
F8000000
7C000000
7FFFFF80
3FFFFFE0
1FFFFFF0
07FFFFF8
000001F8
00000078
0000007C
0000007C
0000007C
0000007C
000000F8
FFFFFFF8
FFFFFFF8
FFFFFFF0
FFFFFFE0
FFFFFF80
ENDCHAR
STARTCHAR T
ENCODING 84
SWIDTH 720 0
DWIDTH 27 0
BBX 26 28 1 0
BITMAP
FFFFFFC0
FFFFFFC0
FFFFFFC0
FFFFFFC0
FFFFFFC0
003E0000
003E0000
003E0000
003E0000
003E0000
003E0000
003E0000
003E0000
003E0000
003E0000
003E0000
003E0000
003E0000
003E0000
003E0000
003E0000
003E0000
003E0000
003E0000
003E0000
003E0000
003E0000
003E0000
ENDCHAR
STARTCHAR U
ENCODING 85
SWIDTH 889 0
DWIDTH 34 0
BBX 30 28 2 0
BITMAP
F800007C
F800007C
F800007C
F800007C
F800007C
F800007C
F800007C
F800007C
F800007C
F800007C
F800007C
F800007C
F800007C
F800007C
F800007C
F800007C
F800007C
F800007C
F800007C
FC0000F8
7C0000F8
7E0001F8
7FC00FF0
3FFFFFF0
1FFFFFE0
0FFFFFC0
03FFFF00
007FF800
ENDCHAR
STARTCHAR V
ENCODING 86
SWIDTH 989 0
DWIDTH 38 0
BBX 36 28 1 0
BITMAP
FC000003F0
FC000003E0
7E000007E0
3E00000FC0
3F00000F80
1F80001F80
1F80001F00
0FC0003F00
07C0007E00
07E0007C00
03F000FC00
03F000F800
01F801F800
00F801F000
00FC03E000
007E07E000
007E07C000
003F0F8000
001F0F8000
001F9F0000
000FFF0000
000FFE0000
0007FC0000
0003FC0000
0003F80000
0001F80000
0001F00000
0000E00000
ENDCHAR
STARTCHAR W
ENCODING 87
SWIDTH 1268 0
DWIDTH 48 0
BBX 47 28 1 0
BITMAP
FC07F000007E
FC03F00000FC
7E01F80000F8
7E01F80001F8
3F00FC0001F0
3F00FC0003F0
1F807E0003E0
0F807E0007E0
0FC03F0007C0
07C03F000FC0
07E01F800F80
03E01F801F00
03F00FC01F00
01F007C03E00
01F80FE03E00
00F80FE07C00
00FC1FF0FC00
007E1FF0F800
007E3FF9F800
003F7EF9F000
001F7CFFF000
001FF87FE000
000FF87FC000
000FF03FC000
0007F03F8000
0007E01F8000
0003E01F0000
0001C00E0000
ENDCHAR
STARTCHAR X
ENCODING 88
SWIDTH 1000 0
DWIDTH 38 0
BBX 36 28 1 0
BITMAP
7F00000FE0
3F80001F80
1FC0003F00
0FE0007E00
07F000FC00
01F801F800
00FC03F000
007E07E000
003F0FC000
001F9F8000
000FFF0000
0007FE0000
0003FC0000
0001F80000
0003FC0000
0007FE0000
000FFF0000
001FBF8000
003F0FC000
00FE07E000
01FC03F000
03F801F800
07F000FC00
0FE0007E00
1FC0003F00
3F80001F80
7F00000FC0
FE000007F0
ENDCHAR
STARTCHAR Y
ENCODING 89
SWIDTH 926 0
DWIDTH 35 0
BBX 35 28 0 0
BITMAP
FE00000FE0
3F00001F80
1F80003F80
1FC0003F00
0FE0007E00
07F000FC00
03F001F800
01F803F000
00FC07F000
007E07E000
007F0FC000
003F9F8000
001FBF0000
000FFE0000
0007FC0000
0003FC0000
0003F80000
0001F00000
0001F00000
0001F00000
0001F00000
0001F00000
0001F00000
0001F00000
0001F00000
0001F00000
0001F00000
0001F00000
ENDCHAR
STARTCHAR Z
ENCODING 90
SWIDTH 802 0
DWIDTH 30 0
BBX 27 28 2 0
BITMAP
FFFFFFC0
FFFFFFE0
FFFFFFE0
FFFFFFE0
FFFFFFC0
00003F80
00007F00
0000FE00
0001FC00
0003F800
0007F000
000FE000
001FC000
003F8000
007F0000
00FE0000
01FC0000
03F80000
07F00000
0FE00000
1FC00000
3F800000
7F000000
FFFFFFE0
FFFFFFE0
FFFFFFE0
FFFFFFE0
7FFFFFE0
ENDCHAR
STARTCHAR bracketleft
ENCODING 91
SWIDTH 333 0
DWIDTH 13 0
BBX 6 35 4 -3
BITMAP
FC
FC
FC
E0
E0
E0
E0
E0
E0
E0
E0
E0
E0
E0
E0
E0
E0
E0
E0
E0
E0
E0
E0
E0
E0
E0
E0
E0
E0
E0
E0
E0
FC
FC
FC
ENDCHAR
STARTCHAR backslash
ENCODING 92
SWIDTH 445 0
DWIDTH 17 0
BBX 17 28 0 0
BITMAP
F00000
700000
380000
380000
3C0000
1C0000
1E0000
0E0000
0F0000
070000
070000
038000
038000
01C000
01C000
01E000
00E000
00F000
007000
007800
003800
003C00
001C00
001C00
000E00
000E00
000F00
000780
ENDCHAR
STARTCHAR bracketright
ENCODING 93
SWIDTH 333 0
DWIDTH 13 0
BBX 7 35 2 -3
BITMAP
FE
FE
FE
0E
0E
0E
0E
0E
0E
0E
0E
0E
0E
0E
0E
0E
0E
0E
0E
0E
0E
0E
0E
0E
0E
0E
0E
0E
0E
0E
0E
0E
FE
FE
FE
ENDCHAR
STARTCHAR asciicircum
ENCODING 94
SWIDTH 559 0
DWIDTH 21 0
BBX 17 17 2 11
BITMAP
01C000
01E000
03E000
03E000
03F000
077000
077800
0E3800
0E3800
1E1C00
1C1C00
1C1E00
380E00
380E00
780700
700700
F00780
ENDCHAR
STARTCHAR underscore
ENCODING 95
SWIDTH 668 0
DWIDTH 25 0
BBX 26 2 0 -6
BITMAP
FFFFFFC0
FFFFFFC0
ENDCHAR
STARTCHAR grave
ENCODING 96
SWIDTH 362 0
DWIDTH 14 0
BBX 10 5 2 30
BITMAP
8000
F800
FF00
3FC0
03C0
ENDCHAR
STARTCHAR a
ENCODING 97
SWIDTH 989 0
DWIDTH 38 0
BBX 36 28 1 0
BITMAP
0000E00000
0001F00000
0001F80000
0003F80000
0003FC0000
0007FC0000
000FFE0000
000FBF0000
001F9F0000
001F1F8000
003E0F8000
007E0FC000
007C07E000
00FC03E000
00F803F000
01F001F000
03F001F800
03E1FFFC00
07E3FFFC00
07C3FFFE00
0FC7FFFE00
1F80003F00
1F00001F80
3F00000F80
3E00000FC0
7E000007E0
FC000007E0
F8000003F0
ENDCHAR
STARTCHAR b
ENCODING 98
SWIDTH 891 0
DWIDTH 34 0
BBX 30 28 2 0
BITMAP
FFFFFF00
FFFFFFE0
FFFFFFF0
FFFFFFF8
FFFFFFF8
F80001F8
F80000FC
F800007C
F8000078
F8000078
F80000F8
F80001F0
F87FFFE0
F87FFFC0
F87FFFF0
F87FFFF8
F80001F8
F800007C
F800007C
F800007C
F800007C
F80000FC
F80001FC
FFFFFFF8
FFFFFFF8
FFFFFFF0
FFFFFFE0
FFFFFF80
ENDCHAR
STARTCHAR c
ENCODING 99
SWIDTH 829 0
DWIDTH 32 0
BBX 28 28 2 0
BITMAP
007FFFF0
01FFFFF0
07FFFFF0
0FFFFFF0
1FFFFFF0
3FC00000
7F000000
7E000000
FC000000
F8000000
F8000000
F8000000
F8000000
F0000000
F0000000
F8000000
F8000000
F8000000
F8000000
7C000000
7E000000
3F000000
3FC00000
1FFFFFF0
0FFFFFF0
07FFFFF0
01FFFFF0
007FFFF0
ENDCHAR
STARTCHAR d
ENCODING 100
SWIDTH 879 0
DWIDTH 33 0
BBX 30 28 2 0
BITMAP
FFFFF000
FFFFFE00
FFFFFF80
FFFFFFC0
FFFFFFE0
F8000FE0
F80007F0
F80001F8
F80001F8
F80000F8
F80000FC
F800007C
F800007C
F800007C
F800007C
F800007C
F800007C
F80000F8
F80000F8
F80001F8
F80001F0
F80007F0
F8000FE0
FFFFFFC0
FFFFFF80
FFFFFF00
FFFFFE00
FFFFF000
ENDCHAR
STARTCHAR e
ENCODING 101
SWIDTH 759 0
DWIDTH 29 0
BBX 25 28 2 0
BITMAP
FFFFFF80
FFFFFF80
FFFFFF80
FFFFFF80
FFFFFF80
F8000000
F8000000
F8000000
F8000000
F8000000
F8000000
F8000000
F87FFF00
F87FFF00
F87FFF00
F87FFF00
F8000000
F8000000
F8000000
F8000000
F8000000
F8000000
F8000000
FFFFFF80
FFFFFF80
FFFFFF80
FFFFFF80
FFFFFF80
ENDCHAR
STARTCHAR f
ENCODING 102
SWIDTH 705 0
DWIDTH 27 0
BBX 24 28 2 0
BITMAP
FFFFFF
FFFFFF
FFFFFF
FFFFFF
FFFFFF
F80000
F80000
F80000
F80000
F80000
F80000
F80000
F87FFE
F87FFE
F87FFE
F87FFE
F87FFE
F80000
F80000
F80000
F80000
F80000
F80000
F80000
F80000
F80000
F80000
F80000
ENDCHAR
STARTCHAR g
ENCODING 103
SWIDTH 888 0
DWIDTH 34 0
BBX 30 28 2 0
BITMAP
007FFFF0
01FFFFF0
07FFFFF0
0FFFFFF0
1FFFFFF0
3FC00000
7F000000
7E000000
FC000000
F8000000
F8000000
F8000000
F80FFFFC
F00FFFFC
F00FFFFC
F80FFFFC
F800007C
F800007C
F800007C
7C00007C
7E00007C
3F00007C
3FC0007C
1FFFFFFC
0FFFFFFC
07FFFFFC
01FFFFFC
007FFFFC
ENDCHAR
STARTCHAR h
ENCODING 104
SWIDTH 838 0
DWIDTH 32 0
BBX 27 28 2 0
BITMAP
F80001E0
F80001E0
F80001E0
F80001E0
F80001E0
F80001E0
F80001E0
F80001E0
F80001E0
F80001E0
F80001E0
F87FFFE0
F87FFFE0
F87FFFE0
F87FFFE0
F87FFFE0
F80001E0
F80001E0
F80001E0
F80001E0
F80001E0
F80001E0
F80001E0
F80001E0
F80001E0
F80001E0
F80001E0
F80001E0
ENDCHAR
STARTCHAR i
ENCODING 105
SWIDTH 267 0
DWIDTH 10 0
BBX 4 28 3 0
BITMAP
F0
F0
F0
F0
F0
F0
F0
F0
F0
F0
F0
F0
F0
F0
F0
F0
F0
F0
F0
F0
F0
F0
F0
F0
F0
F0
F0
F0
ENDCHAR
STARTCHAR j
ENCODING 106
SWIDTH 708 0
DWIDTH 27 0
BBX 24 28 1 0
BITMAP
00001F
00001F
00001F
00001F
00001F
00001F
00001F
00001F
00001F
00001F
00001F
00001F
00001F
00001F
00001F
00001F
00001F
00001F
00001F
00003F
00003E
00007E
0001FC
FFFFFC
FFFFF8
FFFFF0
FFFFC0
FFFE00
ENDCHAR
STARTCHAR k
ENCODING 107
SWIDTH 875 0
DWIDTH 33 0
BBX 31 28 2 0
BITMAP
F80003FC
F80007F0
F8001FE0
F8003F80
F8007F00
F801FE00
F803F800
F807F000
F80FE000
F83F8000
F87F0000
F8FE0000
F9F80000
F9F00000
F9F80000
F9FC0000
F87F0000
F83F8000
F81FC000
F80FE000
F803F800
F801FC00
F800FE00
F8007F80
F8001FC0
F8000FE0
F80007F8
F80001FE
ENDCHAR
STARTCHAR l
ENCODING 108
SWIDTH 707 0
DWIDTH 27 0
BBX 24 28 2 0
BITMAP
F80000
F80000
F80000
F80000
F80000
F80000
F80000
F80000
F80000
F80000
F80000
F80000
F80000
F80000
F80000
F80000
F80000
F80000
F80000
F80000
F80000
F80000
F80000
FFFFFF
FFFFFF
FFFFFF
FFFFFF
FFFFFF
ENDCHAR
STARTCHAR m
ENCODING 109
SWIDTH 1115 0
DWIDTH 42 0
BBX 41 28 1 0
BITMAP
00E000038000
01F000078000
01F0000FC000
01F8000FC000
03F8000FC000
03FC001FC000
03FC001FE000
07FC003FE000
07FE003FE000
07FE007DF000
079F007DF000
0F9F0079F000
0F8F80F8F000
0F8F80F0F800
0F0781F0F800
1F07C1E0F800
1F07C3E07800
1F03E3E07C00
3E03E3C07C00
3E01F7C07C00
3E01F7803E00
3C00FF803E00
7C00FF003E00
7C007F001E00
7C007E001F00
78007E001F00
F8003E001F00
F8001C000F80
ENDCHAR
STARTCHAR n
ENCODING 110
SWIDTH 873 0
DWIDTH 33 0
BBX 29 28 2 0
BITMAP
700000F8
780000F8
FC0000F8
FE0000F8
FF0000F8
FF8000F8
FFC000F8
FFE000F8
FBF000F8
F9F800F8
F8FC00F8
F87E00F8
F83F00F8
F81F80F8
F80FC0F8
F807E0F8
F803F0F8
F801F8F8
F800FCF8
F8007EF8
F8003FF8
F8001FF8
F8000FF8
F80007F8
F80003F8
F80001F8
F80000F8
F8000070
ENDCHAR
STARTCHAR o
ENCODING 111
SWIDTH 968 0
DWIDTH 37 0
BBX 33 28 2 0
BITMAP
007FFF0000
01FFFFC000
07FFFFF000
0FFFFFF800
1FFFFFFC00
3FC001FE00
7F00007E00
7E00003F00
FC00001F00
F800001F80
F800000F80
F800000F80
F800000F80
F000000F80
F000000F80
F800000F80
F800000F80
F800000F80
F800001F80
7C00001F00
7E00003F00
3F00007E00
3FC001FE00
1FFFFFFC00
0FFFFFF800
07FFFFF000
01FFFFC000
007FFE0000
ENDCHAR
STARTCHAR p
ENCODING 112
SWIDTH 867 0
DWIDTH 33 0
BBX 30 28 2 0
BITMAP
FFFFFE00
FFFFFFC0
FFFFFFE0
FFFFFFF0
FFFFFFF8
F80001F8
F80000F8
F800007C
F800007C
F800007C
F800007C
F800007C
F800007C
F80000F8
F80001F8
F87FFFF8
F87FFFF0
F87FFFE0
F87FFFC0
F87FFE00
F8000000
F8000000
F8000000
F8000000
F8000000
F8000000
F8000000
F8000000
ENDCHAR
STARTCHAR q
ENCODING 113
SWIDTH 968 0
DWIDTH 37 0
BBX 35 28 2 0
BITMAP
007FFF0000
01FFFFC000
07FFFFF000
0FFFFFF800
1FFFFFFC00
3FC001FE00
7F00007E00
7E00003F00
FC00001F00
F800001F80
F800000F80
F800000F80
F800000F80
F000000F80
F000000F80
F800000F80
F803F80F80
F801FC0F80
F8007E1F80
7C003F1F00
7E001FBF00
3F000FFE00
3FC003FE00
1FFFFFFC00
0FFFFFFC00
07FFFFFE00
01FFFFFF80
007FFE0FE0
ENDCHAR
STARTCHAR r
ENCODING 114
SWIDTH 921 0
DWIDTH 35 0
BBX 33 28 2 0
BITMAP
FFFFFF0000
FFFFFFC000
FFFFFFE000
FFFFFFF000
FFFFFFF800
F80001F800
F80000FC00
F800007C00
F800007C00
F800007C00
F800007C00
F800007C00
F800007C00
F800007C00
F80000FC00
F80001F800
F87FFFF800
F87FFFF000
F87FFFE000
F87FFFC000
F87FFF8000
F8000FC000
F80007E000
F80003F000
F80001F800
F80000FC00
F800007E00
F800003F80
ENDCHAR
STARTCHAR s
ENCODING 115
SWIDTH 880 0
DWIDTH 33 0
BBX 30 28 2 0
BITMAP
07FFFFF0
1FFFFFF0
3FFFFFF0
7FFFFFF0
7FFFFFF0
FC000000
F8000000
F8000000
F8000000
F8000000
F8000000
7C000000
7FFFFF80
3FFFFFE0
1FFFFFF0
07FFFFF8
000001F8
00000078
0000007C
0000007C
0000007C
0000007C
000000F8
FFFFFFF8
FFFFFFF8
FFFFFFF0
FFFFFFE0
FFFFFF80
ENDCHAR
STARTCHAR t
ENCODING 116
SWIDTH 720 0
DWIDTH 27 0
BBX 26 28 1 0
BITMAP
FFFFFFC0
FFFFFFC0
FFFFFFC0
FFFFFFC0
FFFFFFC0
003E0000
003E0000
003E0000
003E0000
003E0000
003E0000
003E0000
003E0000
003E0000
003E0000
003E0000
003E0000
003E0000
003E0000
003E0000
003E0000
003E0000
003E0000
003E0000
003E0000
003E0000
003E0000
003E0000
ENDCHAR
STARTCHAR u
ENCODING 117
SWIDTH 889 0
DWIDTH 34 0
BBX 30 28 2 0
BITMAP
F800007C
F800007C
F800007C
F800007C
F800007C
F800007C
F800007C
F800007C
F800007C
F800007C
F800007C
F800007C
F800007C
F800007C
F800007C
F800007C
F800007C
F800007C
F800007C
FC0000F8
7C0000F8
7E0001F8
7FC00FF0
3FFFFFF0
1FFFFFE0
0FFFFFC0
03FFFF00
007FF800
ENDCHAR
STARTCHAR v
ENCODING 118
SWIDTH 989 0
DWIDTH 38 0
BBX 36 28 1 0
BITMAP
FC000003F0
FC000003E0
7E000007E0
3E00000FC0
3F00000F80
1F80001F80
1F80001F00
0FC0003F00
07C0007E00
07E0007C00
03F000FC00
03F000F800
01F801F800
00F801F000
00FC03E000
007E07E000
007E07C000
003F0F8000
001F0F8000
001F9F0000
000FFF0000
000FFE0000
0007FC0000
0003FC0000
0003F80000
0001F80000
0001F00000
0000E00000
ENDCHAR
STARTCHAR w
ENCODING 119
SWIDTH 1268 0
DWIDTH 48 0
BBX 47 28 1 0
BITMAP
FC07F000007E
FC03F00000FC
7E01F80000F8
7E01F80001F8
3F00FC0001F0
3F00FC0003F0
1F807E0003E0
0F807E0007E0
0FC03F0007C0
07C03F000FC0
07E01F800F80
03E01F801F00
03F00FC01F00
01F007C03E00
01F80FE03E00
00F80FE07C00
00FC1FF0FC00
007E1FF0F800
007E3FF9F800
003F7EF9F000
001F7CFFF000
001FF87FE000
000FF87FC000
000FF03FC000
0007F03F8000
0007E01F8000
0003E01F0000
0001C00E0000
ENDCHAR
STARTCHAR x
ENCODING 120
SWIDTH 1000 0
DWIDTH 38 0
BBX 36 28 1 0
BITMAP
7F00000FE0
3F80001F80
1FC0003F00
0FE0007E00
07F000FC00
01F801F800
00FC03F000
007E07E000
003F0FC000
001F9F8000
000FFF0000
0007FE0000
0003FC0000
0001F80000
0003FC0000
0007FE0000
000FFF0000
001FBF8000
003F0FC000
00FE07E000
01FC03F000
03F801F800
07F000FC00
0FE0007E00
1FC0003F00
3F80001F80
7F00000FC0
FE000007F0
ENDCHAR
STARTCHAR y
ENCODING 121
SWIDTH 926 0
DWIDTH 35 0
BBX 35 28 0 0
BITMAP
FE00000FE0
3F00001F80
1F80003F80
1FC0003F00
0FE0007E00
07F000FC00
03F001F800
01F803F000
00FC07F000
007E07E000
007F0FC000
003F9F8000
001FBF0000
000FFE0000
0007FC0000
0003FC0000
0003F80000
0001F00000
0001F00000
0001F00000
0001F00000
0001F00000
0001F00000
0001F00000
0001F00000
0001F00000
0001F00000
0001F00000
ENDCHAR
STARTCHAR z
ENCODING 122
SWIDTH 802 0
DWIDTH 30 0
BBX 27 28 2 0
BITMAP
FFFFFFC0
FFFFFFE0
FFFFFFE0
FFFFFFE0
FFFFFFC0
00003F80
00007F00
0000FE00
0001FC00
0003F800
0007F000
000FE000
001FC000
003F8000
007F0000
00FE0000
01FC0000
03F80000
07F00000
0FE00000
1FC00000
3F800000
7F000000
FFFFFFE0
FFFFFFE0
FFFFFFE0
FFFFFFE0
7FFFFFE0
ENDCHAR
STARTCHAR braceleft
ENCODING 123
SWIDTH 337 0
DWIDTH 13 0
BBX 8 35 2 -3
BITMAP
0F
1F
1F
3C
3C
38
38
38
38
38
38
38
38
38
38
38
F8
F0
F8
38
38
38
38
38
38
38
38
38
38
38
3C
3C
1F
1F
0F
ENDCHAR
STARTCHAR bar
ENCODING 124
SWIDTH 297 0
DWIDTH 11 0
BBX 3 35 4 -3
BITMAP
E0
E0
E0
E0
E0
E0
E0
E0
E0
E0
E0
E0
E0
E0
E0
E0
E0
E0
E0
E0
E0
E0
E0
E0
E0
E0
E0
E0
E0
E0
E0
E0
E0
E0
E0
ENDCHAR
STARTCHAR braceright
ENCODING 125
SWIDTH 337 0
DWIDTH 13 0
BBX 8 35 2 -3
BITMAP
F0
FC
FC
1C
1C
1C
1C
1C
1C
1C
1C
1C
1C
1C
1C
1E
0F
07
0F
1E
1C
1C
1C
1C
1C
1C
1C
1C
1C
1C
1C
1C
FC
FC
F0
ENDCHAR
STARTCHAR asciitilde
ENCODING 126
SWIDTH 691 0
DWIDTH 26 0
BBX 22 6 2 11
BITMAP
1F8004
7FE004
FFFC1C
E07FFC
C01FF8
8003E0
ENDCHAR
STARTCHAR nonbreakingspace
ENCODING 160
SWIDTH 294 0
DWIDTH 11 0
BBX 1 1 0 0
BITMAP
00
ENDCHAR
STARTCHAR exclamdown
ENCODING 161
SWIDTH 298 0
DWIDTH 11 0
BBX 5 28 3 0
BITMAP
70
F8
F8
F8
70
00
00
00
00
78
78
78
78
78
78
78
78
78
78
78
78
78
78
78
78
78
78
78
ENDCHAR
STARTCHAR cent
ENCODING 162
SWIDTH 692 0
DWIDTH 26 0
BBX 22 28 2 0
BITMAP
000600
000600
000600
01FFFC
07FFFC
1FFFFC
3FFFFC
7F0600
7C0600
F80600
F00600
F00600
F00600
E00600
E00600
F00600
F00600
F00600
F80600
7C0600
3F0600
3FFFFC
1FFFFC
07FFFC
01FFFC
000600
000600
000600
ENDCHAR
STARTCHAR sterling
ENCODING 163
SWIDTH 709 0
DWIDTH 27 0
BBX 24 28 1 0
BITMAP
007FF0
01FFF0
07FFF0
07FFF0
0FFFF0
0FC000
0F8000
0F0000
1F0000
1F0000
1F0000
1F0000
3FFF00
3FFF00
3FFF00
3FFF00
1F0000
1F0000
1F0000
1F0000
1F0000
1F0000
1F0000
FFFFFF
FFFFFF
FFFFFF
FFFFFF
FFFFFF
ENDCHAR
STARTCHAR yen
ENCODING 165
SWIDTH 787 0
DWIDTH 30 0
BBX 28 28 1 0
BITMAP
FC0003F0
7C0007E0
7E0007C0
3F000FC0
1F001F80
1F801F00
0FC03F00
07C03E00
07E07C00
03F0FC00
01F0F800
01F9F000
00F9F000
007FE000
007FC000
0FFFFF00
0FFFFF00
0FFFFF00
000F0000
000F0000
000F0000
000F0000
0FFFFF00
0FFFFF00
0FFFFF00
000F0000
000F0000
000F0000
ENDCHAR
STARTCHAR brokenbar
ENCODING 166
SWIDTH 297 0
DWIDTH 11 0
BBX 3 35 4 -3
BITMAP
E0
E0
E0
E0
E0
E0
E0
E0
E0
E0
E0
E0
E0
E0
E0
E0
00
00
00
00
E0
E0
E0
E0
E0
E0
E0
E0
E0
E0
E0
E0
E0
E0
E0
ENDCHAR
STARTCHAR section
ENCODING 167
SWIDTH 773 0
DWIDTH 29 0
BBX 25 36 2 -8
BITMAP
07FFFC00
1FFFFC00
3FFFFC00
7FFFFC00
FFFFFC00
FC000000
F8000000
F0000000
F0000000
F8000000
FC000000
7FFFF000
3FFFFC00
1FFFFE00
3FFFFE00
3E003F00
7C001F00
78000F00
78000F00
7C001E00
7E003E00
3FFFFC00
3FFFFC00
1FFFFE00
07FFFF00
00001F80
00000F80
00000F80
00000F80
00000F80
00001F80
1FFFFF80
1FFFFF00
1FFFFE00
1FFFFC00
1FFFF000
ENDCHAR
STARTCHAR dieresis
ENCODING 168
SWIDTH 393 0
DWIDTH 15 0
BBX 11 3 2 31
BITMAP
E1C0
F1E0
E1C0
ENDCHAR
STARTCHAR copyright
ENCODING 169
SWIDTH 829 0
DWIDTH 32 0
BBX 28 28 2 0
BITMAP
003FC000
01E07000
03000C00
0C000600
18000300
30000180
200000C0
601FC040
407FC060
C0E00020
81C00020
81800030
81800010
81800010
81800010
81800010
81C00030
80E00020
C07FC020
401FC060
60000040
200000C0
10000180
18000300
0C000600
03000C00
01E07000
003F8000
ENDCHAR
STARTCHAR ordfeminine
ENCODING 170
SWIDTH 604 0
DWIDTH 23 0
BBX 21 16 1 11
BITMAP
002000
007000
00F000
00F800
01FC00
01DC00
038E00
070E00
070700
0E0380
0E7F80
1CFFC0
1C01C0
3800E0
7000F0
F00078
ENDCHAR
STARTCHAR guillemotleft
ENCODING 171
SWIDTH 629 0
DWIDTH 24 0
BBX 20 14 2 7
BITMAP
004010
01C070
0781E0
0F03C0
3C0F00
703C00
E03800
E03800
381E00
1E0780
0781C0
03C0F0
00C030
002010
ENDCHAR
STARTCHAR registered
ENCODING 174
SWIDTH 585 0
DWIDTH 22 0
BBX 18 17 2 11
BITMAP
03F000
0E1C00
180600
300300
600180
47F080
4418C0
C408C0
C408C0
C4F0C0
4430C0
441C80
600180
300100
180200
0C0C00
03F800
ENDCHAR
STARTCHAR macron
ENCODING 175
SWIDTH 362 0
DWIDTH 14 0
BBX 10 2 2 31
BITMAP
FFC0
FFC0
ENDCHAR
STARTCHAR degree
ENCODING 176
SWIDTH 361 0
DWIDTH 14 0
BBX 10 10 2 18
BITMAP
3F00
7F80
E1C0
C0C0
C0C0
C0C0
C0C0
E1C0
7F80
3F00
ENDCHAR
STARTCHAR plusminus
ENCODING 177
SWIDTH 690 0
DWIDTH 26 0
BBX 22 26 2 -1
BITMAP
003800
003800
003800
003800
003800
003800
003800
003800
003800
003800
FFFFFC
FFFFFC
FFFFFC
003800
003800
003800
003800
003800
003800
003800
003800
003800
000000
FFFFFC
FFFFFC
FFFFFC
ENDCHAR
STARTCHAR twosuperior
ENCODING 178
SWIDTH 442 0
DWIDTH 17 0
BBX 13 14 2 15
BITMAP
FFE0
FFF0
0038
0018
0018
0038
7FF0
FFE0
E000
C000
C000
C000
FFF8
FFF8
ENDCHAR
STARTCHAR threesuperior
ENCODING 179
SWIDTH 443 0
DWIDTH 17 0
BBX 14 14 1 15
BITMAP
FFF0
FFF8
001C
000C
000C
001C
0FF8
0FF8
001C
000C
000C
001C
FFF8
FFF0
ENDCHAR
STARTCHAR acute
ENCODING 180
SWIDTH 362 0
DWIDTH 14 0
BBX 10 5 2 30
BITMAP
00C0
07C0
3FC0
FF00
F000
ENDCHAR
STARTCHAR paragraph
ENCODING 182
SWIDTH 629 0
DWIDTH 24 0
BBX 20 32 2 -4
BITMAP
1FFFF0
3FFFF0
7FFFF0
FFF0F0
FFF0F0
FFF0F0
FFF0F0
FFF0F0
FFF0F0
FFF0F0
7FF0F0
3FF0F0
07F0F0
0070F0
0070F0
0070F0
0070F0
0070F0
0070F0
0070F0
0070F0
0070F0
0070F0
0070F0
0070F0
0070F0
0070F0
0070F0
0070F0
0070F0
0070F0
0070F0
ENDCHAR
STARTCHAR periodcentered
ENCODING 183
SWIDTH 262 0
DWIDTH 10 0
BBX 6 5 2 11
BITMAP
30
78
FC
78
78
ENDCHAR
STARTCHAR cedilla
ENCODING 184
SWIDTH 219 0
DWIDTH 8 0
BBX 5 6 2 -8
BITMAP
F8
F0
70
60
20
20
ENDCHAR
STARTCHAR onesuperior
ENCODING 185
SWIDTH 222 0
DWIDTH 8 0
BBX 6 14 1 15
BITMAP
F0
F8
38
1C
1C
1C
1C
1C
1C
1C
1C
1C
1C
1C
ENDCHAR
STARTCHAR ordmasculine
ENCODING 186
SWIDTH 592 0
DWIDTH 23 0
BBX 19 16 2 12
BITMAP
07F800
1FFE00
3FFF80
780780
7001C0
E001C0
E000C0
E000E0
E000E0
E000C0
E001C0
7001C0
780780
3FFF80
1FFF00
07FC00
ENDCHAR
STARTCHAR guillemotright
ENCODING 187
SWIDTH 629 0
DWIDTH 24 0
BBX 20 14 2 7
BITMAP
802000
E03800
783C00
3C0F00
0F03C0
03C0E0
01C070
01C070
0701C0
1E0780
781E00
F03800
C03000
804000
ENDCHAR
STARTCHAR onequarter
ENCODING 188
SWIDTH 972 0
DWIDTH 37 0
BBX 33 33 2 -3
BITMAP
0000007000
1C0000E000
1F0001C000
0700038000
0300078000
0300070000
03000E0000
03001C0000
03003C0000
0300380000
0300700000
0300E00000
0301E00000
0301C00000
0303800000
0007000000
000F180600
001E180600
001C180600
0038180600
0070180600
00F0180600
00E0180600
01C01C0600
03801FFF80
07800FFF80
0700000600
0E00000600
1C00000600
3C00000600
3800000000
7000000000
E000000000
ENDCHAR
STARTCHAR onehalf
ENCODING 189
SWIDTH 948 0
DWIDTH 36 0
BBX 32 33 2 -3
BITMAP
00000070
1C0000E0
1F0001C0
07000380
03000780
03000700
03000E00
03001C00
03003C00
03003800
03007000
0300E000
0301E000
0301C000
03038000
00070000
000F1FFE
001E1FFF
001C0007
00380003
00700003
00F00007
00E007FF
01C00FFC
03801C00
07801800
07001800
0E001800
1C001FFF
3C001FFF
38000000
70000000
E0000000
ENDCHAR
STARTCHAR threequarters
ENCODING 190
SWIDTH 1029 0
DWIDTH 39 0
BBX 36 33 2 -3
BITMAP
0000001C00
FFE0003800
FFF8007000
003800F000
001800E000
001801C000
0038038000
1FF0078000
1FF8070000
00180E0000
001C1C0000
00183C0000
0038380000
FFF8700000
FFE0E00000
0001C00000
0003C601C0
00038601C0
00070601C0
000E0601C0
001E0601C0
001C0601C0
00380601C0
00700701C0
00F007FFF0
00E001FFF0
01C00001C0
03800001C0
07800001C0
0F000001C0
0E00000000
1C00000000
3800000000
ENDCHAR
STARTCHAR questiondown
ENCODING 191
SWIDTH 776 0
DWIDTH 29 0
BBX 27 28 1 0
BITMAP
00000E00
00001F00
00001F00
00001F00
00000E00
00000000
00000000
00000000
00000000
00000F00
00000F00
00000F00
00001F00
07FFFF00
1FFFFE00
3FFFFE00
7FFFF800
7C000000
F8000000
F8000000
F8000000
F8000000
FC000000
7FFFFFE0
7FFFFFE0
3FFFFFE0
1FFFFFE0
07FFFFE0
ENDCHAR
STARTCHAR Agrave
ENCODING 192
SWIDTH 989 0
DWIDTH 38 0
BBX 36 35 1 0
BITMAP
0008000000
000F000000
000FF00000
0007F80000
0000380000
0000000000
0000000000
0000E00000
0001F00000
0001F80000
0003F80000
0003FC0000
0007FC0000
000FFE0000
000FBF0000
001F9F0000
001F1F8000
003E0F8000
007E0FC000
007C07E000
00FC03E000
00F803F000
01F001F000
03F001F800
03E1FFFC00
07E3FFFC00
07C3FFFE00
0FC7FFFE00
1F80003F00
1F00001F80
3F00000F80
3E00000FC0
7E000007E0
FC000007E0
F8000003F0
ENDCHAR
STARTCHAR Aacute
ENCODING 193
SWIDTH 989 0
DWIDTH 38 0
BBX 36 35 1 0
BITMAP
0000010000
00001F0000
0000FF0000
0003FC0000
0003C00000
0000000000
0000000000
0000E00000
0001F00000
0001F80000
0003F80000
0003FC0000
0007FC0000
000FFE0000
000FBF0000
001F9F0000
001F1F8000
003E0F8000
007E0FC000
007C07E000
00FC03E000
00F803F000
01F001F000
03F001F800
03E1FFFC00
07E3FFFC00
07C3FFFE00
0FC7FFFE00
1F80003F00
1F00001F80
3F00000F80
3E00000FC0
7E000007E0
FC000007E0
F8000003F0
ENDCHAR
STARTCHAR Acircumflex
ENCODING 194
SWIDTH 989 0
DWIDTH 38 0
BBX 36 35 1 0
BITMAP
0000F00000
0001B80000
0003980000
00070C0000
00060E0000
0000000000
0000000000
0000E00000
0001F00000
0001F80000
0003F80000
0003FC0000
0007FC0000
000FFE0000
000FBF0000
001F9F0000
001F1F8000
003E0F8000
007E0FC000
007C07E000
00FC03E000
00F803F000
01F001F000
03F001F800
03E1FFFC00
07E3FFFC00
07C3FFFE00
0FC7FFFE00
1F80003F00
1F00001F80
3F00000F80
3E00000FC0
7E000007E0
FC000007E0
F8000003F0
ENDCHAR
STARTCHAR Atilde
ENCODING 195
SWIDTH 989 0
DWIDTH 38 0
BBX 36 35 1 0
BITMAP
0003820000
0007E60000
00047E0000
00083C0000
0000000000
0000000000
0000000000
0000E00000
0001F00000
0001F80000
0003F80000
0003FC0000
0007FC0000
000FFE0000
000FBF0000
001F9F0000
001F1F8000
003E0F8000
007E0FC000
007C07E000
00FC03E000
00F803F000
01F001F000
03F001F800
03E1FFFC00
07E3FFFC00
07C3FFFE00
0FC7FFFE00
1F80003F00
1F00001F80
3F00000F80
3E00000FC0
7E000007E0
FC000007E0
F8000003F0
ENDCHAR
STARTCHAR Adieresis
ENCODING 196
SWIDTH 989 0
DWIDTH 38 0
BBX 36 34 1 0
BITMAP
00070E0000
000F1E0000
00070E0000
0000000000
0000000000
0000000000
0000E00000
0001F00000
0001F80000
0003F80000
0003FC0000
0007FC0000
000FFE0000
000FBF0000
001F9F0000
001F1F8000
003E0F8000
007E0FC000
007C07E000
00FC03E000
00F803F000
01F001F000
03F001F800
03E1FFFC00
07E3FFFC00
07C3FFFE00
0FC7FFFE00
1F80003F00
1F00001F80
3F00000F80
3E00000FC0
7E000007E0
FC000007E0
F8000003F0
ENDCHAR
STARTCHAR Aring
ENCODING 197
SWIDTH 989 0
DWIDTH 38 0
BBX 36 38 1 0
BITMAP
0001F80000
00030C0000
0006040000
0004060000
0004060000
0006040000
00020C0000
0001F80000
0000000000
0000000000
0000E00000
0001F00000
0001F80000
0003F80000
0003FC0000
0007FC0000
000FFE0000
000FBF0000
001F9F0000
001F1F8000
003E0F8000
007E0FC000
007C07E000
00FC03E000
00F803F000
01F001F000
03F001F800
03E1FFFC00
07E3FFFC00
07C3FFFE00
0FC7FFFE00
1F80003F00
1F00001F80
3F00000F80
3E00000FC0
7E000007E0
FC000007E0
F8000003F0
ENDCHAR
STARTCHAR AE
ENCODING 198
SWIDTH 1345 0
DWIDTH 51 0
BBX 48 28 1 0
BITMAP
0000FFFFFFFF
0001FFFFFFFF
0003FFFFFFFF
0003FFFFFFFF
0007FFFFFFFF
000FC07C0000
000F807C0000
001F807C0000
001F007C0000
003E007C0000
003E007C0000
007C007C0000
00FC007C3FFE
00F8007C3FFE
01F8007C3FFE
01F0007C3FFE
03E0007C0000
03E1FFFC0000
07C3FFFC0000
0FC3FFFC0000
0F87FFFC0000
1F80007C0000
1F00007C0000
3F00007FFFFF
3E00007FFFFF
7C00007FFFFF
FC00007FFFFF
F800007FFFFF
ENDCHAR
STARTCHAR Ccedilla
ENCODING 199
SWIDTH 829 0
DWIDTH 32 0
BBX 28 36 2 -8
BITMAP
007FFFF0
01FFFFF0
07FFFFF0
0FFFFFF0
1FFFFFF0
3FC00000
7F000000
7E000000
FC000000
F8000000
F8000000
F8000000
F8000000
F0000000
F0000000
F8000000
F8000000
F8000000
F8000000
7C000000
7E000000
3F000000
3FC00000
1FFFFFF0
0FFFFFF0
07FFFFF0
01FFFFF0
007FFFF0
00000000
00000000
000F8000
00070000
00070000
00070000
00020000
00020000
ENDCHAR
STARTCHAR Egrave
ENCODING 200
SWIDTH 759 0
DWIDTH 29 0
BBX 25 35 2 0
BITMAP
03000000
03E00000
03FC0000
00FF0000
00070000
00000000
00000000
FFFFFF80
FFFFFF80
FFFFFF80
FFFFFF80
FFFFFF80
F8000000
F8000000
F8000000
F8000000
F8000000
F8000000
F8000000
F87FFF00
F87FFF00
F87FFF00
F87FFF00
F8000000
F8000000
F8000000
F8000000
F8000000
F8000000
F8000000
FFFFFF80
FFFFFF80
FFFFFF80
FFFFFF80
FFFFFF80
ENDCHAR
STARTCHAR Eacute
ENCODING 201
SWIDTH 759 0
DWIDTH 29 0
BBX 25 35 2 0
BITMAP
00004000
0003C000
001FC000
007F8000
00700000
00000000
00000000
FFFFFF80
FFFFFF80
FFFFFF80
FFFFFF80
FFFFFF80
F8000000
F8000000
F8000000
F8000000
F8000000
F8000000
F8000000
F87FFF00
F87FFF00
F87FFF00
F87FFF00
F8000000
F8000000
F8000000
F8000000
F8000000
F8000000
F8000000
FFFFFF80
FFFFFF80
FFFFFF80
FFFFFF80
FFFFFF80
ENDCHAR
STARTCHAR Ecircumflex
ENCODING 202
SWIDTH 759 0
DWIDTH 29 0
BBX 25 35 2 0
BITMAP
003E0000
00360000
00670000
00E38000
01C1C000
00000000
00000000
FFFFFF80
FFFFFF80
FFFFFF80
FFFFFF80
FFFFFF80
F8000000
F8000000
F8000000
F8000000
F8000000
F8000000
F8000000
F87FFF00
F87FFF00
F87FFF00
F87FFF00
F8000000
F8000000
F8000000
F8000000
F8000000
F8000000
F8000000
FFFFFF80
FFFFFF80
FFFFFF80
FFFFFF80
FFFFFF80
ENDCHAR
STARTCHAR Edieresis
ENCODING 203
SWIDTH 759 0
DWIDTH 29 0
BBX 25 34 2 0
BITMAP
01C38000
01E3C000
01C38000
00000000
00000000
00000000
FFFFFF80
FFFFFF80
FFFFFF80
FFFFFF80
FFFFFF80
F8000000
F8000000
F8000000
F8000000
F8000000
F8000000
F8000000
F87FFF00
F87FFF00
F87FFF00
F87FFF00
F8000000
F8000000
F8000000
F8000000
F8000000
F8000000
F8000000
FFFFFF80
FFFFFF80
FFFFFF80
FFFFFF80
FFFFFF80
ENDCHAR
STARTCHAR Igrave
ENCODING 204
SWIDTH 267 0
DWIDTH 10 0
BBX 10 35 -1 0
BITMAP
8000
F800
FF00
3FC0
03C0
0000
0000
0F00
0F00
0F00
0F00
0F00
0F00
0F00
0F00
0F00
0F00
0F00
0F00
0F00
0F00
0F00
0F00
0F00
0F00
0F00
0F00
0F00
0F00
0F00
0F00
0F00
0F00
0F00
0F00
ENDCHAR
STARTCHAR Iacute
ENCODING 205
SWIDTH 267 0
DWIDTH 10 0
BBX 10 35 1 0
BITMAP
0040
03C0
3FC0
FF80
F000
0000
0000
3C00
3C00
3C00
3C00
3C00
3C00
3C00
3C00
3C00
3C00
3C00
3C00
3C00
3C00
3C00
3C00
3C00
3C00
3C00
3C00
3C00
3C00
3C00
3C00
3C00
3C00
3C00
3C00
ENDCHAR
STARTCHAR Icircumflex
ENCODING 206
SWIDTH 267 0
DWIDTH 10 0
BBX 10 35 0 0
BITMAP
1E00
3F00
3380
6180
E0C0
0000
0000
1E00
1E00
1E00
1E00
1E00
1E00
1E00
1E00
1E00
1E00
1E00
1E00
1E00
1E00
1E00
1E00
1E00
1E00
1E00
1E00
1E00
1E00
1E00
1E00
1E00
1E00
1E00
1E00
ENDCHAR
STARTCHAR Idieresis
ENCODING 207
SWIDTH 267 0
DWIDTH 10 0
BBX 11 34 0 0
BITMAP
E1C0
F1E0
E1C0
0000
0000
0000
1E00
1E00
1E00
1E00
1E00
1E00
1E00
1E00
1E00
1E00
1E00
1E00
1E00
1E00
1E00
1E00
1E00
1E00
1E00
1E00
1E00
1E00
1E00
1E00
1E00
1E00
1E00
1E00
ENDCHAR
STARTCHAR Eth
ENCODING 208
SWIDTH 877 0
DWIDTH 33 0
BBX 32 28 0 0
BITMAP
3FFFFC00
3FFFFF80
3FFFFFC0
3FFFFFF0
3FFFFFF8
3E0003F8
3E0001FC
3E00007E
3E00007E
3E00003E
3E00003E
3E00001F
FFFFC01F
FFFFC01F
FFFFC01F
FFFFC01F
3E00001F
3E00003E
3E00003E
3E00007E
3E0000FC
3E0001FC
3E0003F8
3FFFFFF0
3FFFFFE0
3FFFFFC0
3FFFFF80
3FFFFC00
ENDCHAR
STARTCHAR Ntilde
ENCODING 209
SWIDTH 873 0
DWIDTH 33 0
BBX 29 35 2 0
BITMAP
001C1000
003E2000
0023E000
0041E000
00000000
00000000
00000000
700000F8
780000F8
FC0000F8
FE0000F8
FF0000F8
FF8000F8
FFC000F8
FFE000F8
FBF000F8
F9F800F8
F8FC00F8
F87E00F8
F83F00F8
F81F80F8
F80FC0F8
F807E0F8
F803F0F8
F801F8F8
F800FCF8
F8007EF8
F8003FF8
F8001FF8
F8000FF8
F80007F8
F80003F8
F80001F8
F80000F8
F8000070
ENDCHAR
STARTCHAR Ograve
ENCODING 210
SWIDTH 968 0
DWIDTH 37 0
BBX 33 35 2 0
BITMAP
0030000000
003E000000
003FC00000
000FF00000
0000F00000
0000000000
0000000000
007FFF0000
01FFFFC000
07FFFFF000
0FFFFFF800
1FFFFFFC00
3FC001FE00
7F00007E00
7E00003F00
FC00001F00
F800001F80
F800000F80
F800000F80
F800000F80
F000000F80
F000000F80
F800000F80
F800000F80
F800000F80
F800001F80
7C00001F00
7E00003F00
3F00007E00
3FC001FE00
1FFFFFFC00
0FFFFFF800
07FFFFF000
01FFFFC000
007FFE0000
ENDCHAR
STARTCHAR Oacute
ENCODING 211
SWIDTH 968 0
DWIDTH 37 0
BBX 33 35 2 0
BITMAP
0000040000
00003C0000
0001FC0000
0007F80000
0007000000
0000000000
0000000000
007FFF0000
01FFFFC000
07FFFFF000
0FFFFFF800
1FFFFFFC00
3FC001FE00
7F00007E00
7E00003F00
FC00001F00
F800001F80
F800000F80
F800000F80
F800000F80
F000000F80
F000000F80
F800000F80
F800000F80
F800000F80
F800001F80
7C00001F00
7E00003F00
3F00007E00
3FC001FE00
1FFFFFFC00
0FFFFFF800
07FFFFF000
01FFFFC000
007FFE0000
ENDCHAR
STARTCHAR Ocircumflex
ENCODING 212
SWIDTH 968 0
DWIDTH 37 0
BBX 33 35 2 0
BITMAP
0003C00000
0003600000
0006700000
000E380000
001C1C0000
0000000000
0000000000
007FFF0000
01FFFFC000
07FFFFF000
0FFFFFF800
1FFFFFFC00
3FC001FE00
7F00007E00
7E00003F00
FC00001F00
F800001F80
F800000F80
F800000F80
F800000F80
F000000F80
F000000F80
F800000F80
F800000F80
F800000F80
F800001F80
7C00001F00
7E00003F00
3F00007E00
3FC001FE00
1FFFFFFC00
0FFFFFF800
07FFFFF000
01FFFFC000
007FFE0000
ENDCHAR
STARTCHAR Otilde
ENCODING 213
SWIDTH 968 0
DWIDTH 37 0
BBX 33 35 2 0
BITMAP
000F040000
000F880000
0009F80000
0010700000
0000000000
0000000000
0000000000
007FFF0000
01FFFFC000
07FFFFF000
0FFFFFF800
1FFFFFFC00
3FC001FE00
7F00007E00
7E00003F00
FC00001F00
F800001F80
F800000F80
F800000F80
F800000F80
F000000F80
F000000F80
F800000F80
F800000F80
F800000F80
F800001F80
7C00001F00
7E00003F00
3F00007E00
3FC001FE00
1FFFFFFC00
0FFFFFF800
07FFFFF000
01FFFFC000
007FFE0000
ENDCHAR
STARTCHAR Odieresis
ENCODING 214
SWIDTH 968 0
DWIDTH 37 0
BBX 33 34 2 0
BITMAP
001C380000
001E3C0000
001C380000
0000000000
0000000000
0000000000
007FFF0000
01FFFFC000
07FFFFF000
0FFFFFF800
1FFFFFFC00
3FC001FE00
7F00007E00
7E00003F00
FC00001F00
F800001F80
F800000F80
F800000F80
F800000F80
F000000F80
F000000F80
F800000F80
F800000F80
F800000F80
F800001F80
7C00001F00
7E00003F00
3F00007E00
3FC001FE00
1FFFFFFC00
0FFFFFF800
07FFFFF000
01FFFFC000
007FFE0000
ENDCHAR
STARTCHAR multiply
ENCODING 215
SWIDTH 690 0
DWIDTH 26 0
BBX 18 18 4 5
BITMAP
200100
700380
F807C0
3C0F80
1E1F00
0F3E00
07FC00
03F800
01F000
03F000
07F800
0FFC00
1F3E00
3E1F00
7C0F80
F807C0
300380
200100
ENDCHAR
STARTCHAR Oslash
ENCODING 216
SWIDTH 968 0
DWIDTH 37 0
BBX 33 32 2 -2
BITMAP
0000000800
0000000C00
007FFF1800
01FFFFF000
07FFFFF000
0FFFFFF800
1FFFFFFC00
3FC001FE00
7F00037E00
7E00063F00
FC000E1F00
F8001C1F80
F800380F80
F800300F80
F800600F80
F000C00F80
F001C00F80
F803800F80
F807000F80
F80E000F80
F80C001F80
7C18001F00
7E38003F00
3F70007E00
3FE001FE00
1FFFFFFC00
0FFFFFF800
07FFFFF000
07FFFFC000
0E7FFE0000
1C00000000
0800000000
ENDCHAR
STARTCHAR Ugrave
ENCODING 217
SWIDTH 889 0
DWIDTH 34 0
BBX 30 35 2 0
BITMAP
00400000
00780000
007F8000
003FE000
0001E000
00000000
00000000
F800007C
F800007C
F800007C
F800007C
F800007C
F800007C
F800007C
F800007C
F800007C
F800007C
F800007C
F800007C
F800007C
F800007C
F800007C
F800007C
F800007C
F800007C
F800007C
FC0000F8
7C0000F8
7E0001F8
7FC00FF0
3FFFFFF0
1FFFFFE0
0FFFFFC0
03FFFF00
007FF800
ENDCHAR
STARTCHAR Uacute
ENCODING 218
SWIDTH 889 0
DWIDTH 34 0
BBX 30 35 2 0
BITMAP
00000800
0000F800
0007F800
001FE000
001E0000
00000000
00000000
F800007C
F800007C
F800007C
F800007C
F800007C
F800007C
F800007C
F800007C
F800007C
F800007C
F800007C
F800007C
F800007C
F800007C
F800007C
F800007C
F800007C
F800007C
F800007C
FC0000F8
7C0000F8
7E0001F8
7FC00FF0
3FFFFFF0
1FFFFFE0
0FFFFFC0
03FFFF00
007FF800
ENDCHAR
STARTCHAR Ucircumflex
ENCODING 219
SWIDTH 889 0
DWIDTH 34 0
BBX 30 35 2 0
BITMAP
00078000
000FC000
001CC000
00186000
00307000
00000000
00000000
F800007C
F800007C
F800007C
F800007C
F800007C
F800007C
F800007C
F800007C
F800007C
F800007C
F800007C
F800007C
F800007C
F800007C
F800007C
F800007C
F800007C
F800007C
F800007C
FC0000F8
7C0000F8
7E0001F8
7FC00FF0
3FFFFFF0
1FFFFFE0
0FFFFFC0
03FFFF00
007FF800
ENDCHAR
STARTCHAR Udieresis
ENCODING 220
SWIDTH 889 0
DWIDTH 34 0
BBX 30 34 2 0
BITMAP
00387000
0078F000
00387000
00000000
00000000
00000000
F800007C
F800007C
F800007C
F800007C
F800007C
F800007C
F800007C
F800007C
F800007C
F800007C
F800007C
F800007C
F800007C
F800007C
F800007C
F800007C
F800007C
F800007C
F800007C
FC0000F8
7C0000F8
7E0001F8
7FC00FF0
3FFFFFF0
1FFFFFE0
0FFFFFC0
03FFFF00
007FF800
ENDCHAR
STARTCHAR Yacute
ENCODING 221
SWIDTH 926 0
DWIDTH 35 0
BBX 35 35 0 0
BITMAP
0000010000
00001F0000
0000FF0000
0003FC0000
0003C00000
0000000000
0000000000
FE00000FE0
3F00001F80
1F80003F80
1FC0003F00
0FE0007E00
07F000FC00
03F001F800
01F803F000
00FC07F000
007E07E000
007F0FC000
003F9F8000
001FBF0000
000FFE0000
0007FC0000
0003FC0000
0003F80000
0001F00000
0001F00000
0001F00000
0001F00000
0001F00000
0001F00000
0001F00000
0001F00000
0001F00000
0001F00000
0001F00000
ENDCHAR
STARTCHAR Thorn
ENCODING 222
SWIDTH 843 0
DWIDTH 32 0
BBX 29 28 2 0
BITMAP
F8000000
F8000000
F8000000
F8000000
FFFFFC00
FFFFFF80
FFFFFFC0
FFFFFFE0
FFFFFFF0
F80007F0
F80001F0
F80000F8
F80000F8
F80000F8
F80000F8
F80000F8
F80000F8
F80001F8
F80001F0
F80007F0
F87FFFE0
F87FFFE0
F87FFFC0
F87FFF00
F87FFC00
F8000000
F8000000
F8000000
ENDCHAR
STARTCHAR germandbls
ENCODING 223
SWIDTH 1760 0
DWIDTH 67 0
BBX 63 28 2 0
BITMAP
07FFFFF001FFFFFC
1FFFFFF007FFFFFC
3FFFFFF01FFFFFFC
7FFFFFF01FFFFFFC
7FFFFFF03FFFFFFC
FC0000003F000000
F80000007E000000
F80000007E000000
F80000007C000000
F80000003E000000
F80000003E000000
7C0000003F000000
7FFFFF801FFFFFC0
3FFFFFE01FFFFFF0
1FFFFFF007FFFFF8
07FFFFF801FFFFFC
000001F80000007E
000000780000003E
0000007C0000003E
0000007C0000001E
0000007C0000003E
0000007C0000003E
000000F80000007E
FFFFFFF83FFFFFFC
FFFFFFF83FFFFFFC
FFFFFFF03FFFFFF8
FFFFFFE03FFFFFF0
FFFFFF803FFFFFC0
ENDCHAR
STARTCHAR agrave
ENCODING 224
SWIDTH 989 0
DWIDTH 38 0
BBX 36 35 1 0
BITMAP
0008000000
000F000000
000FF00000
0007F80000
0000380000
0000000000
0000000000
0000E00000
0001F00000
0001F80000
0003F80000
0003FC0000
0007FC0000
000FFE0000
000FBF0000
001F9F0000
001F1F8000
003E0F8000
007E0FC000
007C07E000
00FC03E000
00F803F000
01F001F000
03F001F800
03E1FFFC00
07E3FFFC00
07C3FFFE00
0FC7FFFE00
1F80003F00
1F00001F80
3F00000F80
3E00000FC0
7E000007E0
FC000007E0
F8000003F0
ENDCHAR
STARTCHAR aacute
ENCODING 225
SWIDTH 989 0
DWIDTH 38 0
BBX 36 35 1 0
BITMAP
0000010000
00001F0000
0000FF0000
0003FC0000
0003C00000
0000000000
0000000000
0000E00000
0001F00000
0001F80000
0003F80000
0003FC0000
0007FC0000
000FFE0000
000FBF0000
001F9F0000
001F1F8000
003E0F8000
007E0FC000
007C07E000
00FC03E000
00F803F000
01F001F000
03F001F800
03E1FFFC00
07E3FFFC00
07C3FFFE00
0FC7FFFE00
1F80003F00
1F00001F80
3F00000F80
3E00000FC0
7E000007E0
FC000007E0
F8000003F0
ENDCHAR
STARTCHAR acircumflex
ENCODING 226
SWIDTH 989 0
DWIDTH 38 0
BBX 36 35 1 0
BITMAP
0000F00000
0001B80000
0003980000
00070C0000
00060E0000
0000000000
0000000000
0000E00000
0001F00000
0001F80000
0003F80000
0003FC0000
0007FC0000
000FFE0000
000FBF0000
001F9F0000
001F1F8000
003E0F8000
007E0FC000
007C07E000
00FC03E000
00F803F000
01F001F000
03F001F800
03E1FFFC00
07E3FFFC00
07C3FFFE00
0FC7FFFE00
1F80003F00
1F00001F80
3F00000F80
3E00000FC0
7E000007E0
FC000007E0
F8000003F0
ENDCHAR
STARTCHAR atilde
ENCODING 227
SWIDTH 989 0
DWIDTH 38 0
BBX 36 35 1 0
BITMAP
0003820000
0007E60000
00047E0000
00083C0000
0000000000
0000000000
0000000000
0000E00000
0001F00000
0001F80000
0003F80000
0003FC0000
0007FC0000
000FFE0000
000FBF0000
001F9F0000
001F1F8000
003E0F8000
007E0FC000
007C07E000
00FC03E000
00F803F000
01F001F000
03F001F800
03E1FFFC00
07E3FFFC00
07C3FFFE00
0FC7FFFE00
1F80003F00
1F00001F80
3F00000F80
3E00000FC0
7E000007E0
FC000007E0
F8000003F0
ENDCHAR
STARTCHAR adieresis
ENCODING 228
SWIDTH 989 0
DWIDTH 38 0
BBX 36 34 1 0
BITMAP
00070E0000
000F1E0000
00070E0000
0000000000
0000000000
0000000000
0000E00000
0001F00000
0001F80000
0003F80000
0003FC0000
0007FC0000
000FFE0000
000FBF0000
001F9F0000
001F1F8000
003E0F8000
007E0FC000
007C07E000
00FC03E000
00F803F000
01F001F000
03F001F800
03E1FFFC00
07E3FFFC00
07C3FFFE00
0FC7FFFE00
1F80003F00
1F00001F80
3F00000F80
3E00000FC0
7E000007E0
FC000007E0
F8000003F0
ENDCHAR
STARTCHAR aring
ENCODING 229
SWIDTH 989 0
DWIDTH 38 0
BBX 36 38 1 0
BITMAP
0001F80000
00030C0000
0006040000
0004060000
0004060000
0006040000
00020C0000
0001F80000
0000000000
0000000000
0000E00000
0001F00000
0001F80000
0003F80000
0003FC0000
0007FC0000
000FFE0000
000FBF0000
001F9F0000
001F1F8000
003E0F8000
007E0FC000
007C07E000
00FC03E000
00F803F000
01F001F000
03F001F800
03E1FFFC00
07E3FFFC00
07C3FFFE00
0FC7FFFE00
1F80003F00
1F00001F80
3F00000F80
3E00000FC0
7E000007E0
FC000007E0
F8000003F0
ENDCHAR
STARTCHAR ae
ENCODING 230
SWIDTH 1345 0
DWIDTH 51 0
BBX 48 28 1 0
BITMAP
0000FFFFFFFF
0001FFFFFFFF
0003FFFFFFFF
0003FFFFFFFF
0007FFFFFFFF
000FC07C0000
000F807C0000
001F807C0000
001F007C0000
003E007C0000
003E007C0000
007C007C0000
00FC007C3FFE
00F8007C3FFE
01F8007C3FFE
01F0007C3FFE
03E0007C0000
03E1FFFC0000
07C3FFFC0000
0FC3FFFC0000
0F87FFFC0000
1F80007C0000
1F00007C0000
3F00007FFFFF
3E00007FFFFF
7C00007FFFFF
FC00007FFFFF
F800007FFFFF
ENDCHAR
STARTCHAR ccedilla
ENCODING 231
SWIDTH 829 0
DWIDTH 32 0
BBX 28 36 2 -8
BITMAP
007FFFF0
01FFFFF0
07FFFFF0
0FFFFFF0
1FFFFFF0
3FC00000
7F000000
7E000000
FC000000
F8000000
F8000000
F8000000
F8000000
F0000000
F0000000
F8000000
F8000000
F8000000
F8000000
7C000000
7E000000
3F000000
3FC00000
1FFFFFF0
0FFFFFF0
07FFFFF0
01FFFFF0
007FFFF0
00000000
00000000
000F8000
00070000
00070000
00070000
00020000
00020000
ENDCHAR
STARTCHAR egrave
ENCODING 232
SWIDTH 759 0
DWIDTH 29 0
BBX 25 35 2 0
BITMAP
03000000
03E00000
03FC0000
00FF0000
00070000
00000000
00000000
FFFFFF80
FFFFFF80
FFFFFF80
FFFFFF80
FFFFFF80
F8000000
F8000000
F8000000
F8000000
F8000000
F8000000
F8000000
F87FFF00
F87FFF00
F87FFF00
F87FFF00
F8000000
F8000000
F8000000
F8000000
F8000000
F8000000
F8000000
FFFFFF80
FFFFFF80
FFFFFF80
FFFFFF80
FFFFFF80
ENDCHAR
STARTCHAR eacute
ENCODING 233
SWIDTH 759 0
DWIDTH 29 0
BBX 25 35 2 0
BITMAP
00004000
0003C000
001FC000
007F8000
00700000
00000000
00000000
FFFFFF80
FFFFFF80
FFFFFF80
FFFFFF80
FFFFFF80
F8000000
F8000000
F8000000
F8000000
F8000000
F8000000
F8000000
F87FFF00
F87FFF00
F87FFF00
F87FFF00
F8000000
F8000000
F8000000
F8000000
F8000000
F8000000
F8000000
FFFFFF80
FFFFFF80
FFFFFF80
FFFFFF80
FFFFFF80
ENDCHAR
STARTCHAR ecircumflex
ENCODING 234
SWIDTH 759 0
DWIDTH 29 0
BBX 25 35 2 0
BITMAP
003E0000
00360000
00670000
00E38000
01C1C000
00000000
00000000
FFFFFF80
FFFFFF80
FFFFFF80
FFFFFF80
FFFFFF80
F8000000
F8000000
F8000000
F8000000
F8000000
F8000000
F8000000
F87FFF00
F87FFF00
F87FFF00
F87FFF00
F8000000
F8000000
F8000000
F8000000
F8000000
F8000000
F8000000
FFFFFF80
FFFFFF80
FFFFFF80
FFFFFF80
FFFFFF80
ENDCHAR
STARTCHAR edieresis
ENCODING 235
SWIDTH 759 0
DWIDTH 29 0
BBX 25 34 2 0
BITMAP
01C38000
01E3C000
01C38000
00000000
00000000
00000000
FFFFFF80
FFFFFF80
FFFFFF80
FFFFFF80
FFFFFF80
F8000000
F8000000
F8000000
F8000000
F8000000
F8000000
F8000000
F87FFF00
F87FFF00
F87FFF00
F87FFF00
F8000000
F8000000
F8000000
F8000000
F8000000
F8000000
F8000000
FFFFFF80
FFFFFF80
FFFFFF80
FFFFFF80
FFFFFF80
ENDCHAR
STARTCHAR igrave
ENCODING 236
SWIDTH 267 0
DWIDTH 10 0
BBX 10 35 -1 0
BITMAP
8000
F800
FF00
3FC0
03C0
0000
0000
0F00
0F00
0F00
0F00
0F00
0F00
0F00
0F00
0F00
0F00
0F00
0F00
0F00
0F00
0F00
0F00
0F00
0F00
0F00
0F00
0F00
0F00
0F00
0F00
0F00
0F00
0F00
0F00
ENDCHAR
STARTCHAR iacute
ENCODING 237
SWIDTH 267 0
DWIDTH 10 0
BBX 10 35 1 0
BITMAP
0040
03C0
3FC0
FF80
F000
0000
0000
3C00
3C00
3C00
3C00
3C00
3C00
3C00
3C00
3C00
3C00
3C00
3C00
3C00
3C00
3C00
3C00
3C00
3C00
3C00
3C00
3C00
3C00
3C00
3C00
3C00
3C00
3C00
3C00
ENDCHAR
STARTCHAR icircumflex
ENCODING 238
SWIDTH 267 0
DWIDTH 10 0
BBX 10 35 0 0
BITMAP
1E00
3F00
3380
6180
E0C0
0000
0000
1E00
1E00
1E00
1E00
1E00
1E00
1E00
1E00
1E00
1E00
1E00
1E00
1E00
1E00
1E00
1E00
1E00
1E00
1E00
1E00
1E00
1E00
1E00
1E00
1E00
1E00
1E00
1E00
ENDCHAR
STARTCHAR idieresis
ENCODING 239
SWIDTH 267 0
DWIDTH 10 0
BBX 11 34 0 0
BITMAP
E1C0
F1E0
E1C0
0000
0000
0000
1E00
1E00
1E00
1E00
1E00
1E00
1E00
1E00
1E00
1E00
1E00
1E00
1E00
1E00
1E00
1E00
1E00
1E00
1E00
1E00
1E00
1E00
1E00
1E00
1E00
1E00
1E00
1E00
ENDCHAR
STARTCHAR eth
ENCODING 240
SWIDTH 877 0
DWIDTH 33 0
BBX 32 28 0 0
BITMAP
3FFFFC00
3FFFFF80
3FFFFFC0
3FFFFFF0
3FFFFFF8
3E0003F8
3E0001FC
3E00007E
3E00007E
3E00003E
3E00003E
3E00001F
FFFFC01F
FFFFC01F
FFFFC01F
FFFFC01F
3E00001F
3E00003E
3E00003E
3E00007E
3E0000FC
3E0001FC
3E0003F8
3FFFFFF0
3FFFFFE0
3FFFFFC0
3FFFFF80
3FFFFC00
ENDCHAR
STARTCHAR ntilde
ENCODING 241
SWIDTH 873 0
DWIDTH 33 0
BBX 29 35 2 0
BITMAP
001C1000
003E2000
0023E000
0041E000
00000000
00000000
00000000
700000F8
780000F8
FC0000F8
FE0000F8
FF0000F8
FF8000F8
FFC000F8
FFE000F8
FBF000F8
F9F800F8
F8FC00F8
F87E00F8
F83F00F8
F81F80F8
F80FC0F8
F807E0F8
F803F0F8
F801F8F8
F800FCF8
F8007EF8
F8003FF8
F8001FF8
F8000FF8
F80007F8
F80003F8
F80001F8
F80000F8
F8000070
ENDCHAR
STARTCHAR ograve
ENCODING 242
SWIDTH 968 0
DWIDTH 37 0
BBX 33 35 2 0
BITMAP
0030000000
003E000000
003FC00000
000FF00000
0000F00000
0000000000
0000000000
007FFF0000
01FFFFC000
07FFFFF000
0FFFFFF800
1FFFFFFC00
3FC001FE00
7F00007E00
7E00003F00
FC00001F00
F800001F80
F800000F80
F800000F80
F800000F80
F000000F80
F000000F80
F800000F80
F800000F80
F800000F80
F800001F80
7C00001F00
7E00003F00
3F00007E00
3FC001FE00
1FFFFFFC00
0FFFFFF800
07FFFFF000
01FFFFC000
007FFE0000
ENDCHAR
STARTCHAR oacute
ENCODING 243
SWIDTH 968 0
DWIDTH 37 0
BBX 33 35 2 0
BITMAP
0000040000
00003C0000
0001FC0000
0007F80000
0007000000
0000000000
0000000000
007FFF0000
01FFFFC000
07FFFFF000
0FFFFFF800
1FFFFFFC00
3FC001FE00
7F00007E00
7E00003F00
FC00001F00
F800001F80
F800000F80
F800000F80
F800000F80
F000000F80
F000000F80
F800000F80
F800000F80
F800000F80
F800001F80
7C00001F00
7E00003F00
3F00007E00
3FC001FE00
1FFFFFFC00
0FFFFFF800
07FFFFF000
01FFFFC000
007FFE0000
ENDCHAR
STARTCHAR ocircumflex
ENCODING 244
SWIDTH 968 0
DWIDTH 37 0
BBX 33 35 2 0
BITMAP
0003C00000
0003600000
0006700000
000E380000
001C1C0000
0000000000
0000000000
007FFF0000
01FFFFC000
07FFFFF000
0FFFFFF800
1FFFFFFC00
3FC001FE00
7F00007E00
7E00003F00
FC00001F00
F800001F80
F800000F80
F800000F80
F800000F80
F000000F80
F000000F80
F800000F80
F800000F80
F800000F80
F800001F80
7C00001F00
7E00003F00
3F00007E00
3FC001FE00
1FFFFFFC00
0FFFFFF800
07FFFFF000
01FFFFC000
007FFE0000
ENDCHAR
STARTCHAR otilde
ENCODING 245
SWIDTH 968 0
DWIDTH 37 0
BBX 33 35 2 0
BITMAP
000F040000
000F880000
0009F80000
0010700000
0000000000
0000000000
0000000000
007FFF0000
01FFFFC000
07FFFFF000
0FFFFFF800
1FFFFFFC00
3FC001FE00
7F00007E00
7E00003F00
FC00001F00
F800001F80
F800000F80
F800000F80
F800000F80
F000000F80
F000000F80
F800000F80
F800000F80
F800000F80
F800001F80
7C00001F00
7E00003F00
3F00007E00
3FC001FE00
1FFFFFFC00
0FFFFFF800
07FFFFF000
01FFFFC000
007FFE0000
ENDCHAR
STARTCHAR odieresis
ENCODING 246
SWIDTH 968 0
DWIDTH 37 0
BBX 33 34 2 0
BITMAP
001C380000
001E3C0000
001C380000
0000000000
0000000000
0000000000
007FFF0000
01FFFFC000
07FFFFF000
0FFFFFF800
1FFFFFFC00
3FC001FE00
7F00007E00
7E00003F00
FC00001F00
F800001F80
F800000F80
F800000F80
F800000F80
F000000F80
F000000F80
F800000F80
F800000F80
F800000F80
F800001F80
7C00001F00
7E00003F00
3F00007E00
3FC001FE00
1FFFFFFC00
0FFFFFF800
07FFFFF000
01FFFFC000
007FFE0000
ENDCHAR
STARTCHAR divide
ENCODING 247
SWIDTH 690 0
DWIDTH 26 0
BBX 22 25 2 2
BITMAP
003800
007800
007C00
007800
007800
000000
000000
000000
000000
000000
000000
FFFFFC
FFFFFC
FFFFFC
000000
000000
000000
000000
000000
000000
003800
007800
007C00
007800
007800
ENDCHAR
STARTCHAR oslash
ENCODING 248
SWIDTH 968 0
DWIDTH 37 0
BBX 33 32 2 -2
BITMAP
0000000800
0000000C00
007FFF1800
01FFFFF000
07FFFFF000
0FFFFFF800
1FFFFFFC00
3FC001FE00
7F00037E00
7E00063F00
FC000E1F00
F8001C1F80
F800380F80
F800300F80
F800600F80
F000C00F80
F001C00F80
F803800F80
F807000F80
F80E000F80
F80C001F80
7C18001F00
7E38003F00
3F70007E00
3FE001FE00
1FFFFFFC00
0FFFFFF800
07FFFFF000
07FFFFC000
0E7FFE0000
1C00000000
0800000000
ENDCHAR
STARTCHAR ugrave
ENCODING 249
SWIDTH 889 0
DWIDTH 34 0
BBX 30 35 2 0
BITMAP
00400000
00780000
007F8000
003FE000
0001E000
00000000
00000000
F800007C
F800007C
F800007C
F800007C
F800007C
F800007C
F800007C
F800007C
F800007C
F800007C
F800007C
F800007C
F800007C
F800007C
F800007C
F800007C
F800007C
F800007C
F800007C
FC0000F8
7C0000F8
7E0001F8
7FC00FF0
3FFFFFF0
1FFFFFE0
0FFFFFC0
03FFFF00
007FF800
ENDCHAR
STARTCHAR uacute
ENCODING 250
SWIDTH 889 0
DWIDTH 34 0
BBX 30 35 2 0
BITMAP
00000800
0000F800
0007F800
001FE000
001E0000
00000000
00000000
F800007C
F800007C
F800007C
F800007C
F800007C
F800007C
F800007C
F800007C
F800007C
F800007C
F800007C
F800007C
F800007C
F800007C
F800007C
F800007C
F800007C
F800007C
F800007C
FC0000F8
7C0000F8
7E0001F8
7FC00FF0
3FFFFFF0
1FFFFFE0
0FFFFFC0
03FFFF00
007FF800
ENDCHAR
STARTCHAR ucircumflex
ENCODING 251
SWIDTH 889 0
DWIDTH 34 0
BBX 30 35 2 0
BITMAP
00078000
000FC000
001CC000
00186000
00307000
00000000
00000000
F800007C
F800007C
F800007C
F800007C
F800007C
F800007C
F800007C
F800007C
F800007C
F800007C
F800007C
F800007C
F800007C
F800007C
F800007C
F800007C
F800007C
F800007C
F800007C
FC0000F8
7C0000F8
7E0001F8
7FC00FF0
3FFFFFF0
1FFFFFE0
0FFFFFC0
03FFFF00
007FF800
ENDCHAR
STARTCHAR udieresis
ENCODING 252
SWIDTH 889 0
DWIDTH 34 0
BBX 30 34 2 0
BITMAP
00387000
0078F000
00387000
00000000
00000000
00000000
F800007C
F800007C
F800007C
F800007C
F800007C
F800007C
F800007C
F800007C
F800007C
F800007C
F800007C
F800007C
F800007C
F800007C
F800007C
F800007C
F800007C
F800007C
F800007C
FC0000F8
7C0000F8
7E0001F8
7FC00FF0
3FFFFFF0
1FFFFFE0
0FFFFFC0
03FFFF00
007FF800
ENDCHAR
STARTCHAR yacute
ENCODING 253
SWIDTH 926 0
DWIDTH 35 0
BBX 35 35 0 0
BITMAP
0000010000
00001F0000
0000FF0000
0003FC0000
0003C00000
0000000000
0000000000
FE00000FE0
3F00001F80
1F80003F80
1FC0003F00
0FE0007E00
07F000FC00
03F001F800
01F803F000
00FC07F000
007E07E000
007F0FC000
003F9F8000
001FBF0000
000FFE0000
0007FC0000
0003FC0000
0003F80000
0001F00000
0001F00000
0001F00000
0001F00000
0001F00000
0001F00000
0001F00000
0001F00000
0001F00000
0001F00000
0001F00000
ENDCHAR
STARTCHAR thorn
ENCODING 254
SWIDTH 843 0
DWIDTH 32 0
BBX 29 28 2 0
BITMAP
F8000000
F8000000
F8000000
F8000000
FFFFFC00
FFFFFF80
FFFFFFC0
FFFFFFE0
FFFFFFF0
F80007F0
F80001F0
F80000F8
F80000F8
F80000F8
F80000F8
F80000F8
F80000F8
F80001F8
F80001F0
F80007F0
F87FFFE0
F87FFFE0
F87FFFC0
F87FFF00
F87FFC00
F8000000
F8000000
F8000000
ENDCHAR
STARTCHAR ydieresis
ENCODING 255
SWIDTH 926 0
DWIDTH 35 0
BBX 35 34 0 0
BITMAP
00070E0000
000F1E0000
00070E0000
0000000000
0000000000
0000000000
FE00000FE0
3F00001F80
1F80003F80
1FC0003F00
0FE0007E00
07F000FC00
03F001F800
01F803F000
00FC07F000
007E07E000
007F0FC000
003F9F8000
001FBF0000
000FFE0000
0007FC0000
0003FC0000
0003F80000
0001F00000
0001F00000
0001F00000
0001F00000
0001F00000
0001F00000
0001F00000
0001F00000
0001F00000
0001F00000
0001F00000
ENDCHAR
STARTCHAR Amacron
ENCODING 256
SWIDTH 989 0
DWIDTH 38 0
BBX 36 33 1 0
BITMAP
0007FE0000
0007FE0000
0000000000
0000000000
0000000000
0000E00000
0001F00000
0001F80000
0003F80000
0003FC0000
0007FC0000
000FFE0000
000FBF0000
001F9F0000
001F1F8000
003E0F8000
007E0FC000
007C07E000
00FC03E000
00F803F000
01F001F000
03F001F800
03E1FFFC00
07E3FFFC00
07C3FFFE00
0FC7FFFE00
1F80003F00
1F00001F80
3F00000F80
3E00000FC0
7E000007E0
FC000007E0
F8000003F0
ENDCHAR
STARTCHAR amacron
ENCODING 257
SWIDTH 989 0
DWIDTH 38 0
BBX 36 33 1 0
BITMAP
0007FE0000
0007FE0000
0000000000
0000000000
0000000000
0000E00000
0001F00000
0001F80000
0003F80000
0003FC0000
0007FC0000
000FFE0000
000FBF0000
001F9F0000
001F1F8000
003E0F8000
007E0FC000
007C07E000
00FC03E000
00F803F000
01F001F000
03F001F800
03E1FFFC00
07E3FFFC00
07C3FFFE00
0FC7FFFE00
1F80003F00
1F00001F80
3F00000F80
3E00000FC0
7E000007E0
FC000007E0
F8000003F0
ENDCHAR
STARTCHAR Abreve
ENCODING 258
SWIDTH 989 0
DWIDTH 38 0
BBX 36 35 1 0
BITMAP
00060E0000
00060E0000
00070C0000
0003FC0000
0001F80000
0000000000
0000000000
0000E00000
0001F00000
0001F80000
0003F80000
0003FC0000
0007FC0000
000FFE0000
000FBF0000
001F9F0000
001F1F8000
003E0F8000
007E0FC000
007C07E000
00FC03E000
00F803F000
01F001F000
03F001F800
03E1FFFC00
07E3FFFC00
07C3FFFE00
0FC7FFFE00
1F80003F00
1F00001F80
3F00000F80
3E00000FC0
7E000007E0
FC000007E0
F8000003F0
ENDCHAR
STARTCHAR abreve
ENCODING 259
SWIDTH 989 0
DWIDTH 38 0
BBX 36 35 1 0
BITMAP
00060E0000
00060E0000
00070C0000
0003FC0000
0001F80000
0000000000
0000000000
0000E00000
0001F00000
0001F80000
0003F80000
0003FC0000
0007FC0000
000FFE0000
000FBF0000
001F9F0000
001F1F8000
003E0F8000
007E0FC000
007C07E000
00FC03E000
00F803F000
01F001F000
03F001F800
03E1FFFC00
07E3FFFC00
07C3FFFE00
0FC7FFFE00
1F80003F00
1F00001F80
3F00000F80
3E00000FC0
7E000007E0
FC000007E0
F8000003F0
ENDCHAR
STARTCHAR Aogonek
ENCODING 260
SWIDTH 989 0
DWIDTH 38 0
BBX 36 36 1 -8
BITMAP
0000E00000
0001F00000
0001F80000
0003F80000
0003FC0000
0007FC0000
000FFE0000
000FBF0000
001F9F0000
001F1F8000
003E0F8000
007E0FC000
007C07E000
00FC03E000
00F803F000
01F001F000
03F001F800
03E1FFFC00
07E3FFFC00
07C3FFFE00
0FC7FFFE00
1F80003F00
1F00001F80
3F00000F80
3E00000FC0
7E000007E0
FC000007E0
F8000003F0
0000000060
00000000C0
0000000380
0000000700
0000000700
00000007F0
00000007F0
00000003F0
ENDCHAR
STARTCHAR aogonek
ENCODING 261
SWIDTH 989 0
DWIDTH 38 0
BBX 36 36 1 -8
BITMAP
0000E00000
0001F00000
0001F80000
0003F80000
0003FC0000
0007FC0000
000FFE0000
000FBF0000
001F9F0000
001F1F8000
003E0F8000
007E0FC000
007C07E000
00FC03E000
00F803F000
01F001F000
03F001F800
03E1FFFC00
07E3FFFC00
07C3FFFE00
0FC7FFFE00
1F80003F00
1F00001F80
3F00000F80
3E00000FC0
7E000007E0
FC000007E0
F8000003F0
0000000060
00000000C0
0000000380
0000000700
0000000700
00000007F0
00000007F0
00000003F0
ENDCHAR
STARTCHAR Cacute
ENCODING 262
SWIDTH 829 0
DWIDTH 32 0
BBX 28 35 2 0
BITMAP
00000C00
00007C00
0003FC00
000FF000
000E0000
00000000
00000000
007FFFF0
01FFFFF0
07FFFFF0
0FFFFFF0
1FFFFFF0
3FC00000
7F000000
7E000000
FC000000
F8000000
F8000000
F8000000
F8000000
F0000000
F0000000
F8000000
F8000000
F8000000
F8000000
7C000000
7E000000
3F000000
3FC00000
1FFFFFF0
0FFFFFF0
07FFFFF0
01FFFFF0
007FFFF0
ENDCHAR
STARTCHAR cacute
ENCODING 263
SWIDTH 829 0
DWIDTH 32 0
BBX 28 35 2 0
BITMAP
00000C00
00007C00
0003FC00
000FF000
000E0000
00000000
00000000
007FFFF0
01FFFFF0
07FFFFF0
0FFFFFF0
1FFFFFF0
3FC00000
7F000000
7E000000
FC000000
F8000000
F8000000
F8000000
F8000000
F0000000
F0000000
F8000000
F8000000
F8000000
F8000000
7C000000
7E000000
3F000000
3FC00000
1FFFFFF0
0FFFFFF0
07FFFFF0
01FFFFF0
007FFFF0
ENDCHAR
STARTCHAR Cdotaccent
ENCODING 266
SWIDTH 829 0
DWIDTH 32 0
BBX 28 34 2 0
BITMAP
00018000
0003C000
0001C000
00000000
00000000
00000000
007FFFF0
01FFFFF0
07FFFFF0
0FFFFFF0
1FFFFFF0
3FC00000
7F000000
7E000000
FC000000
F8000000
F8000000
F8000000
F8000000
F0000000
F0000000
F8000000
F8000000
F8000000
F8000000
7C000000
7E000000
3F000000
3FC00000
1FFFFFF0
0FFFFFF0
07FFFFF0
01FFFFF0
007FFFF0
ENDCHAR
STARTCHAR cdotaccent
ENCODING 267
SWIDTH 829 0
DWIDTH 32 0
BBX 28 34 2 0
BITMAP
00018000
0003C000
0001C000
00000000
00000000
00000000
007FFFF0
01FFFFF0
07FFFFF0
0FFFFFF0
1FFFFFF0
3FC00000
7F000000
7E000000
FC000000
F8000000
F8000000
F8000000
F8000000
F0000000
F0000000
F8000000
F8000000
F8000000
F8000000
7C000000
7E000000
3F000000
3FC00000
1FFFFFF0
0FFFFFF0
07FFFFF0
01FFFFF0
007FFFF0
ENDCHAR
STARTCHAR Ccaron
ENCODING 268
SWIDTH 829 0
DWIDTH 32 0
BBX 28 35 2 0
BITMAP
00383800
001C7000
000E6000
0006E000
0007C000
00000000
00000000
007FFFF0
01FFFFF0
07FFFFF0
0FFFFFF0
1FFFFFF0
3FC00000
7F000000
7E000000
FC000000
F8000000
F8000000
F8000000
F8000000
F0000000
F0000000
F8000000
F8000000
F8000000
F8000000
7C000000
7E000000
3F000000
3FC00000
1FFFFFF0
0FFFFFF0
07FFFFF0
01FFFFF0
007FFFF0
ENDCHAR
STARTCHAR ccaron
ENCODING 269
SWIDTH 829 0
DWIDTH 32 0
BBX 28 35 2 0
BITMAP
00383800
001C7000
000E6000
0006E000
0007C000
00000000
00000000
007FFFF0
01FFFFF0
07FFFFF0
0FFFFFF0
1FFFFFF0
3FC00000
7F000000
7E000000
FC000000
F8000000
F8000000
F8000000
F8000000
F0000000
F0000000
F8000000
F8000000
F8000000
F8000000
7C000000
7E000000
3F000000
3FC00000
1FFFFFF0
0FFFFFF0
07FFFFF0
01FFFFF0
007FFFF0
ENDCHAR
STARTCHAR Dcaron
ENCODING 270
SWIDTH 879 0
DWIDTH 33 0
BBX 30 35 2 0
BITMAP
00E0C000
00618000
00338000
003B0000
001E0000
00000000
00000000
FFFFF000
FFFFFE00
FFFFFF80
FFFFFFC0
FFFFFFE0
F8000FE0
F80007F0
F80001F8
F80001F8
F80000F8
F80000FC
F800007C
F800007C
F800007C
F800007C
F800007C
F800007C
F80000F8
F80000F8
F80001F8
F80001F0
F80007F0
F8000FE0
FFFFFFC0
FFFFFF80
FFFFFF00
FFFFFE00
FFFFF000
ENDCHAR
STARTCHAR dcaron
ENCODING 271
SWIDTH 879 0
DWIDTH 33 0
BBX 30 35 2 0
BITMAP
00E0C000
00618000
00338000
003B0000
001E0000
00000000
00000000
FFFFF000
FFFFFE00
FFFFFF80
FFFFFFC0
FFFFFFE0
F8000FE0
F80007F0
F80001F8
F80001F8
F80000F8
F80000FC
F800007C
F800007C
F800007C
F800007C
F800007C
F800007C
F80000F8
F80000F8
F80001F8
F80001F0
F80007F0
F8000FE0
FFFFFFC0
FFFFFF80
FFFFFF00
FFFFFE00
FFFFF000
ENDCHAR
STARTCHAR Dcroat
ENCODING 272
SWIDTH 877 0
DWIDTH 33 0
BBX 32 28 0 0
BITMAP
3FFFFC00
3FFFFF80
3FFFFFC0
3FFFFFF0
3FFFFFF8
3E0003F8
3E0001FC
3E00007E
3E00007E
3E00003E
3E00003E
3E00001F
FFFFC01F
FFFFC01F
FFFFC01F
FFFFC01F
3E00001F
3E00003E
3E00003E
3E00007E
3E0000FC
3E0001FC
3E0003F8
3FFFFFF0
3FFFFFE0
3FFFFFC0
3FFFFF80
3FFFFC00
ENDCHAR
STARTCHAR dcroat
ENCODING 273
SWIDTH 877 0
DWIDTH 33 0
BBX 32 28 0 0
BITMAP
3FFFFC00
3FFFFF80
3FFFFFC0
3FFFFFF0
3FFFFFF8
3E0003F8
3E0001FC
3E00007E
3E00007E
3E00003E
3E00003E
3E00001F
FFFFC01F
FFFFC01F
FFFFC01F
FFFFC01F
3E00001F
3E00003E
3E00003E
3E00007E
3E0000FC
3E0001FC
3E0003F8
3FFFFFF0
3FFFFFE0
3FFFFFC0
3FFFFF80
3FFFFC00
ENDCHAR
STARTCHAR Emacron
ENCODING 274
SWIDTH 759 0
DWIDTH 29 0
BBX 25 33 2 0
BITMAP
00FF8000
00FF8000
00000000
00000000
00000000
FFFFFF80
FFFFFF80
FFFFFF80
FFFFFF80
FFFFFF80
F8000000
F8000000
F8000000
F8000000
F8000000
F8000000
F8000000
F87FFF00
F87FFF00
F87FFF00
F87FFF00
F8000000
F8000000
F8000000
F8000000
F8000000
F8000000
F8000000
FFFFFF80
FFFFFF80
FFFFFF80
FFFFFF80
FFFFFF80
ENDCHAR
STARTCHAR emacron
ENCODING 275
SWIDTH 759 0
DWIDTH 29 0
BBX 25 33 2 0
BITMAP
00FF8000
00FF8000
00000000
00000000
00000000
FFFFFF80
FFFFFF80
FFFFFF80
FFFFFF80
FFFFFF80
F8000000
F8000000
F8000000
F8000000
F8000000
F8000000
F8000000
F87FFF00
F87FFF00
F87FFF00
F87FFF00
F8000000
F8000000
F8000000
F8000000
F8000000
F8000000
F8000000
FFFFFF80
FFFFFF80
FFFFFF80
FFFFFF80
FFFFFF80
ENDCHAR
STARTCHAR Ebreve
ENCODING 276
SWIDTH 759 0
DWIDTH 29 0
BBX 25 35 2 0
BITMAP
01C1C000
01C18000
00E38000
00FF0000
007E0000
00000000
00000000
FFFFFF80
FFFFFF80
FFFFFF80
FFFFFF80
FFFFFF80
F8000000
F8000000
F8000000
F8000000
F8000000
F8000000
F8000000
F87FFF00
F87FFF00
F87FFF00
F87FFF00
F8000000
F8000000
F8000000
F8000000
F8000000
F8000000
F8000000
FFFFFF80
FFFFFF80
FFFFFF80
FFFFFF80
FFFFFF80
ENDCHAR
STARTCHAR ebreve
ENCODING 277
SWIDTH 759 0
DWIDTH 29 0
BBX 25 35 2 0
BITMAP
01C1C000
01C18000
00E38000
00FF0000
007E0000
00000000
00000000
FFFFFF80
FFFFFF80
FFFFFF80
FFFFFF80
FFFFFF80
F8000000
F8000000
F8000000
F8000000
F8000000
F8000000
F8000000
F87FFF00
F87FFF00
F87FFF00
F87FFF00
F8000000
F8000000
F8000000
F8000000
F8000000
F8000000
F8000000
FFFFFF80
FFFFFF80
FFFFFF80
FFFFFF80
FFFFFF80
ENDCHAR
STARTCHAR Edotaccent
ENCODING 278
SWIDTH 759 0
DWIDTH 29 0
BBX 25 34 2 0
BITMAP
001C0000
003C0000
001C0000
00000000
00000000
00000000
FFFFFF80
FFFFFF80
FFFFFF80
FFFFFF80
FFFFFF80
F8000000
F8000000
F8000000
F8000000
F8000000
F8000000
F8000000
F87FFF00
F87FFF00
F87FFF00
F87FFF00
F8000000
F8000000
F8000000
F8000000
F8000000
F8000000
F8000000
FFFFFF80
FFFFFF80
FFFFFF80
FFFFFF80
FFFFFF80
ENDCHAR
STARTCHAR edotaccent
ENCODING 279
SWIDTH 759 0
DWIDTH 29 0
BBX 25 34 2 0
BITMAP
001C0000
003C0000
001C0000
00000000
00000000
00000000
FFFFFF80
FFFFFF80
FFFFFF80
FFFFFF80
FFFFFF80
F8000000
F8000000
F8000000
F8000000
F8000000
F8000000
F8000000
F87FFF00
F87FFF00
F87FFF00
F87FFF00
F8000000
F8000000
F8000000
F8000000
F8000000
F8000000
F8000000
FFFFFF80
FFFFFF80
FFFFFF80
FFFFFF80
FFFFFF80
ENDCHAR
STARTCHAR Eogonek
ENCODING 280
SWIDTH 759 0
DWIDTH 29 0
BBX 25 36 2 -8
BITMAP
FFFFFF80
FFFFFF80
FFFFFF80
FFFFFF80
FFFFFF80
F8000000
F8000000
F8000000
F8000000
F8000000
F8000000
F8000000
F87FFF00
F87FFF00
F87FFF00
F87FFF00
F8000000
F8000000
F8000000
F8000000
F8000000
F8000000
F8000000
FFFFFF80
FFFFFF80
FFFFFF80
FFFFFF80
FFFFFF80
00000300
00000600
00001C00
00003800
00003800
00003F80
00003F80
00001F80
ENDCHAR
STARTCHAR eogonek
ENCODING 281
SWIDTH 759 0
DWIDTH 29 0
BBX 25 36 2 -8
BITMAP
FFFFFF80
FFFFFF80
FFFFFF80
FFFFFF80
FFFFFF80
F8000000
F8000000
F8000000
F8000000
F8000000
F8000000
F8000000
F87FFF00
F87FFF00
F87FFF00
F87FFF00
F8000000
F8000000
F8000000
F8000000
F8000000
F8000000
F8000000
FFFFFF80
FFFFFF80
FFFFFF80
FFFFFF80
FFFFFF80
00000300
00000600
00001C00
00003800
00003800
00003F80
00003F80
00001F80
ENDCHAR
STARTCHAR Ecaron
ENCODING 282
SWIDTH 759 0
DWIDTH 29 0
BBX 25 35 2 0
BITMAP
01C1C000
00E38000
00670000
00360000
003E0000
00000000
00000000
FFFFFF80
FFFFFF80
FFFFFF80
FFFFFF80
FFFFFF80
F8000000
F8000000
F8000000
F8000000
F8000000
F8000000
F8000000
F87FFF00
F87FFF00
F87FFF00
F87FFF00
F8000000
F8000000
F8000000
F8000000
F8000000
F8000000
F8000000
FFFFFF80
FFFFFF80
FFFFFF80
FFFFFF80
FFFFFF80
ENDCHAR
STARTCHAR ecaron
ENCODING 283
SWIDTH 759 0
DWIDTH 29 0
BBX 25 35 2 0
BITMAP
01C1C000
00E38000
00670000
00360000
003E0000
00000000
00000000
FFFFFF80
FFFFFF80
FFFFFF80
FFFFFF80
FFFFFF80
F8000000
F8000000
F8000000
F8000000
F8000000
F8000000
F8000000
F87FFF00
F87FFF00
F87FFF00
F87FFF00
F8000000
F8000000
F8000000
F8000000
F8000000
F8000000
F8000000
FFFFFF80
FFFFFF80
FFFFFF80
FFFFFF80
FFFFFF80
ENDCHAR
STARTCHAR Gbreve
ENCODING 286
SWIDTH 888 0
DWIDTH 34 0
BBX 30 35 2 0
BITMAP
00181800
001C3800
001C3800
000FF000
0007E000
00000000
00000000
007FFFF0
01FFFFF0
07FFFFF0
0FFFFFF0
1FFFFFF0
3FC00000
7F000000
7E000000
FC000000
F8000000
F8000000
F8000000
F80FFFFC
F00FFFFC
F00FFFFC
F80FFFFC
F800007C
F800007C
F800007C
7C00007C
7E00007C
3F00007C
3FC0007C
1FFFFFFC
0FFFFFFC
07FFFFFC
01FFFFFC
007FFFFC
ENDCHAR
STARTCHAR gbreve
ENCODING 287
SWIDTH 888 0
DWIDTH 34 0
BBX 30 35 2 0
BITMAP
00181800
001C3800
001C3800
000FF000
0007E000
00000000
00000000
007FFFF0
01FFFFF0
07FFFFF0
0FFFFFF0
1FFFFFF0
3FC00000
7F000000
7E000000
FC000000
F8000000
F8000000
F8000000
F80FFFFC
F00FFFFC
F00FFFFC
F80FFFFC
F800007C
F800007C
F800007C
7C00007C
7E00007C
3F00007C
3FC0007C
1FFFFFFC
0FFFFFFC
07FFFFFC
01FFFFFC
007FFFFC
ENDCHAR
STARTCHAR Gdotaccent
ENCODING 288
SWIDTH 888 0
DWIDTH 34 0
BBX 30 34 2 0
BITMAP
0001C000
0003C000
0001C000
00000000
00000000
00000000
007FFFF0
01FFFFF0
07FFFFF0
0FFFFFF0
1FFFFFF0
3FC00000
7F000000
7E000000
FC000000
F8000000
F8000000
F8000000
F80FFFFC
F00FFFFC
F00FFFFC
F80FFFFC
F800007C
F800007C
F800007C
7C00007C
7E00007C
3F00007C
3FC0007C
1FFFFFFC
0FFFFFFC
07FFFFFC
01FFFFFC
007FFFFC
ENDCHAR
STARTCHAR gdotaccent
ENCODING 289
SWIDTH 888 0
DWIDTH 34 0
BBX 30 34 2 0
BITMAP
0001C000
0003C000
0001C000
00000000
00000000
00000000
007FFFF0
01FFFFF0
07FFFFF0
0FFFFFF0
1FFFFFF0
3FC00000
7F000000
7E000000
FC000000
F8000000
F8000000
F8000000
F80FFFFC
F00FFFFC
F00FFFFC
F80FFFFC
F800007C
F800007C
F800007C
7C00007C
7E00007C
3F00007C
3FC0007C
1FFFFFFC
0FFFFFFC
07FFFFFC
01FFFFFC
007FFFFC
ENDCHAR
STARTCHAR Gcommaaccent
ENCODING 290
SWIDTH 888 0
DWIDTH 34 0
BBX 30 36 2 -8
BITMAP
007FFFF0
01FFFFF0
07FFFFF0
0FFFFFF0
1FFFFFF0
3FC00000
7F000000
7E000000
FC000000
F8000000
F8000000
F8000000
F80FFFFC
F00FFFFC
F00FFFFC
F80FFFFC
F800007C
F800007C
F800007C
7C00007C
7E00007C
3F00007C
3FC0007C
1FFFFFFC
0FFFFFFC
07FFFFFC
01FFFFFC
007FFFFC
00000000
00000000
0007C000
00078000
00038000
00030000
00010000
00010000
ENDCHAR
STARTCHAR gcommaaccent
ENCODING 291
SWIDTH 888 0
DWIDTH 34 0
BBX 30 36 2 -8
BITMAP
007FFFF0
01FFFFF0
07FFFFF0
0FFFFFF0
1FFFFFF0
3FC00000
7F000000
7E000000
FC000000
F8000000
F8000000
F8000000
F80FFFFC
F00FFFFC
F00FFFFC
F80FFFFC
F800007C
F800007C
F800007C
7C00007C
7E00007C
3F00007C
3FC0007C
1FFFFFFC
0FFFFFFC
07FFFFFC
01FFFFFC
007FFFFC
00000000
00000000
0007C000
00078000
00038000
00030000
00010000
00010000
ENDCHAR
STARTCHAR Hbar
ENCODING 294
SWIDTH 838 0
DWIDTH 32 0
BBX 27 28 2 0
BITMAP
F80001E0
F80001E0
F80001E0
F80001E0
F80001E0
F87FFFE0
F87FFFE0
F80001E0
F80001E0
F80001E0
F80001E0
F87FFFE0
F87FFFE0
F87FFFE0
F87FFFE0
F87FFFE0
F80001E0
F80001E0
F80001E0
F80001E0
F80001E0
F80001E0
F80001E0
F80001E0
F80001E0
F80001E0
F80001E0
F80001E0
ENDCHAR
STARTCHAR hbar
ENCODING 295
SWIDTH 838 0
DWIDTH 32 0
BBX 27 28 2 0
BITMAP
F80001E0
F80001E0
F80001E0
F80001E0
F80001E0
F87FFFE0
F87FFFE0
F80001E0
F80001E0
F80001E0
F80001E0
F87FFFE0
F87FFFE0
F87FFFE0
F87FFFE0
F87FFFE0
F80001E0
F80001E0
F80001E0
F80001E0
F80001E0
F80001E0
F80001E0
F80001E0
F80001E0
F80001E0
F80001E0
F80001E0
ENDCHAR
STARTCHAR uni012A
ENCODING 298
SWIDTH 267 0
DWIDTH 10 0
BBX 10 33 0 0
BITMAP
FFC0
FFC0
0000
0000
0000
1E00
1E00
1E00
1E00
1E00
1E00
1E00
1E00
1E00
1E00
1E00
1E00
1E00
1E00
1E00
1E00
1E00
1E00
1E00
1E00
1E00
1E00
1E00
1E00
1E00
1E00
1E00
1E00
ENDCHAR
STARTCHAR imacron
ENCODING 299
SWIDTH 267 0
DWIDTH 10 0
BBX 10 33 0 0
BITMAP
FFC0
FFC0
0000
0000
0000
1E00
1E00
1E00
1E00
1E00
1E00
1E00
1E00
1E00
1E00
1E00
1E00
1E00
1E00
1E00
1E00
1E00
1E00
1E00
1E00
1E00
1E00
1E00
1E00
1E00
1E00
1E00
1E00
ENDCHAR
STARTCHAR Ibreve
ENCODING 300
SWIDTH 267 0
DWIDTH 10 0
BBX 10 35 0 0
BITMAP
E0C0
E0C0
E1C0
7F80
3F00
0000
0000
1E00
1E00
1E00
1E00
1E00
1E00
1E00
1E00
1E00
1E00
1E00
1E00
1E00
1E00
1E00
1E00
1E00
1E00
1E00
1E00
1E00
1E00
1E00
1E00
1E00
1E00
1E00
1E00
ENDCHAR
STARTCHAR ibreve
ENCODING 301
SWIDTH 267 0
DWIDTH 10 0
BBX 10 35 0 0
BITMAP
E0C0
E0C0
E1C0
7F80
3F00
0000
0000
1E00
1E00
1E00
1E00
1E00
1E00
1E00
1E00
1E00
1E00
1E00
1E00
1E00
1E00
1E00
1E00
1E00
1E00
1E00
1E00
1E00
1E00
1E00
1E00
1E00
1E00
1E00
1E00
ENDCHAR
STARTCHAR Iogonek
ENCODING 302
SWIDTH 267 0
DWIDTH 10 0
BBX 7 36 0 -8
BITMAP
1E
1E
1E
1E
1E
1E
1E
1E
1E
1E
1E
1E
1E
1E
1E
1E
1E
1E
1E
1E
1E
1E
1E
1E
1E
1E
1E
1E
06
18
30
60
E0
FE
7E
3E
ENDCHAR
STARTCHAR iogonek
ENCODING 303
SWIDTH 267 0
DWIDTH 10 0
BBX 7 36 0 -8
BITMAP
1E
1E
1E
1E
1E
1E
1E
1E
1E
1E
1E
1E
1E
1E
1E
1E
1E
1E
1E
1E
1E
1E
1E
1E
1E
1E
1E
1E
06
18
30
60
E0
FE
7E
3E
ENDCHAR
STARTCHAR Idotaccent
ENCODING 304
SWIDTH 267 0
DWIDTH 10 0
BBX 4 34 3 0
BITMAP
70
F0
70
00
00
00
F0
F0
F0
F0
F0
F0
F0
F0
F0
F0
F0
F0
F0
F0
F0
F0
F0
F0
F0
F0
F0
F0
F0
F0
F0
F0
F0
F0
ENDCHAR
STARTCHAR dotlessi
ENCODING 305
SWIDTH 267 0
DWIDTH 10 0
BBX 4 28 3 0
BITMAP
F0
F0
F0
F0
F0
F0
F0
F0
F0
F0
F0
F0
F0
F0
F0
F0
F0
F0
F0
F0
F0
F0
F0
F0
F0
F0
F0
F0
ENDCHAR
STARTCHAR IJ
ENCODING 306
SWIDTH 975 0
DWIDTH 37 0
BBX 32 28 3 0
BITMAP
F000001F
F000001F
F000001F
F000001F
F000001F
F000001F
F000001F
F000001F
F000001F
F000001F
F000001F
F000001F
F000001F
F000001F
F000001F
F000001F
F000001F
F000001F
F000001F
F000003F
F000003E
F000007E
F00001FE
F0FFFFFC
F0FFFFF8
F0FFFFF0
F0FFFFC0
F0FFFE00
ENDCHAR
STARTCHAR ij
ENCODING 307
SWIDTH 975 0
DWIDTH 37 0
BBX 32 28 3 0
BITMAP
F000001F
F000001F
F000001F
F000001F
F000001F
F000001F
F000001F
F000001F
F000001F
F000001F
F000001F
F000001F
F000001F
F000001F
F000001F
F000001F
F000001F
F000001F
F000001F
F000003F
F000003E
F000007E
F00001FE
F0FFFFFC
F0FFFFF8
F0FFFFF0
F0FFFFC0
F0FFFE00
ENDCHAR
STARTCHAR Kcommaaccent
ENCODING 310
SWIDTH 875 0
DWIDTH 33 0
BBX 31 36 2 -8
BITMAP
F80003FC
F80007F0
F8001FE0
F8003F80
F8007F00
F801FE00
F803F800
F807F000
F80FE000
F83F8000
F87F0000
F8FE0000
F9F80000
F9F00000
F9F80000
F9FC0000
F87F0000
F83F8000
F81FC000
F80FE000
F803F800
F801FC00
F800FE00
F8007F80
F8001FC0
F8000FE0
F80007F8
F80001FE
00000000
00000000
000F8000
00078000
00070000
00030000
00020000
00020000
ENDCHAR
STARTCHAR kcommaaccent
ENCODING 311
SWIDTH 875 0
DWIDTH 33 0
BBX 31 36 2 -8
BITMAP
F80003FC
F80007F0
F8001FE0
F8003F80
F8007F00
F801FE00
F803F800
F807F000
F80FE000
F83F8000
F87F0000
F8FE0000
F9F80000
F9F00000
F9F80000
F9FC0000
F87F0000
F83F8000
F81FC000
F80FE000
F803F800
F801FC00
F800FE00
F8007F80
F8001FC0
F8000FE0
F80007F8
F80001FE
00000000
00000000
000F8000
00078000
00070000
00030000
00020000
00020000
ENDCHAR
STARTCHAR Lacute
ENCODING 313
SWIDTH 707 0
DWIDTH 27 0
BBX 25 35 1 0
BITMAP
00C00000
07C00000
3FC00000
FF000000
F0000000
00000000
00000000
7C000000
7C000000
7C000000
7C000000
7C000000
7C000000
7C000000
7C000000
7C000000
7C000000
7C000000
7C000000
7C000000
7C000000
7C000000
7C000000
7C000000
7C000000
7C000000
7C000000
7C000000
7C000000
7C000000
7FFFFF80
7FFFFF80
7FFFFF80
7FFFFF80
7FFFFF80
ENDCHAR
STARTCHAR lacute
ENCODING 314
SWIDTH 707 0
DWIDTH 27 0
BBX 25 35 1 0
BITMAP
00C00000
07C00000
3FC00000
FF000000
F0000000
00000000
00000000
7C000000
7C000000
7C000000
7C000000
7C000000
7C000000
7C000000
7C000000
7C000000
7C000000
7C000000
7C000000
7C000000
7C000000
7C000000
7C000000
7C000000
7C000000
7C000000
7C000000
7C000000
7C000000
7C000000
7FFFFF80
7FFFFF80
7FFFFF80
7FFFFF80
7FFFFF80
ENDCHAR
STARTCHAR Lcommaaccent
ENCODING 315
SWIDTH 707 0
DWIDTH 27 0
BBX 24 36 2 -8
BITMAP
F80000
F80000
F80000
F80000
F80000
F80000
F80000
F80000
F80000
F80000
F80000
F80000
F80000
F80000
F80000
F80000
F80000
F80000
F80000
F80000
F80000
F80000
F80000
FFFFFF
FFFFFF
FFFFFF
FFFFFF
FFFFFF
000000
000000
003E00
003C00
001C00
001800
001800
000800
ENDCHAR
STARTCHAR lcommaaccent
ENCODING 316
SWIDTH 707 0
DWIDTH 27 0
BBX 24 36 2 -8
BITMAP
F80000
F80000
F80000
F80000
F80000
F80000
F80000
F80000
F80000
F80000
F80000
F80000
F80000
F80000
F80000
F80000
F80000
F80000
F80000
F80000
F80000
F80000
F80000
FFFFFF
FFFFFF
FFFFFF
FFFFFF
FFFFFF
000000
000000
003E00
003C00
001C00
001800
001800
000800
ENDCHAR
STARTCHAR Lcaron
ENCODING 317
SWIDTH 707 0
DWIDTH 27 0
BBX 24 28 2 0
BITMAP
F83E00
F83C00
F83C00
F83C00
F83C00
F83C00
F83800
F83800
F83800
F83800
F80000
F80000
F80000
F80000
F80000
F80000
F80000
F80000
F80000
F80000
F80000
F80000
F80000
FFFFFF
FFFFFF
FFFFFF
FFFFFF
FFFFFF
ENDCHAR
STARTCHAR lcaron
ENCODING 318
SWIDTH 707 0
DWIDTH 27 0
BBX 24 28 2 0
BITMAP
F83E00
F83C00
F83C00
F83C00
F83C00
F83C00
F83800
F83800
F83800
F83800
F80000
F80000
F80000
F80000
F80000
F80000
F80000
F80000
F80000
F80000
F80000
F80000
F80000
FFFFFF
FFFFFF
FFFFFF
FFFFFF
FFFFFF
ENDCHAR
STARTCHAR Ldot
ENCODING 319
SWIDTH 707 0
DWIDTH 27 0
BBX 24 28 2 0
BITMAP
F80000
F80000
F80000
F80000
F80000
F80000
F80000
F80000
F80000
F80000
F80000
F80000
F87000
F87800
F87000
F80000
F80000
F80000
F80000
F80000
F80000
F80000
F80000
FFFFFF
FFFFFF
FFFFFF
FFFFFF
FFFFFF
ENDCHAR
STARTCHAR ldot
ENCODING 320
SWIDTH 707 0
DWIDTH 27 0
BBX 24 28 2 0
BITMAP
F80000
F80000
F80000
F80000
F80000
F80000
F80000
F80000
F80000
F80000
F80000
F80000
F87000
F87800
F87000
F80000
F80000
F80000
F80000
F80000
F80000
F80000
F80000
FFFFFF
FFFFFF
FFFFFF
FFFFFF
FFFFFF
ENDCHAR
STARTCHAR Lslash
ENCODING 321
SWIDTH 707 0
DWIDTH 27 0
BBX 24 28 2 0
BITMAP
F80000
F80000
F80000
F80000
F80000
F80000
F80000
F80000
F80300
F80F00
F83F00
F9FF00
FFFE00
FFF800
FFC000
FF0000
FC0000
F80000
F80000
F80000
F80000
F80000
F80000
FFFFFF
FFFFFF
FFFFFF
FFFFFF
FFFFFF
ENDCHAR
STARTCHAR lslash
ENCODING 322
SWIDTH 707 0
DWIDTH 27 0
BBX 24 28 2 0
BITMAP
F80000
F80000
F80000
F80000
F80000
F80000
F80000
F80000
F80300
F80F00
F83F00
F9FF00
FFFE00
FFF800
FFC000
FF0000
FC0000
F80000
F80000
F80000
F80000
F80000
F80000
FFFFFF
FFFFFF
FFFFFF
FFFFFF
FFFFFF
ENDCHAR
STARTCHAR Nacute
ENCODING 323
SWIDTH 873 0
DWIDTH 33 0
BBX 29 35 2 0
BITMAP
00001800
0000F800
0007F800
001FE000
001C0000
00000000
00000000
700000F8
780000F8
FC0000F8
FE0000F8
FF0000F8
FF8000F8
FFC000F8
FFE000F8
FBF000F8
F9F800F8
F8FC00F8
F87E00F8
F83F00F8
F81F80F8
F80FC0F8
F807E0F8
F803F0F8
F801F8F8
F800FCF8
F8007EF8
F8003FF8
F8001FF8
F8000FF8
F80007F8
F80003F8
F80001F8
F80000F8
F8000070
ENDCHAR
STARTCHAR nacute
ENCODING 324
SWIDTH 873 0
DWIDTH 33 0
BBX 29 35 2 0
BITMAP
00001800
0000F800
0007F800
001FE000
001C0000
00000000
00000000
700000F8
780000F8
FC0000F8
FE0000F8
FF0000F8
FF8000F8
FFC000F8
FFE000F8
FBF000F8
F9F800F8
F8FC00F8
F87E00F8
F83F00F8
F81F80F8
F80FC0F8
F807E0F8
F803F0F8
F801F8F8
F800FCF8
F8007EF8
F8003FF8
F8001FF8
F8000FF8
F80007F8
F80003F8
F80001F8
F80000F8
F8000070
ENDCHAR
STARTCHAR Ncommaaccent
ENCODING 325
SWIDTH 873 0
DWIDTH 33 0
BBX 29 36 2 -8
BITMAP
700000F8
780000F8
FC0000F8
FE0000F8
FF0000F8
FF8000F8
FFC000F8
FFE000F8
FBF000F8
F9F800F8
F8FC00F8
F87E00F8
F83F00F8
F81F80F8
F80FC0F8
F807E0F8
F803F0F8
F801F8F8
F800FCF8
F8007EF8
F8003FF8
F8001FF8
F8000FF8
F80007F8
F80003F8
F80001F8
F80000F8
F8000070
00000000
00000000
000F8000
00070000
00070000
00030000
00020000
00020000
ENDCHAR
STARTCHAR ncommaaccent
ENCODING 326
SWIDTH 873 0
DWIDTH 33 0
BBX 29 36 2 -8
BITMAP
700000F8
780000F8
FC0000F8
FE0000F8
FF0000F8
FF8000F8
FFC000F8
FFE000F8
FBF000F8
F9F800F8
F8FC00F8
F87E00F8
F83F00F8
F81F80F8
F80FC0F8
F807E0F8
F803F0F8
F801F8F8
F800FCF8
F8007EF8
F8003FF8
F8001FF8
F8000FF8
F80007F8
F80003F8
F80001F8
F80000F8
F8000070
00000000
00000000
000F8000
00070000
00070000
00030000
00020000
00020000
ENDCHAR
STARTCHAR Ncaron
ENCODING 327
SWIDTH 873 0
DWIDTH 33 0
BBX 29 35 2 0
BITMAP
00707000
0038E000
0018C000
000D8000
000F8000
00000000
00000000
700000F8
780000F8
FC0000F8
FE0000F8
FF0000F8
FF8000F8
FFC000F8
FFE000F8
FBF000F8
F9F800F8
F8FC00F8
F87E00F8
F83F00F8
F81F80F8
F80FC0F8
F807E0F8
F803F0F8
F801F8F8
F800FCF8
F8007EF8
F8003FF8
F8001FF8
F8000FF8
F80007F8
F80003F8
F80001F8
F80000F8
F8000070
ENDCHAR
STARTCHAR ncaron
ENCODING 328
SWIDTH 873 0
DWIDTH 33 0
BBX 29 35 2 0
BITMAP
00707000
0038E000
0018C000
000D8000
000F8000
00000000
00000000
700000F8
780000F8
FC0000F8
FE0000F8
FF0000F8
FF8000F8
FFC000F8
FFE000F8
FBF000F8
F9F800F8
F8FC00F8
F87E00F8
F83F00F8
F81F80F8
F80FC0F8
F807E0F8
F803F0F8
F801F8F8
F800FCF8
F8007EF8
F8003FF8
F8001FF8
F8000FF8
F80007F8
F80003F8
F80001F8
F80000F8
F8000070
ENDCHAR
STARTCHAR Eng
ENCODING 330
SWIDTH 873 0
DWIDTH 33 0
BBX 29 36 2 -8
BITMAP
700000F8
780000F8
FC0000F8
FE0000F8
FF0000F8
FF8000F8
FFC000F8
FFE000F8
FBF000F8
F9F800F8
F9FC00F8
F8FE00F8
F87F00F8
F83F80F8
F81FC0F8
F80FE0F8
F807F0F8
F803F8F8
F801FCF8
F800FEF8
F8007FF8
F8003FF8
F8001FF8
F8000FF8
F80007F8
F80003F8
F80001F8
F80001F8
000001F0
000003F0
00001FF0
001FFFE0
001FFFC0
001FFF80
001FFE00
001FE000
ENDCHAR
STARTCHAR eng
ENCODING 331
SWIDTH 873 0
DWIDTH 33 0
BBX 29 36 2 -8
BITMAP
700000F8
780000F8
FC0000F8
FE0000F8
FF0000F8
FF8000F8
FFC000F8
FFE000F8
FBF000F8
F9F800F8
F9FC00F8
F8FE00F8
F87F00F8
F83F80F8
F81FC0F8
F80FE0F8
F807F0F8
F803F8F8
F801FCF8
F800FEF8
F8007FF8
F8003FF8
F8001FF8
F8000FF8
F80007F8
F80003F8
F80001F8
F80001F8
000001F0
000003F0
00001FF0
001FFFE0
001FFFC0
001FFF80
001FFE00
001FE000
ENDCHAR
STARTCHAR Omacron
ENCODING 332
SWIDTH 968 0
DWIDTH 37 0
BBX 33 33 2 0
BITMAP
000FF80000
000FF80000
0000000000
0000000000
0000000000
007FFF0000
01FFFFC000
07FFFFF000
0FFFFFF800
1FFFFFFC00
3FC001FE00
7F00007E00
7E00003F00
FC00001F00
F800001F80
F800000F80
F800000F80
F800000F80
F000000F80
F000000F80
F800000F80
F800000F80
F800000F80
F800001F80
7C00001F00
7E00003F00
3F00007E00
3FC001FE00
1FFFFFFC00
0FFFFFF800
07FFFFF000
01FFFFC000
007FFE0000
ENDCHAR
STARTCHAR omacron
ENCODING 333
SWIDTH 968 0
DWIDTH 37 0
BBX 33 33 2 0
BITMAP
000FF80000
000FF80000
0000000000
0000000000
0000000000
007FFF0000
01FFFFC000
07FFFFF000
0FFFFFF800
1FFFFFFC00
3FC001FE00
7F00007E00
7E00003F00
FC00001F00
F800001F80
F800000F80
F800000F80
F800000F80
F000000F80
F000000F80
F800000F80
F800000F80
F800000F80
F800001F80
7C00001F00
7E00003F00
3F00007E00
3FC001FE00
1FFFFFFC00
0FFFFFF800
07FFFFF000
01FFFFC000
007FFE0000
ENDCHAR
STARTCHAR Obreve
ENCODING 334
SWIDTH 968 0
DWIDTH 37 0
BBX 33 35 2 0
BITMAP
001C1C0000
001C180000
000E380000
000FF00000
0007E00000
0000000000
0000000000
007FFF0000
01FFFFC000
07FFFFF000
0FFFFFF800
1FFFFFFC00
3FC001FE00
7F00007E00
7E00003F00
FC00001F00
F800001F80
F800000F80
F800000F80
F800000F80
F000000F80
F000000F80
F800000F80
F800000F80
F800000F80
F800001F80
7C00001F00
7E00003F00
3F00007E00
3FC001FE00
1FFFFFFC00
0FFFFFF800
07FFFFF000
01FFFFC000
007FFE0000
ENDCHAR
STARTCHAR obreve
ENCODING 335
SWIDTH 968 0
DWIDTH 37 0
BBX 33 35 2 0
BITMAP
001C1C0000
001C180000
000E380000
000FF00000
0007E00000
0000000000
0000000000
007FFF0000
01FFFFC000
07FFFFF000
0FFFFFF800
1FFFFFFC00
3FC001FE00
7F00007E00
7E00003F00
FC00001F00
F800001F80
F800000F80
F800000F80
F800000F80
F000000F80
F000000F80
F800000F80
F800000F80
F800000F80
F800001F80
7C00001F00
7E00003F00
3F00007E00
3FC001FE00
1FFFFFFC00
0FFFFFF800
07FFFFF000
01FFFFC000
007FFE0000
ENDCHAR
STARTCHAR Ohungarumlaut
ENCODING 336
SWIDTH 968 0
DWIDTH 37 0
BBX 33 35 2 0
BITMAP
00038E0000
00071C0000
00071C0000
0006180000
000C380000
0000000000
0000000000
007FFF0000
01FFFFC000
07FFFFF000
0FFFFFF800
1FFFFFFC00
3FC001FE00
7F00007E00
7E00003F00
FC00001F00
F800001F80
F800000F80
F800000F80
F800000F80
F000000F80
F000000F80
F800000F80
F800000F80
F800000F80
F800001F80
7C00001F00
7E00003F00
3F00007E00
3FC001FE00
1FFFFFFC00
0FFFFFF800
07FFFFF000
01FFFFC000
007FFE0000
ENDCHAR
STARTCHAR ohungarumlaut
ENCODING 337
SWIDTH 968 0
DWIDTH 37 0
BBX 33 35 2 0
BITMAP
00038E0000
00071C0000
00071C0000
0006180000
000C380000
0000000000
0000000000
007FFF0000
01FFFFC000
07FFFFF000
0FFFFFF800
1FFFFFFC00
3FC001FE00
7F00007E00
7E00003F00
FC00001F00
F800001F80
F800000F80
F800000F80
F800000F80
F000000F80
F000000F80
F800000F80
F800000F80
F800000F80
F800001F80
7C00001F00
7E00003F00
3F00007E00
3FC001FE00
1FFFFFFC00
0FFFFFF800
07FFFFF000
01FFFFC000
007FFE0000
ENDCHAR
STARTCHAR OE
ENCODING 338
SWIDTH 1304 0
DWIDTH 50 0
BBX 46 28 2 0
BITMAP
007FFFFFFFFC
01FFFFFFFFFC
07FFFFFFFFFC
0FFFFFFFFFFC
1FFFFFFFFFFC
3FC003E00000
7F0003E00000
7E0003E00000
FC0003E00000
F80003E00000
F80003E00000
F80003E00000
F80003E3FFF8
F00003E3FFF8
F00003E3FFF8
F80003E3FFF8
F80003E00000
F80003E00000
F80003E00000
7C0003E00000
7E0003E00000
3F0003E00000
3FC003E00000
1FFFFFFFFFFC
0FFFFFFFFFFC
07FFFFFFFFFC
01FFFFFFFFFC
007FFFFFFFFC
ENDCHAR
STARTCHAR oe
ENCODING 339
SWIDTH 1304 0
DWIDTH 50 0
BBX 46 28 2 0
BITMAP
007FFFFFFFFC
01FFFFFFFFFC
07FFFFFFFFFC
0FFFFFFFFFFC
1FFFFFFFFFFC
3FC003E00000
7F0003E00000
7E0003E00000
FC0003E00000
F80003E00000
F80003E00000
F80003E00000
F80003E3FFF8
F00003E3FFF8
F00003E3FFF8
F80003E3FFF8
F80003E00000
F80003E00000
F80003E00000
7C0003E00000
7E0003E00000
3F0003E00000
3FC003E00000
1FFFFFFFFFFC
0FFFFFFFFFFC
07FFFFFFFFFC
01FFFFFFFFFC
007FFFFFFFFC
ENDCHAR
STARTCHAR Racute
ENCODING 340
SWIDTH 921 0
DWIDTH 35 0
BBX 33 35 2 0
BITMAP
0000100000
0001F00000
000FF00000
003FC00000
003C000000
0000000000
0000000000
FFFFFF0000
FFFFFFC000
FFFFFFE000
FFFFFFF000
FFFFFFF800
F80001F800
F80000FC00
F800007C00
F800007C00
F800007C00
F800007C00
F800007C00
F800007C00
F800007C00
F80000FC00
F80001F800
F87FFFF800
F87FFFF000
F87FFFE000
F87FFFC000
F87FFF8000
F8000FC000
F80007E000
F80003F000
F80001F800
F80000FC00
F800007E00
F800003F80
ENDCHAR
STARTCHAR racute
ENCODING 341
SWIDTH 921 0
DWIDTH 35 0
BBX 33 35 2 0
BITMAP
0000100000
0001F00000
000FF00000
003FC00000
003C000000
0000000000
0000000000
FFFFFF0000
FFFFFFC000
FFFFFFE000
FFFFFFF000
FFFFFFF800
F80001F800
F80000FC00
F800007C00
F800007C00
F800007C00
F800007C00
F800007C00
F800007C00
F800007C00
F80000FC00
F80001F800
F87FFFF800
F87FFFF000
F87FFFE000
F87FFFC000
F87FFF8000
F8000FC000
F80007E000
F80003F000
F80001F800
F80000FC00
F800007E00
F800003F80
ENDCHAR
STARTCHAR Rcommaaccent
ENCODING 342
SWIDTH 921 0
DWIDTH 35 0
BBX 33 36 2 -8
BITMAP
FFFFFF0000
FFFFFFC000
FFFFFFE000
FFFFFFF000
FFFFFFF800
F80001F800
F80000FC00
F800007C00
F800007C00
F800007C00
F800007C00
F800007C00
F800007C00
F800007C00
F80000FC00
F80001F800
F87FFFF800
F87FFFF000
F87FFFE000
F87FFFC000
F87FFF8000
F8000FC000
F80007E000
F80003F000
F80001F800
F80000FC00
F800007E00
F800003F80
0000000000
0000000000
0007C00000
0003800000
0003800000
0003800000
0001000000
0001000000
ENDCHAR
STARTCHAR rcommaaccent
ENCODING 343
SWIDTH 921 0
DWIDTH 35 0
BBX 33 36 2 -8
BITMAP
FFFFFF0000
FFFFFFC000
FFFFFFE000
FFFFFFF000
FFFFFFF800
F80001F800
F80000FC00
F800007C00
F800007C00
F800007C00
F800007C00
F800007C00
F800007C00
F800007C00
F80000FC00
F80001F800
F87FFFF800
F87FFFF000
F87FFFE000
F87FFFC000
F87FFF8000
F8000FC000
F80007E000
F80003F000
F80001F800
F80000FC00
F800007E00
F800003F80
0000000000
0000000000
0007C00000
0003800000
0003800000
0003800000
0001000000
0001000000
ENDCHAR
STARTCHAR Rcaron
ENCODING 344
SWIDTH 921 0
DWIDTH 35 0
BBX 33 35 2 0
BITMAP
0070E00000
0030C00000
0039C00000
001F800000
000F000000
0000000000
0000000000
FFFFFF0000
FFFFFFC000
FFFFFFE000
FFFFFFF000
FFFFFFF800
F80001F800
F80000FC00
F800007C00
F800007C00
F800007C00
F800007C00
F800007C00
F800007C00
F800007C00
F80000FC00
F80001F800
F87FFFF800
F87FFFF000
F87FFFE000
F87FFFC000
F87FFF8000
F8000FC000
F80007E000
F80003F000
F80001F800
F80000FC00
F800007E00
F800003F80
ENDCHAR
STARTCHAR rcaron
ENCODING 345
SWIDTH 921 0
DWIDTH 35 0
BBX 33 35 2 0
BITMAP
0070E00000
0030C00000
0039C00000
001F800000
000F000000
0000000000
0000000000
FFFFFF0000
FFFFFFC000
FFFFFFE000
FFFFFFF000
FFFFFFF800
F80001F800
F80000FC00
F800007C00
F800007C00
F800007C00
F800007C00
F800007C00
F800007C00
F800007C00
F80000FC00
F80001F800
F87FFFF800
F87FFFF000
F87FFFE000
F87FFFC000
F87FFF8000
F8000FC000
F80007E000
F80003F000
F80001F800
F80000FC00
F800007E00
F800003F80
ENDCHAR
STARTCHAR Sacute
ENCODING 346
SWIDTH 880 0
DWIDTH 33 0
BBX 30 35 2 0
BITMAP
00001800
0000F800
0007F800
001FE000
001E0000
00000000
00000000
07FFFFF0
1FFFFFF0
3FFFFFF0
7FFFFFF0
7FFFFFF0
FC000000
F8000000
F8000000
F8000000
F8000000
F8000000
7C000000
7FFFFF80
3FFFFFE0
1FFFFFF0
07FFFFF8
000001F8
00000078
0000007C
0000007C
0000007C
0000007C
000000F8
FFFFFFF8
FFFFFFF8
FFFFFFF0
FFFFFFE0
FFFFFF80
ENDCHAR
STARTCHAR sacute
ENCODING 347
SWIDTH 880 0
DWIDTH 33 0
BBX 30 35 2 0
BITMAP
00001800
0000F800
0007F800
001FE000
001E0000
00000000
00000000
07FFFFF0
1FFFFFF0
3FFFFFF0
7FFFFFF0
7FFFFFF0
FC000000
F8000000
F8000000
F8000000
F8000000
F8000000
7C000000
7FFFFF80
3FFFFFE0
1FFFFFF0
07FFFFF8
000001F8
00000078
0000007C
0000007C
0000007C
0000007C
000000F8
FFFFFFF8
FFFFFFF8
FFFFFFF0
FFFFFFE0
FFFFFF80
ENDCHAR
STARTCHAR Scedilla
ENCODING 350
SWIDTH 880 0
DWIDTH 33 0
BBX 30 36 2 -8
BITMAP
07FFFFF0
1FFFFFF0
3FFFFFF0
7FFFFFF0
7FFFFFF0
FC000000
F8000000
F8000000
F8000000
F8000000
F8000000
7C000000
7FFFFF80
3FFFFFE0
1FFFFFF0
07FFFFF8
000001F8
00000078
0000007C
0000007C
0000007C
0000007C
000000F8
FFFFFFF8
FFFFFFF8
FFFFFFF0
FFFFFFE0
FFFFFF80
00000000
00000000
000F8000
00078000
00070000
00030000
00020000
00020000
ENDCHAR
STARTCHAR scedilla
ENCODING 351
SWIDTH 880 0
DWIDTH 33 0
BBX 30 36 2 -8
BITMAP
07FFFFF0
1FFFFFF0
3FFFFFF0
7FFFFFF0
7FFFFFF0
FC000000
F8000000
F8000000
F8000000
F8000000
F8000000
7C000000
7FFFFF80
3FFFFFE0
1FFFFFF0
07FFFFF8
000001F8
00000078
0000007C
0000007C
0000007C
0000007C
000000F8
FFFFFFF8
FFFFFFF8
FFFFFFF0
FFFFFFE0
FFFFFF80
00000000
00000000
000F8000
00078000
00070000
00030000
00020000
00020000
ENDCHAR
STARTCHAR Scaron
ENCODING 352
SWIDTH 880 0
DWIDTH 33 0
BBX 30 35 2 0
BITMAP
00387000
00186000
001CE000
000EC000
00078000
00000000
00000000
07FFFFF0
1FFFFFF0
3FFFFFF0
7FFFFFF0
7FFFFFF0
FC000000
F8000000
F8000000
F8000000
F8000000
F8000000
7C000000
7FFFFF80
3FFFFFE0
1FFFFFF0
07FFFFF8
000001F8
00000078
0000007C
0000007C
0000007C
0000007C
000000F8
FFFFFFF8
FFFFFFF8
FFFFFFF0
FFFFFFE0
FFFFFF80
ENDCHAR
STARTCHAR scaron
ENCODING 353
SWIDTH 880 0
DWIDTH 33 0
BBX 30 35 2 0
BITMAP
00387000
00186000
001CE000
000EC000
00078000
00000000
00000000
07FFFFF0
1FFFFFF0
3FFFFFF0
7FFFFFF0
7FFFFFF0
FC000000
F8000000
F8000000
F8000000
F8000000
F8000000
7C000000
7FFFFF80
3FFFFFE0
1FFFFFF0
07FFFFF8
000001F8
00000078
0000007C
0000007C
0000007C
0000007C
000000F8
FFFFFFF8
FFFFFFF8
FFFFFFF0
FFFFFFE0
FFFFFF80
ENDCHAR
STARTCHAR Tcommaaccent
ENCODING 354
SWIDTH 720 0
DWIDTH 27 0
BBX 26 36 1 -8
BITMAP
FFFFFFC0
FFFFFFC0
FFFFFFC0
FFFFFFC0
FFFFFFC0
003E0000
003E0000
003E0000
003E0000
003E0000
003E0000
003E0000
003E0000
003E0000
003E0000
003E0000
003E0000
003E0000
003E0000
003E0000
003E0000
003E0000
003E0000
003E0000
003E0000
003E0000
003E0000
003E0000
00000000
00000000
003E0000
001E0000
001C0000
000C0000
00080000
00080000
ENDCHAR
STARTCHAR tcommaaccent
ENCODING 355
SWIDTH 720 0
DWIDTH 27 0
BBX 26 36 1 -8
BITMAP
FFFFFFC0
FFFFFFC0
FFFFFFC0
FFFFFFC0
FFFFFFC0
003E0000
003E0000
003E0000
003E0000
003E0000
003E0000
003E0000
003E0000
003E0000
003E0000
003E0000
003E0000
003E0000
003E0000
003E0000
003E0000
003E0000
003E0000
003E0000
003E0000
003E0000
003E0000
003E0000
00000000
00000000
003E0000
001E0000
001C0000
000C0000
00080000
00080000
ENDCHAR
STARTCHAR Tcaron
ENCODING 356
SWIDTH 720 0
DWIDTH 27 0
BBX 26 35 1 0
BITMAP
01C1C000
00E38000
00730000
00370000
003E0000
00000000
00000000
FFFFFFC0
FFFFFFC0
FFFFFFC0
FFFFFFC0
FFFFFFC0
003E0000
003E0000
003E0000
003E0000
003E0000
003E0000
003E0000
003E0000
003E0000
003E0000
003E0000
003E0000
003E0000
003E0000
003E0000
003E0000
003E0000
003E0000
003E0000
003E0000
003E0000
003E0000
003E0000
ENDCHAR
STARTCHAR tcaron
ENCODING 357
SWIDTH 720 0
DWIDTH 27 0
BBX 26 35 1 0
BITMAP
01C1C000
00E38000
00730000
00370000
003E0000
00000000
00000000
FFFFFFC0
FFFFFFC0
FFFFFFC0
FFFFFFC0
FFFFFFC0
003E0000
003E0000
003E0000
003E0000
003E0000
003E0000
003E0000
003E0000
003E0000
003E0000
003E0000
003E0000
003E0000
003E0000
003E0000
003E0000
003E0000
003E0000
003E0000
003E0000
003E0000
003E0000
003E0000
ENDCHAR
STARTCHAR Tbar
ENCODING 358
SWIDTH 720 0
DWIDTH 27 0
BBX 26 28 1 0
BITMAP
FFFFFFC0
FFFFFFC0
FFFFFFC0
FFFFFFC0
FFFFFFC0
003E0000
003E0000
003E0000
003E0000
003E0000
003E0000
003E0000
003E0000
003E0000
003E0000
03FFF000
03FFF000
03FFF000
003E0000
003E0000
003E0000
003E0000
003E0000
003E0000
003E0000
003E0000
003E0000
003E0000
ENDCHAR
STARTCHAR tbar
ENCODING 359
SWIDTH 720 0
DWIDTH 27 0
BBX 26 28 1 0
BITMAP
FFFFFFC0
FFFFFFC0
FFFFFFC0
FFFFFFC0
FFFFFFC0
003E0000
003E0000
003E0000
003E0000
003E0000
003E0000
003E0000
003E0000
003E0000
003E0000
03FFF000
03FFF000
03FFF000
003E0000
003E0000
003E0000
003E0000
003E0000
003E0000
003E0000
003E0000
003E0000
003E0000
ENDCHAR
STARTCHAR Utilde
ENCODING 360
SWIDTH 889 0
DWIDTH 34 0
BBX 30 35 2 0
BITMAP
001C1000
003F1000
0023F000
0020E000
00000000
00000000
00000000
F800007C
F800007C
F800007C
F800007C
F800007C
F800007C
F800007C
F800007C
F800007C
F800007C
F800007C
F800007C
F800007C
F800007C
F800007C
F800007C
F800007C
F800007C
F800007C
FC0000F8
7C0000F8
7E0001F8
7FC00FF0
3FFFFFF0
1FFFFFE0
0FFFFFC0
03FFFF00
007FF800
ENDCHAR
STARTCHAR utilde
ENCODING 361
SWIDTH 889 0
DWIDTH 34 0
BBX 30 35 2 0
BITMAP
001C1000
003F1000
0023F000
0020E000
00000000
00000000
00000000
F800007C
F800007C
F800007C
F800007C
F800007C
F800007C
F800007C
F800007C
F800007C
F800007C
F800007C
F800007C
F800007C
F800007C
F800007C
F800007C
F800007C
F800007C
F800007C
FC0000F8
7C0000F8
7E0001F8
7FC00FF0
3FFFFFF0
1FFFFFE0
0FFFFFC0
03FFFF00
007FF800
ENDCHAR
STARTCHAR Umacron
ENCODING 362
SWIDTH 889 0
DWIDTH 34 0
BBX 30 33 2 0
BITMAP
003FF000
003FF000
00000000
00000000
00000000
F800007C
F800007C
F800007C
F800007C
F800007C
F800007C
F800007C
F800007C
F800007C
F800007C
F800007C
F800007C
F800007C
F800007C
F800007C
F800007C
F800007C
F800007C
F800007C
FC0000F8
7C0000F8
7E0001F8
7FC00FF0
3FFFFFF0
1FFFFFE0
0FFFFFC0
03FFFF00
007FF800
ENDCHAR
STARTCHAR umacron
ENCODING 363
SWIDTH 889 0
DWIDTH 34 0
BBX 30 33 2 0
BITMAP
003FF000
003FF000
00000000
00000000
00000000
F800007C
F800007C
F800007C
F800007C
F800007C
F800007C
F800007C
F800007C
F800007C
F800007C
F800007C
F800007C
F800007C
F800007C
F800007C
F800007C
F800007C
F800007C
F800007C
FC0000F8
7C0000F8
7E0001F8
7FC00FF0
3FFFFFF0
1FFFFFE0
0FFFFFC0
03FFFF00
007FF800
ENDCHAR
STARTCHAR Ubreve
ENCODING 364
SWIDTH 889 0
DWIDTH 34 0
BBX 30 35 2 0
BITMAP
00307000
00307000
00387000
001FE000
000FC000
00000000
00000000
F800007C
F800007C
F800007C
F800007C
F800007C
F800007C
F800007C
F800007C
F800007C
F800007C
F800007C
F800007C
F800007C
F800007C
F800007C
F800007C
F800007C
F800007C
F800007C
FC0000F8
7C0000F8
7E0001F8
7FC00FF0
3FFFFFF0
1FFFFFE0
0FFFFFC0
03FFFF00
007FF800
ENDCHAR
STARTCHAR ubreve
ENCODING 365
SWIDTH 889 0
DWIDTH 34 0
BBX 30 35 2 0
BITMAP
00307000
00307000
00387000
001FE000
000FC000
00000000
00000000
F800007C
F800007C
F800007C
F800007C
F800007C
F800007C
F800007C
F800007C
F800007C
F800007C
F800007C
F800007C
F800007C
F800007C
F800007C
F800007C
F800007C
F800007C
F800007C
FC0000F8
7C0000F8
7E0001F8
7FC00FF0
3FFFFFF0
1FFFFFE0
0FFFFFC0
03FFFF00
007FF800
ENDCHAR
STARTCHAR Uring
ENCODING 366
SWIDTH 889 0
DWIDTH 34 0
BBX 30 38 2 0
BITMAP
000FC000
00186000
00302000
00203000
00203000
00303000
00106000
000FC000
00000000
00000000
F800007C
F800007C
F800007C
F800007C
F800007C
F800007C
F800007C
F800007C
F800007C
F800007C
F800007C
F800007C
F800007C
F800007C
F800007C
F800007C
F800007C
F800007C
F800007C
FC0000F8
7C0000F8
7E0001F8
7FC00FF0
3FFFFFF0
1FFFFFE0
0FFFFFC0
03FFFF00
007FF800
ENDCHAR
STARTCHAR uring
ENCODING 367
SWIDTH 889 0
DWIDTH 34 0
BBX 30 38 2 0
BITMAP
000FC000
00186000
00302000
00203000
00203000
00303000
00106000
000FC000
00000000
00000000
F800007C
F800007C
F800007C
F800007C
F800007C
F800007C
F800007C
F800007C
F800007C
F800007C
F800007C
F800007C
F800007C
F800007C
F800007C
F800007C
F800007C
F800007C
F800007C
FC0000F8
7C0000F8
7E0001F8
7FC00FF0
3FFFFFF0
1FFFFFE0
0FFFFFC0
03FFFF00
007FF800
ENDCHAR
STARTCHAR Uhungarumlaut
ENCODING 368
SWIDTH 889 0
DWIDTH 34 0
BBX 30 35 2 0
BITMAP
000F3C00
000E3800
000C3000
001C7000
00186000
00000000
00000000
F800007C
F800007C
F800007C
F800007C
F800007C
F800007C
F800007C
F800007C
F800007C
F800007C
F800007C
F800007C
F800007C
F800007C
F800007C
F800007C
F800007C
F800007C
F800007C
FC0000F8
7C0000F8
7E0001F8
7FC00FF0
3FFFFFF0
1FFFFFE0
0FFFFFC0
03FFFF00
007FF800
ENDCHAR
STARTCHAR uhungarumlaut
ENCODING 369
SWIDTH 889 0
DWIDTH 34 0
BBX 30 35 2 0
BITMAP
000F3C00
000E3800
000C3000
001C7000
00186000
00000000
00000000
F800007C
F800007C
F800007C
F800007C
F800007C
F800007C
F800007C
F800007C
F800007C
F800007C
F800007C
F800007C
F800007C
F800007C
F800007C
F800007C
F800007C
F800007C
F800007C
FC0000F8
7C0000F8
7E0001F8
7FC00FF0
3FFFFFF0
1FFFFFE0
0FFFFFC0
03FFFF00
007FF800
ENDCHAR
STARTCHAR Uogonek
ENCODING 370
SWIDTH 889 0
DWIDTH 34 0
BBX 30 35 2 -7
BITMAP
F800007C
F800007C
F800007C
F800007C
F800007C
F800007C
F800007C
F800007C
F800007C
F800007C
F800007C
F800007C
F800007C
F800007C
F800007C
F800007C
F800007C
F800007C
F800007C
FC0000F8
7C0000F8
7E0001F8
7FC00FF0
3FFFFFF0
1FFFFFE0
0FFFFFC0
03FFFF00
007FF000
00018000
00070000
000C0000
001C0000
001FC000
000FC000
0007C000
ENDCHAR
STARTCHAR uogonek
ENCODING 371
SWIDTH 889 0
DWIDTH 34 0
BBX 30 35 2 -7
BITMAP
F800007C
F800007C
F800007C
F800007C
F800007C
F800007C
F800007C
F800007C
F800007C
F800007C
F800007C
F800007C
F800007C
F800007C
F800007C
F800007C
F800007C
F800007C
F800007C
FC0000F8
7C0000F8
7E0001F8
7FC00FF0
3FFFFFF0
1FFFFFE0
0FFFFFC0
03FFFF00
007FF000
00018000
00070000
000C0000
001C0000
001FC000
000FC000
0007C000
ENDCHAR
STARTCHAR Wcircumflex
ENCODING 372
SWIDTH 1268 0
DWIDTH 48 0
BBX 47 35 1 0
BITMAP
000007800000
00000FC00000
00001CE00000
000018600000
000038700000
000000000000
000000000000
FC07F000007E
FC03F00000FC
7E01F80000F8
7E01F80001F8
3F00FC0001F0
3F00FC0003F0
1F807E0003E0
0F807E0007E0
0FC03F0007C0
07C03F000FC0
07E01F800F80
03E01F801F00
03F00FC01F00
01F007C03E00
01F80FE03E00
00F80FE07C00
00FC1FF0FC00
007E1FF0F800
007E3FF9F800
003F7EF9F000
001F7CFFF000
001FF87FE000
000FF87FC000
000FF03FC000
0007F03F8000
0007E01F8000
0003E01F0000
0001C00E0000
ENDCHAR
STARTCHAR wcircumflex
ENCODING 373
SWIDTH 1268 0
DWIDTH 48 0
BBX 47 35 1 0
BITMAP
000007800000
00000FC00000
00001CE00000
000018600000
000038700000
000000000000
000000000000
FC07F000007E
FC03F00000FC
7E01F80000F8
7E01F80001F8
3F00FC0001F0
3F00FC0003F0
1F807E0003E0
0F807E0007E0
0FC03F0007C0
07C03F000FC0
07E01F800F80
03E01F801F00
03F00FC01F00
01F007C03E00
01F80FE03E00
00F80FE07C00
00FC1FF0FC00
007E1FF0F800
007E3FF9F800
003F7EF9F000
001F7CFFF000
001FF87FE000
000FF87FC000
000FF03FC000
0007F03F8000
0007E01F8000
0003E01F0000
0001C00E0000
ENDCHAR
STARTCHAR Ycircumflex
ENCODING 374
SWIDTH 926 0
DWIDTH 35 0
BBX 35 35 0 0
BITMAP
0000F00000
0001B80000
0003980000
00071C0000
00060E0000
0000000000
0000000000
FE00000FE0
3F00001F80
1F80003F80
1FC0003F00
0FE0007E00
07F000FC00
03F001F800
01F803F000
00FC07F000
007E07E000
007F0FC000
003F9F8000
001FBF0000
000FFE0000
0007FC0000
0003FC0000
0003F80000
0001F00000
0001F00000
0001F00000
0001F00000
0001F00000
0001F00000
0001F00000
0001F00000
0001F00000
0001F00000
0001F00000
ENDCHAR
STARTCHAR ycircumflex
ENCODING 375
SWIDTH 926 0
DWIDTH 35 0
BBX 35 35 0 0
BITMAP
0000F00000
0001B80000
0003980000
00071C0000
00060E0000
0000000000
0000000000
FE00000FE0
3F00001F80
1F80003F80
1FC0003F00
0FE0007E00
07F000FC00
03F001F800
01F803F000
00FC07F000
007E07E000
007F0FC000
003F9F8000
001FBF0000
000FFE0000
0007FC0000
0003FC0000
0003F80000
0001F00000
0001F00000
0001F00000
0001F00000
0001F00000
0001F00000
0001F00000
0001F00000
0001F00000
0001F00000
0001F00000
ENDCHAR
STARTCHAR Ydieresis
ENCODING 376
SWIDTH 926 0
DWIDTH 35 0
BBX 35 34 0 0
BITMAP
00070E0000
000F1E0000
00070E0000
0000000000
0000000000
0000000000
FE00000FE0
3F00001F80
1F80003F80
1FC0003F00
0FE0007E00
07F000FC00
03F001F800
01F803F000
00FC07F000
007E07E000
007F0FC000
003F9F8000
001FBF0000
000FFE0000
0007FC0000
0003FC0000
0003F80000
0001F00000
0001F00000
0001F00000
0001F00000
0001F00000
0001F00000
0001F00000
0001F00000
0001F00000
0001F00000
0001F00000
ENDCHAR
STARTCHAR Zacute
ENCODING 377
SWIDTH 802 0
DWIDTH 30 0
BBX 27 35 2 0
BITMAP
00002000
0001E000
001FE000
003FC000
00380000
00000000
00000000
FFFFFFC0
FFFFFFE0
FFFFFFE0
FFFFFFE0
FFFFFFC0
00003F80
00007F00
0000FE00
0001FC00
0003F800
0007F000
000FE000
001FC000
003F8000
007F0000
00FE0000
01FC0000
03F80000
07F00000
0FE00000
1FC00000
3F800000
7F000000
FFFFFFE0
FFFFFFE0
FFFFFFE0
FFFFFFE0
7FFFFFE0
ENDCHAR
STARTCHAR zacute
ENCODING 378
SWIDTH 802 0
DWIDTH 30 0
BBX 27 35 2 0
BITMAP
00002000
0001E000
001FE000
003FC000
00380000
00000000
00000000
FFFFFFC0
FFFFFFE0
FFFFFFE0
FFFFFFE0
FFFFFFC0
00003F80
00007F00
0000FE00
0001FC00
0003F800
0007F000
000FE000
001FC000
003F8000
007F0000
00FE0000
01FC0000
03F80000
07F00000
0FE00000
1FC00000
3F800000
7F000000
FFFFFFE0
FFFFFFE0
FFFFFFE0
FFFFFFE0
7FFFFFE0
ENDCHAR
STARTCHAR Zdotaccent
ENCODING 379
SWIDTH 802 0
DWIDTH 30 0
BBX 27 34 2 0
BITMAP
000E0000
001E0000
000E0000
00000000
00000000
00000000
FFFFFFC0
FFFFFFE0
FFFFFFE0
FFFFFFE0
FFFFFFC0
00003F80
00007F00
0000FE00
0001FC00
0003F800
0007F000
000FE000
001FC000
003F8000
007F0000
00FE0000
01FC0000
03F80000
07F00000
0FE00000
1FC00000
3F800000
7F000000
FFFFFFE0
FFFFFFE0
FFFFFFE0
FFFFFFE0
7FFFFFE0
ENDCHAR
STARTCHAR zdotaccent
ENCODING 380
SWIDTH 802 0
DWIDTH 30 0
BBX 27 34 2 0
BITMAP
000E0000
001E0000
000E0000
00000000
00000000
00000000
FFFFFFC0
FFFFFFE0
FFFFFFE0
FFFFFFE0
FFFFFFC0
00003F80
00007F00
0000FE00
0001FC00
0003F800
0007F000
000FE000
001FC000
003F8000
007F0000
00FE0000
01FC0000
03F80000
07F00000
0FE00000
1FC00000
3F800000
7F000000
FFFFFFE0
FFFFFFE0
FFFFFFE0
FFFFFFE0
7FFFFFE0
ENDCHAR
STARTCHAR Zcaron
ENCODING 381
SWIDTH 802 0
DWIDTH 30 0
BBX 27 35 2 0
BITMAP
00C1C000
00618000
00730000
00370000
001E0000
00000000
00000000
FFFFFFC0
FFFFFFE0
FFFFFFE0
FFFFFFE0
FFFFFFC0
00003F80
00007F00
0000FE00
0001FC00
0003F800
0007F000
000FE000
001FC000
003F8000
007F0000
00FE0000
01FC0000
03F80000
07F00000
0FE00000
1FC00000
3F800000
7F000000
FFFFFFE0
FFFFFFE0
FFFFFFE0
FFFFFFE0
7FFFFFE0
ENDCHAR
STARTCHAR zcaron
ENCODING 382
SWIDTH 802 0
DWIDTH 30 0
BBX 27 35 2 0
BITMAP
00C1C000
00618000
00730000
00370000
001E0000
00000000
00000000
FFFFFFC0
FFFFFFE0
FFFFFFE0
FFFFFFE0
FFFFFFC0
00003F80
00007F00
0000FE00
0001FC00
0003F800
0007F000
000FE000
001FC000
003F8000
007F0000
00FE0000
01FC0000
03F80000
07F00000
0FE00000
1FC00000
3F800000
7F000000
FFFFFFE0
FFFFFFE0
FFFFFFE0
FFFFFFE0
7FFFFFE0
ENDCHAR
STARTCHAR Scommaaccent
ENCODING 536
SWIDTH 880 0
DWIDTH 33 0
BBX 30 36 2 -8
BITMAP
07FFFFF0
1FFFFFF0
3FFFFFF0
7FFFFFF0
7FFFFFF0
FC000000
F8000000
F8000000
F8000000
F8000000
F8000000
7C000000
7FFFFF80
3FFFFFE0
1FFFFFF0
07FFFFF8
000001F8
00000078
0000007C
0000007C
0000007C
0000007C
000000F8
FFFFFFF8
FFFFFFF8
FFFFFFF0
FFFFFFE0
FFFFFF80
00000000
00000000
000F8000
00078000
00070000
00030000
00020000
00020000
ENDCHAR
STARTCHAR scommaaccent
ENCODING 537
SWIDTH 880 0
DWIDTH 33 0
BBX 30 36 2 -8
BITMAP
07FFFFF0
1FFFFFF0
3FFFFFF0
7FFFFFF0
7FFFFFF0
FC000000
F8000000
F8000000
F8000000
F8000000
F8000000
7C000000
7FFFFF80
3FFFFFE0
1FFFFFF0
07FFFFF8
000001F8
00000078
0000007C
0000007C
0000007C
0000007C
000000F8
FFFFFFF8
FFFFFFF8
FFFFFFF0
FFFFFFE0
FFFFFF80
00000000
00000000
000F8000
00078000
00070000
00030000
00020000
00020000
ENDCHAR
STARTCHAR uni021A
ENCODING 538
SWIDTH 720 0
DWIDTH 27 0
BBX 26 36 1 -8
BITMAP
FFFFFFC0
FFFFFFC0
FFFFFFC0
FFFFFFC0
FFFFFFC0
003E0000
003E0000
003E0000
003E0000
003E0000
003E0000
003E0000
003E0000
003E0000
003E0000
003E0000
003E0000
003E0000
003E0000
003E0000
003E0000
003E0000
003E0000
003E0000
003E0000
003E0000
003E0000
003E0000
00000000
00000000
003E0000
001E0000
001C0000
000C0000
00080000
00080000
ENDCHAR
STARTCHAR uni021B
ENCODING 539
SWIDTH 720 0
DWIDTH 27 0
BBX 26 36 1 -8
BITMAP
FFFFFFC0
FFFFFFC0
FFFFFFC0
FFFFFFC0
FFFFFFC0
003E0000
003E0000
003E0000
003E0000
003E0000
003E0000
003E0000
003E0000
003E0000
003E0000
003E0000
003E0000
003E0000
003E0000
003E0000
003E0000
003E0000
003E0000
003E0000
003E0000
003E0000
003E0000
003E0000
00000000
00000000
003E0000
001E0000
001C0000
000C0000
00080000
00080000
ENDCHAR
STARTCHAR circumflex
ENCODING 710
SWIDTH 379 0
DWIDTH 14 0
BBX 10 5 2 30
BITMAP
1E00
3B00
3380
61C0
E0C0
ENDCHAR
STARTCHAR caron
ENCODING 711
SWIDTH 379 0
DWIDTH 14 0
BBX 10 5 2 30
BITMAP
E0C0
6180
3380
3B00
1E00
ENDCHAR
STARTCHAR breve
ENCODING 728
SWIDTH 382 0
DWIDTH 15 0
BBX 11 5 2 30
BITMAP
E0E0
E0C0
61C0
7F80
3F00
ENDCHAR
STARTCHAR dotaccent
ENCODING 729
SWIDTH 208 0
DWIDTH 8 0
BBX 4 3 2 31
BITMAP
E0
F0
E0
ENDCHAR
STARTCHAR ring
ENCODING 730
SWIDTH 362 0
DWIDTH 14 0
BBX 10 8 2 30
BITMAP
3F00
6180
C080
80C0
80C0
C0C0
4180
3F00
ENDCHAR
STARTCHAR ogonek
ENCODING 731
SWIDTH 234 0
DWIDTH 9 0
BBX 7 8 1 -8
BITMAP
06
18
30
E0
E0
FE
FE
7E
ENDCHAR
STARTCHAR tilde
ENCODING 732
SWIDTH 362 0
DWIDTH 14 0
BBX 10 4 2 31
BITMAP
7040
FC40
8FC0
8380
ENDCHAR
STARTCHAR hungarumlaut
ENCODING 733
SWIDTH 399 0
DWIDTH 15 0
BBX 11 5 2 30
BITMAP
38E0
71C0
71C0
6180
C300
ENDCHAR
STARTCHAR commaaccent
ENCODING 806
SWIDTH 219 0
DWIDTH 8 0
BBX 5 6 2 -8
BITMAP
F8
F0
70
60
20
20
ENDCHAR
STARTCHAR Wgrave
ENCODING 7808
SWIDTH 1268 0
DWIDTH 48 0
BBX 47 35 1 0
BITMAP
000040000000
00007C000000
00007F800000
00001FE00000
000001E00000
000000000000
000000000000
FC07F000007E
FC03F00000FC
7E01F80000F8
7E01F80001F8
3F00FC0001F0
3F00FC0003F0
1F807E0003E0
0F807E0007E0
0FC03F0007C0
07C03F000FC0
07E01F800F80
03E01F801F00
03F00FC01F00
01F007C03E00
01F80FE03E00
00F80FE07C00
00FC1FF0FC00
007E1FF0F800
007E3FF9F800
003F7EF9F000
001F7CFFF000
001FF87FE000
000FF87FC000
000FF03FC000
0007F03F8000
0007E01F8000
0003E01F0000
0001C00E0000
ENDCHAR
STARTCHAR wgrave
ENCODING 7809
SWIDTH 1268 0
DWIDTH 48 0
BBX 47 35 1 0
BITMAP
000040000000
00007C000000
00007F800000
00001FE00000
000001E00000
000000000000
000000000000
FC07F000007E
FC03F00000FC
7E01F80000F8
7E01F80001F8
3F00FC0001F0
3F00FC0003F0
1F807E0003E0
0F807E0007E0
0FC03F0007C0
07C03F000FC0
07E01F800F80
03E01F801F00
03F00FC01F00
01F007C03E00
01F80FE03E00
00F80FE07C00
00FC1FF0FC00
007E1FF0F800
007E3FF9F800
003F7EF9F000
001F7CFFF000
001FF87FE000
000FF87FC000
000FF03FC000
0007F03F8000
0007E01F8000
0003E01F0000
0001C00E0000
ENDCHAR
STARTCHAR Wacute
ENCODING 7810
SWIDTH 1268 0
DWIDTH 48 0
BBX 47 35 1 0
BITMAP
000000080000
000000780000
000007F80000
00001FF00000
00001E000000
000000000000
000000000000
FC07F000007E
FC03F00000FC
7E01F80000F8
7E01F80001F8
3F00FC0001F0
3F00FC0003F0
1F807E0003E0
0F807E0007E0
0FC03F0007C0
07C03F000FC0
07E01F800F80
03E01F801F00
03F00FC01F00
01F007C03E00
01F80FE03E00
00F80FE07C00
00FC1FF0FC00
007E1FF0F800
007E3FF9F800
003F7EF9F000
001F7CFFF000
001FF87FE000
000FF87FC000
000FF03FC000
0007F03F8000
0007E01F8000
0003E01F0000
0001C00E0000
ENDCHAR
STARTCHAR wacute
ENCODING 7811
SWIDTH 1268 0
DWIDTH 48 0
BBX 47 35 1 0
BITMAP
000000080000
000000780000
000007F80000
00001FF00000
00001E000000
000000000000
000000000000
FC07F000007E
FC03F00000FC
7E01F80000F8
7E01F80001F8
3F00FC0001F0
3F00FC0003F0
1F807E0003E0
0F807E0007E0
0FC03F0007C0
07C03F000FC0
07E01F800F80
03E01F801F00
03F00FC01F00
01F007C03E00
01F80FE03E00
00F80FE07C00
00FC1FF0FC00
007E1FF0F800
007E3FF9F800
003F7EF9F000
001F7CFFF000
001FF87FE000
000FF87FC000
000FF03FC000
0007F03F8000
0007E01F8000
0003E01F0000
0001C00E0000
ENDCHAR
STARTCHAR Wdieresis
ENCODING 7812
SWIDTH 1268 0
DWIDTH 48 0
BBX 47 34 1 0
BITMAP
000038700000
00003C780000
000038700000
000000000000
000000000000
000000000000
FC07F000007E
FC03F00000FC
7E01F80000F8
7E01F80001F8
3F00FC0001F0
3F00FC0003F0
1F807E0003E0
0F807E0007E0
0FC03F0007C0
07C03F000FC0
07E01F800F80
03E01F801F00
03F00FC01F00
01F007C03E00
01F80FE03E00
00F80FE07C00
00FC1FF0FC00
007E1FF0F800
007E3FF9F800
003F7EF9F000
001F7CFFF000
001FF87FE000
000FF87FC000
000FF03FC000
0007F03F8000
0007E01F8000
0003E01F0000
0001C00E0000
ENDCHAR
STARTCHAR wdieresis
ENCODING 7813
SWIDTH 1268 0
DWIDTH 48 0
BBX 47 34 1 0
BITMAP
000038700000
00003C780000
000038700000
000000000000
000000000000
000000000000
FC07F000007E
FC03F00000FC
7E01F80000F8
7E01F80001F8
3F00FC0001F0
3F00FC0003F0
1F807E0003E0
0F807E0007E0
0FC03F0007C0
07C03F000FC0
07E01F800F80
03E01F801F00
03F00FC01F00
01F007C03E00
01F80FE03E00
00F80FE07C00
00FC1FF0FC00
007E1FF0F800
007E3FF9F800
003F7EF9F000
001F7CFFF000
001FF87FE000
000FF87FC000
000FF03FC000
0007F03F8000
0007E01F8000
0003E01F0000
0001C00E0000
ENDCHAR
STARTCHAR Ygrave
ENCODING 7922
SWIDTH 926 0
DWIDTH 35 0
BBX 35 35 0 0
BITMAP
0008000000
000F000000
000FF00000
0007F80000
0000380000
0000000000
0000000000
FE00000FE0
3F00001F80
1F80003F80
1FC0003F00
0FE0007E00
07F000FC00
03F001F800
01F803F000
00FC07F000
007E07E000
007F0FC000
003F9F8000
001FBF0000
000FFE0000
0007FC0000
0003FC0000
0003F80000
0001F00000
0001F00000
0001F00000
0001F00000
0001F00000
0001F00000
0001F00000
0001F00000
0001F00000
0001F00000
0001F00000
ENDCHAR
STARTCHAR ygrave
ENCODING 7923
SWIDTH 926 0
DWIDTH 35 0
BBX 35 35 0 0
BITMAP
0008000000
000F000000
000FF00000
0007F80000
0000380000
0000000000
0000000000
FE00000FE0
3F00001F80
1F80003F80
1FC0003F00
0FE0007E00
07F000FC00
03F001F800
01F803F000
00FC07F000
007E07E000
007F0FC000
003F9F8000
001FBF0000
000FFE0000
0007FC0000
0003FC0000
0003F80000
0001F00000
0001F00000
0001F00000
0001F00000
0001F00000
0001F00000
0001F00000
0001F00000
0001F00000
0001F00000
0001F00000
ENDCHAR
STARTCHAR endash
ENCODING 8211
SWIDTH 590 0
DWIDTH 22 0
BBX 20 4 1 12
BITMAP
FFFFF0
FFFFF0
FFFFF0
FFFFF0
ENDCHAR
STARTCHAR emdash
ENCODING 8212
SWIDTH 866 0
DWIDTH 33 0
BBX 31 4 1 12
BITMAP
FFFFFFFE
FFFFFFFE
FFFFFFFE
FFFFFFFE
ENDCHAR
STARTCHAR quoteleft
ENCODING 8216
SWIDTH 259 0
DWIDTH 10 0
BBX 5 10 2 18
BITMAP
F8
78
78
78
78
78
38
38
38
38
ENDCHAR
STARTCHAR quoteright
ENCODING 8217
SWIDTH 259 0
DWIDTH 10 0
BBX 4 10 3 18
BITMAP
F0
F0
F0
F0
F0
E0
E0
E0
E0
E0
ENDCHAR
STARTCHAR quotesinglbase
ENCODING 8218
SWIDTH 259 0
DWIDTH 10 0
BBX 4 10 3 -5
BITMAP
F0
F0
F0
F0
F0
E0
E0
E0
E0
E0
ENDCHAR
STARTCHAR quotedblleft
ENCODING 8220
SWIDTH 462 0
DWIDTH 18 0
BBX 14 10 2 18
BITMAP
F8FC
787C
787C
787C
787C
783C
383C
383C
383C
383C
ENDCHAR
STARTCHAR quotedblright
ENCODING 8221
SWIDTH 462 0
DWIDTH 18 0
BBX 13 10 3 18
BITMAP
F0F8
F0F0
F0F0
F0F0
F0F0
E0F0
E0E0
E0E0
E0E0
E0E0
ENDCHAR
STARTCHAR quotedblbase
ENCODING 8222
SWIDTH 462 0
DWIDTH 18 0
BBX 13 10 3 -5
BITMAP
F0F8
F0F0
F0F0
F0F0
F0F0
E0F0
E0E0
E0E0
E0E0
E0E0
ENDCHAR
STARTCHAR dagger
ENCODING 8224
SWIDTH 466 0
DWIDTH 18 0
BBX 13 28 2 0
BITMAP
0300
0300
0300
0300
0300
0300
FFF8
FFF8
0300
0300
0300
0300
0300
0300
0300
0300
0300
0300
0300
0300
0300
0300
0300
0300
0300
0300
0300
0300
ENDCHAR
STARTCHAR daggerdbl
ENCODING 8225
SWIDTH 466 0
DWIDTH 18 0
BBX 13 28 2 0
BITMAP
0300
0300
0300
0300
0300
0300
FFF8
FFF8
0300
0300
0300
0300
0300
0300
0300
0300
0300
0300
0300
0300
FFF8
FFF8
0300
0300
0300
0300
0300
0300
ENDCHAR
STARTCHAR bullet
ENCODING 8226
SWIDTH 413 0
DWIDTH 16 0
BBX 11 11 2 9
BITMAP
0F00
3FC0
7FC0
7FE0
FFE0
FFE0
FFE0
7FE0
7FC0
3FC0
0F00
ENDCHAR
STARTCHAR ellipsis
ENCODING 8230
SWIDTH 1310 0
DWIDTH 50 0
BBX 45 5 2 0
BITMAP
300007000070
7800078000F8
FC000F8000F8
78000F8000F8
780007000070
ENDCHAR
STARTCHAR perthousand
ENCODING 8240
SWIDTH 1314 0
DWIDTH 50 0
BBX 46 33 2 -3
BITMAP
000000380000
000000700000
0FC000E00000
3FF001C00000
707003C00000
E03803800000
C01C07000000
C01C0E000000
C01C1E000000
C01C1C000000
C01C38000000
E01870000000
6038F0000000
7870E0000000
3FE1C0000000
0F8380000000
000700000000
000F0FC00FC0
000E3FF03FF0
001C78787878
0038E038701C
0078E01CE01C
0070C01CE00C
00E0C00CC00C
01C0C00CC00C
03C0C01CE00C
0380E01C601C
070060387018
0E0078703878
1E003FE01FF0
3C000F8007C0
380000000000
700000000000
ENDCHAR
STARTCHAR guilsinglleft
ENCODING 8249
SWIDTH 367 0
DWIDTH 14 0
BBX 10 14 2 7
BITMAP
0040
01C0
0780
0F00
3C00
7000
E000
E000
3800
1E00
0780
03C0
00C0
0040
ENDCHAR
STARTCHAR guilsinglright
ENCODING 8250
SWIDTH 368 0
DWIDTH 14 0
BBX 10 14 2 7
BITMAP
8000
E000
7800
3C00
0F00
03C0
01C0
01C0
0700
1E00
7800
F000
C000
8000
ENDCHAR
STARTCHAR fraction
ENCODING 8260
SWIDTH 185 0
DWIDTH 7 0
BBX 29 33 -11 -3
BITMAP
00000078
00000070
000000E0
000001C0
000003C0
00000380
00000700
00000E00
00001E00
00003C00
00003800
00007000
0000E000
0001E000
0001C000
00038000
00070000
000F0000
000E0000
001C0000
00380000
00780000
00F00000
00E00000
01C00000
03800000
07800000
07000000
0E000000
1C000000
3C000000
38000000
F0000000
ENDCHAR
STARTCHAR zerosuperior
ENCODING 8304
SWIDTH 449 0
DWIDTH 17 0
BBX 15 14 1 14
BITMAP
0FE0
1FF0
3838
701C
600C
E00E
E00E
E00E
600C
600C
701C
3C38
1FF0
07C0
ENDCHAR
STARTCHAR foursuperior
ENCODING 8308
SWIDTH 452 0
DWIDTH 17 0
BBX 15 14 1 15
BITMAP
E018
E018
E018
E018
E018
E018
6018
6018
7FFE
3FFE
0018
0018
0018
0018
ENDCHAR
STARTCHAR fivesuperior
ENCODING 8309
SWIDTH 472 0
DWIDTH 18 0
BBX 14 14 2 15
BITMAP
FFFC
FFFC
C000
C000
C000
C000
FFF8
FFFC
000C
000C
000C
001C
FFFC
FFF8
ENDCHAR
STARTCHAR sixsuperior
ENCODING 8310
SWIDTH 466 0
DWIDTH 18 0
BBX 15 14 1 15
BITMAP
0FFE
3FFE
7800
7000
6000
E000
FFF8
FFFE
E00E
6006
7006
780E
3FFC
0FF8
ENDCHAR
STARTCHAR sevensuperior
ENCODING 8311
SWIDTH 408 0
DWIDTH 16 0
BBX 14 14 1 15
BITMAP
FFF8
FFFC
0038
0070
00E0
01E0
03C0
0380
0700
0E00
1C00
3C00
3800
7000
ENDCHAR
STARTCHAR eightsuperior
ENCODING 8312
SWIDTH 479 0
DWIDTH 18 0
BBX 15 14 2 15
BITMAP
3FF8
FFFC
E01C
C00C
C00C
E01C
7FF8
FFFC
C00C
C00E
C00E
E01C
FFFC
3FF8
ENDCHAR
STARTCHAR ninesuperior
ENCODING 8313
SWIDTH 460 0
DWIDTH 17 0
BBX 15 14 1 15
BITMAP
3FF0
7FF8
701C
E00E
E00E
6006
7FFE
3FFE
0006
000E
000E
001C
3FF8
3FF0
ENDCHAR
STARTCHAR zeroinferior
ENCODING 8320
SWIDTH 449 0
DWIDTH 17 0
BBX 15 14 1 -1
BITMAP
0FE0
1FF0
3838
701C
600C
E00E
E00E
E00E
600C
600C
701C
3C38
1FF0
07C0
ENDCHAR
STARTCHAR oneinferior
ENCODING 8321
SWIDTH 222 0
DWIDTH 8 0
BBX 6 14 1 0
BITMAP
F0
F8
38
1C
1C
1C
1C
1C
1C
1C
1C
1C
1C
1C
ENDCHAR
STARTCHAR twoinferior
ENCODING 8322
SWIDTH 442 0
DWIDTH 17 0
BBX 13 14 2 0
BITMAP
FFE0
FFF0
0038
0018
0018
0038
7FF0
FFE0
E000
C000
C000
C000
FFF8
FFF8
ENDCHAR
STARTCHAR threeinferior
ENCODING 8323
SWIDTH 443 0
DWIDTH 17 0
BBX 14 14 1 0
BITMAP
FFF0
FFF8
001C
000C
000C
001C
0FF8
0FF8
001C
000C
000C
001C
FFF8
FFF0
ENDCHAR
STARTCHAR fourinferior
ENCODING 8324
SWIDTH 452 0
DWIDTH 17 0
BBX 15 14 1 0
BITMAP
E018
E018
E018
E018
E018
E018
6018
6018
7FFE
3FFE
0018
0018
0018
0018
ENDCHAR
STARTCHAR fiveinferior
ENCODING 8325
SWIDTH 472 0
DWIDTH 18 0
BBX 14 14 2 0
BITMAP
FFFC
FFFC
C000
C000
C000
C000
FFF8
FFFC
000C
000C
000C
001C
FFFC
FFF8
ENDCHAR
STARTCHAR sixinferior
ENCODING 8326
SWIDTH 466 0
DWIDTH 18 0
BBX 15 14 1 0
BITMAP
0FFE
3FFE
7800
7000
6000
E000
FFF8
FFFE
E00E
6006
7006
780E
3FFC
0FF8
ENDCHAR
STARTCHAR seveninferior
ENCODING 8327
SWIDTH 408 0
DWIDTH 16 0
BBX 14 14 1 0
BITMAP
FFF8
FFFC
0038
0070
00E0
01E0
03C0
0380
0700
0E00
1C00
3C00
3800
7000
ENDCHAR
STARTCHAR eightinferior
ENCODING 8328
SWIDTH 479 0
DWIDTH 18 0
BBX 15 14 2 0
BITMAP
3FF8
FFFC
E01C
C00C
C00C
E01C
7FF8
FFFC
C00C
C00E
C00E
E01C
FFFC
3FF8
ENDCHAR
STARTCHAR nineinferior
ENCODING 8329
SWIDTH 460 0
DWIDTH 17 0
BBX 15 14 1 0
BITMAP
3FF0
7FF8
701C
E00E
E00E
6006
7FFE
3FFE
0006
000E
000E
001C
3FF8
3FF0
ENDCHAR
STARTCHAR Euro
ENCODING 8364
SWIDTH 884 0
DWIDTH 34 0
BBX 31 28 1 0
BITMAP
000FFFFE
003FFFFC
00FFFFFC
01FFFFF8
03FFFFF0
07F80000
07E00000
0FC00000
0F800000
1F800000
7FFFFF80
FFFFFF00
1F000000
1F000000
1F000000
1F000000
FFFFFC00
FFFFF800
1F800000
0F800000
0FC00000
07E00000
07F80000
03FFFFF8
01FFFFF8
00FFFFF8
003FFFF8
000FFFF8
ENDCHAR
STARTCHAR uni2117
ENCODING 8471
SWIDTH 829 0
DWIDTH 32 0
BBX 28 28 2 0
BITMAP
003FC000
01E07000
03000C00
0C000600
18000300
30000180
200000C0
60000040
40FFE060
C0803020
80801820
80800830
80800810
80801810
80803010
809FE010
80800030
80800020
C0800020
40800060
60000040
200000C0
10000180
18000300
0C000600
03000C00
01E07000
003F8000
ENDCHAR
STARTCHAR trademark
ENCODING 8482
SWIDTH 536 0
DWIDTH 20 0
BBX 16 10 2 18
BITMAP
FEC3
FEC3
30C3
30E7
30E7
30AF
30BF
30BB
309B
309B
ENDCHAR
STARTCHAR onethird
ENCODING 8531
SWIDTH 951 0
DWIDTH 36 0
BBX 33 33 2 -3
BITMAP
0000007000
1C0000E000
1F0001C000
0700038000
0300078000
0300070000
03000E0000
03001C0000
03003C0000
0300380000
0300700000
0300E00000
0301E00000
0301C00000
0303800000
0007000000
000F1FFC00
001E1FFF00
001C000700
0038000300
0070000300
00F0000700
00E003FE00
01C003FF00
0380000300
0780000380
0700000380
0E00000700
1C001FFF00
3C001FFC00
3800000000
7000000000
E000000000
ENDCHAR
STARTCHAR twothirds
ENCODING 8532
SWIDTH 979 0
DWIDTH 37 0
BBX 34 33 2 -3
BITMAP
0000001C00
FFE0003800
FFF0007000
003800F000
001800E000
001801C000
0038038000
7FF0078000
FFE0070000
C0000E0000
C0001C0000
C0003C0000
C000380000
FFF8700000
FFF8E00000
0001E00000
0003CFFE00
00038FFF80
0007000380
000E000180
001E000180
001C000380
003801FF00
007001FF80
00F0000180
00E00001C0
01C00001C0
0380000380
07800FFF80
0F000FFF00
0E00000000
1C00000000
3800000000
ENDCHAR
STARTCHAR oneeighth
ENCODING 8539
SWIDTH 985 0
DWIDTH 37 0
BBX 34 33 2 -3
BITMAP
0000007000
1C0000E000
1F0001C000
0700038000
0300078000
0300070000
03000E0000
03001C0000
03003C0000
0300380000
0300700000
0300E00000
0301E00000
0301C00000
0303800000
0007000000
000F07FF00
001E0FFF80
001C1C0380
00381801C0
00701801C0
00F01C0180
00E007FF00
01C00FFF80
03801C01C0
07801801C0
07001801C0
0E001C03C0
1C000FFF80
3C0007FF00
3800000000
7000000000
E000000000
ENDCHAR
STARTCHAR threeeighths
ENCODING 8540
SWIDTH 972 0
DWIDTH 37 0
BBX 33 33 2 -3
BITMAP
0000003C00
FFE0003800
FFF8007000
003800E000
001801E000
001801C000
0038038000
1FF0070000
1FF80E0000
00181E0000
001C1C0000
0018380000
0038700000
FFF8F00000
FFE0E00000
0001C00000
00038FFE00
00079FFF00
00071C0380
000E380180
001C180180
003C180380
00780FFF00
00701FFF00
00E0380380
01C0380180
03C0380180
03803C0380
07001FFF80
0E000FFE00
1E00000000
1C00000000
7800000000
ENDCHAR
STARTCHAR fiveeighths
ENCODING 8541
SWIDTH 973 0
DWIDTH 37 0
BBX 33 33 2 -3
BITMAP
0000001C00
FFFC003800
FFFC007000
C00000F000
C00000E000
C00001C000
C000038000
FFF8078000
FFFC070000
001C0E0000
000C1C0000
000C3C0000
001C380000
FFFC700000
FFF0E00000
0001E00000
0003CFFE00
00039FFF80
00071C0380
000E180180
001E180180
001C1C0380
00380FFF00
00701FFF80
00F0380380
00E0380180
01C0380180
03801C0380
07801FFF80
0F000FFE00
0E00000000
1C00000000
3800000000
ENDCHAR
STARTCHAR seveneighths
ENCODING 8542
SWIDTH 965 0
DWIDTH 37 0
BBX 33 33 2 -3
BITMAP
0000007000
7FFC00E000
7FFC01C000
003C038000
0038078000
0070070000
00E00E0000
01C01C0000
03C03C0000
0380380000
0700700000
0E00E00000
1C01E00000
3C01C00000
7803800000
0007000000
000F0FFE00
001E1FFF00
001C3C0780
0038380380
0070380380
00F0180300
00E00FFE00
01C01FFF00
0380380380
0780300180
0700300180
0E003C0780
1C001FFF00
3C000FFE00
3800000000
7000000000
E000000000
ENDCHAR
STARTCHAR minus
ENCODING 8722
SWIDTH 690 0
DWIDTH 26 0
BBX 22 3 2 13
BITMAP
FFFFFC
FFFFFC
FFFFFC
ENDCHAR
STARTCHAR approxequal
ENCODING 8776
SWIDTH 691 0
DWIDTH 26 0
BBX 22 16 2 6
BITMAP
1F8004
7FE004
FFFC1C
E07FFC
C01FF8
8003E0
000000
000000
000000
000000
1F8004
7FE004
FFFC1C
E07FFC
C01FF8
8003E0
ENDCHAR
STARTCHAR notequal
ENCODING 8800
SWIDTH 690 0
DWIDTH 26 0
BBX 28 33 -1 -3
BITMAP
00000070
000000E0
000001E0
000001C0
00000380
00000700
00000E00
00001E00
00001C00
1FFFFF80
1FFFFF80
1FFFFF80
0001E000
0001C000
00038000
00078000
00070000
000E0000
001E0000
001C0000
1FFFFF80
1FFFFF80
1FFFFF80
01E00000
01C00000
03800000
07000000
0F000000
1E000000
1C000000
38000000
70000000
F0000000
ENDCHAR
STARTCHAR lessequal
ENCODING 8804
SWIDTH 690 0
DWIDTH 26 0
BBX 22 26 2 -2
BITMAP
00000C
00007C
0001FC
0007F8
003FC0
00FF00
03F800
1FE000
7F0000
FC0000
FC0000
7F0000
1FE000
03F800
00FF00
003FC0
0007F8
0001FC
00007C
00000C
000000
000000
000000
FFFFFC
FFFFFC
FFFFFC
ENDCHAR
STARTCHAR greaterequal
ENCODING 8805
SWIDTH 690 0
DWIDTH 26 0
BBX 22 26 2 -2
BITMAP
C00000
F80000
FE0000
7FC000
0FF000
03FC00
007F80
001FE0
0003F8
0000FC
0000FC
0003F8
001FE0
007F80
03FC00
0FF000
7FC000
FE0000
F80000
E00000
000000
000000
000000
FFFFFC
FFFFFC
FFFFFC
ENDCHAR
STARTCHAR .notdef
ENCODING -1
SWIDTH 430 0
DWIDTH 16 0
BBX 12 28 2 0
BITMAP
7FE0
C030
C010
C010
C010
C010
C010
C010
C010
C010
C010
C010
C010
C010
C010
C010
C010
C010
C010
C010
C010
C010
C010
C010
C010
C010
C030
7FE0
ENDCHAR
STARTCHAR nonmarkingreturn
ENCODING -1
SWIDTH 104 0
DWIDTH 4 0
BBX 1 1 0 0
BITMAP
00
ENDCHAR
STARTCHAR .null
ENCODING -1
SWIDTH 104 0
DWIDTH 4 0
BBX 1 1 0 0
BITMAP
00
ENDCHAR
STARTCHAR .ttfautohint
ENCODING -1
SWIDTH 104 0
DWIDTH 4 0
BBX 1 1 0 0
BITMAP
00
ENDCHAR
ENDFONT
